<?xml version="1.0" standalone="no"?>
<!DOCTYPE svg PUBLIC "-//W3C//DTD SVG 1.1//EN" "http://www.w3.org/Graphics/SVG/1.1/DTD/svg11.dtd" >
<svg>
<metadata>
Created by FontForge 20090914 at Thu Dec 17 17:06:43 2020
 By www-data
</metadata>
<defs>
<font id="SwensonRegular" horiz-adv-x="1815" >
  <font-face 
    font-family="Swenson"
    font-weight="400"
    font-stretch="normal"
    units-per-em="4096"
    panose-1="2 11 0 0 0 0 0 0 0 0"
    ascent="3276"
    descent="-820"
    x-height="1417"
    cap-height="2904"
    bbox="-578 -1200 3854 3682"
    underline-thickness="50"
    underline-position="-75"
    unicode-range="U+0020-U+F002"
  />
<missing-glyph horiz-adv-x="3072" 
d="M512 0v2560h2048v-2560h-2048zM2494 66v2428h-1916v-2428h1916z" />
    <glyph glyph-name=".notdef" horiz-adv-x="3072" 
d="M512 0v2560h2048v-2560h-2048zM2494 66v2428h-1916v-2428h1916z" />
    <glyph glyph-name="space" unicode=" " horiz-adv-x="913" 
 />
    <glyph glyph-name="exclam" unicode="!" horiz-adv-x="1065" 
d="M262 545l660 1765c0 12.667 8.83301 28.167 26.5 46.5s48.167 27.5 91.5 27.5c46.667 0 70 -22 70 -66c0 -12.667 -4 -27.667 -12 -45l-705 -1736c-12.667 -39.333 -40 -64 -82 -74c-11.333 0 -22.5 4.83301 -33.5 14.5s-17.5 21.167 -19.5 34.5
c2.66699 10.667 4 21.667 4 33zM119 -25h-37c-31.333 0 -51.5 12.833 -60.5 38.5s-13.5 60.834 -13.5 105.501c8.66699 48.667 34.5 90.167 77.5 124.5s89.5 51.5 139.5 51.5c46.667 0 70 -34 70 -102c0 -46.667 -18 -92.334 -54 -137.001s-76.667 -71.667 -122 -81z" />
    <glyph glyph-name="quotedbl" unicode="&#x22;" horiz-adv-x="1360" 
d="M606 1663c-11.333 123.333 -25.666 298 -42.999 524s-26 406.333 -26 541c7.33301 84.667 46.666 127 117.999 127c82 0 127.333 -42.333 136 -127c0 -125.333 -11.667 -331.166 -35 -617.5c-23.333 -286.333 -35 -435.5 -35 -447.5c0 -59.333 -22 -93.333 -66 -102
c-32.667 10.667 -49 44.667 -49 102zM1167 1663c-11.333 123.333 -25.667 298 -43 524s-26 406.333 -26 541c7.33301 84.667 47 127 119 127c90 0 135 -69.667 135 -209c0 -107.333 -11.667 -294.5 -35 -561.5s-35 -407.5 -35 -421.5c0 -59.333 -21.667 -93.333 -65 -102
c-33.333 10.667 -50 44.667 -50 102z" />
    <glyph glyph-name="numbersign" unicode="#" 
d="M520 0h-160l103 754h-361l-16 143h401l74 520h-368v144h385l102 745h184l-119 -745h472l102 745h168l-111 -745h344l9 -144h-377l-70 -520h336l12 -143h-364l-107 -754h-168l107 754h-467zM1118 897l74 520h-463l-82 -520h471z" />
    <glyph glyph-name="dollar" unicode="$" 
d="M545 111c-58.667 12.667 -132 51.166 -220 115.499s-132 171.833 -132 322.5c0 16 2.66699 46 8 90c0 60 26 90 78 90c20.667 0 38 -7.5 52 -22.5s21 -34.833 21 -59.5v-16c-5.33301 -19.333 -8 -46.666 -8 -81.999c0 -93.333 36.833 -171 110.5 -233
s162.5 -95 266.5 -99c84.667 3.33301 165.167 27 241.5 71s137.833 103.667 184.5 179s70 157.333 70 246c0 80.667 -18.667 153.167 -56 217.5s-94.166 143.833 -170.499 238.5s-133.5 176.667 -171.5 246s-57 146.666 -57 231.999c2.66699 138.667 37 249 103 331
s142.833 139.5 230.5 172.5s170.167 49.5 247.5 49.5h58l119 286c8.66699 27.333 33 41 73 41c36 0 54 -16.333 54 -49v-12l-119 -299c70.667 -25.333 128.5 -68 173.5 -128s67.5 -124 67.5 -192c0 -34 -10 -64 -30 -90s-42.667 -41 -68 -45
c-35.333 8.66699 -53 56.334 -53 143.001c0 58.667 -29.5 106.834 -88.5 144.501s-131.833 56.5 -218.5 56.5c-95.333 0 -180 -27.5 -254 -82.5s-113.667 -136.5 -119 -244.5c0 -100.667 17.5 -184.667 52.5 -252s88.833 -145.666 161.5 -234.999
s126.834 -168.833 162.501 -238.5s53.5 -155.834 53.5 -258.501c0 -118.667 -30.833 -229 -92.5 -331s-146.834 -182.833 -255.501 -242.5s-230.334 -89.5 -365.001 -89.5l-159 -393c-17.333 -49.333 -43.333 -74 -78 -74c-20 0 -33.667 22 -41 66
c10.667 21.333 16 37.666 16 48.999z" />
    <glyph glyph-name="percent" unicode="%" horiz-adv-x="2810" 
d="M1352 1839c-10.667 -166 -54.001 -324.497 -130.001 -475.497s-170.5 -272 -283.5 -363s-227.833 -136.5 -344.5 -136.5c-248 0 -376.333 136.667 -385 410c6 77.333 26.333 192 61 344c40.667 131.333 97.834 246.666 171.501 345.999s158.834 175.666 255.501 229
c96.667 53.333 197.334 80 302.001 80c84 -12.667 150.167 -41.334 198.5 -86c48.333 -44.667 82.5 -88.5 102.5 -131.5l43 -93.5c87.333 0 191.666 25.333 312.999 76s235.333 107.334 342 170c106.667 62.667 176.667 107.667 210 135c16 16 35 24 57 24
c29.333 0 58 -31.333 86 -94c-90.667 -132.667 -225.167 -315.167 -403.5 -547.5l-586.5 -765.5c-212.667 -278 -386.834 -517 -522.501 -717s-225.5 -358.667 -269.5 -476c-20 -57.333 -50 -86 -90 -86c-14 0 -25 20.333 -33 61c8 30 16.333 71 25 123
c20 69.333 151.333 273.166 394 611.499l786.5 1052.5c281.667 363.333 458.834 581.333 531.501 653.999v0c2 0 -48.833 -31.833 -152.5 -95.5s-215.834 -121 -336.501 -172s-234.667 -76.5 -342 -76.5zM552.999 975.003c80.667 0 170.667 35.5 270 106.5
s185.166 171.333 257.499 301s112.166 276.5 119.499 440.5c-9.33301 0 -21.666 8.16699 -36.999 24.5s-24.666 35.5 -27.999 57.5c8 32.667 27 64 57 94c-52.667 106.667 -133.334 160 -242.001 160c-136.667 0 -248.167 -48.667 -334.5 -146
s-149.666 -214.166 -189.999 -350.499s-67.5 -276.833 -81.5 -421.5c7.33301 -160.667 77 -249.334 209 -266.001zM1831 127.003c74 0 147.334 19.498 220.001 58.498s138.167 94.5 196.5 166.5s103.833 156.667 136.5 254c49.333 167.333 74 301.333 74 402
c0 88 -24 161.833 -72 221.5s-113 89.5 -195 89.5c-72.667 0 -145.334 -27.5 -218.001 -82.5s-137.167 -129.167 -193.5 -222.5s-97.833 -193.666 -124.5 -300.999c-20 -85.333 -35 -179.666 -45 -282.999c8 -185.333 81.667 -286.333 221 -303zM2593 983.001
c0 -136.667 -31.498 -279.833 -94.498 -429.5s-151 -275.167 -264 -376.5s-242.167 -155 -387.5 -161c-123.333 0 -215.5 41.5 -276.5 124.5s-91.5 184.833 -91.5 305.5c0 140 30.167 286.5 90.5 439.5s148.166 281.167 263.499 384.5s251.333 155 407.999 155
c125.333 -4 215.333 -46.667 270 -128s82 -186 82 -314z" />
    <glyph glyph-name="ampersand" unicode="&#x26;" horiz-adv-x="2048" 
d="M1151 463c-12.667 29.333 -37.8301 72.3369 -75.4971 129.004s-65.834 105 -84.501 145c0 8.66699 -5.33301 21 -16 37c2 15.333 7.66699 28 17 38s19.166 16.833 29.499 20.5s23.5 6.83398 39.5 9.50098s28.333 4.66699 37 6c40.667 -82.667 96.667 -172.667 168 -270
c109.333 136.667 177.333 226.667 204 270c6 5.33301 22.667 8 50 8c60.667 0 94.667 -8.33301 102 -25c-15.333 -36.667 -45.333 -83.5 -90 -140.5l-197 -244.5c4.66699 -6 44.167 -63.167 118.5 -171.5l176.5 -258.5c-9.33301 -2.66699 -15.5 -4.66699 -18.5 -6
s-8.5 -2.5 -16.5 -3.5s-41.333 -3.16699 -100 -6.5c-24.667 0 -50 12.5 -76 37.5s-50.167 55 -72.5 90s-44.666 75.667 -66.999 122s-35.166 72.5 -38.499 78.5c-135.333 -103.333 -229.666 -172.833 -282.999 -208.5s-110.5 -63.167 -171.5 -82.5s-147.167 -37 -258.5 -53
c-42 -6 -70.667 -9 -86 -9c-110 0 -200.333 31.167 -271 93.5s-108.667 140.5 -114 234.5c10.667 166.667 101 314 271 442c120 91.333 194.333 149.5 223 174.5s43 48.833 43 71.5c0 12 -19 48.333 -57 109s-65.333 136.334 -82 227.001c0 122.667 29.833 235 89.5 337
s137.5 188.5 233.5 259.5s197.833 125.167 305.5 162.5s207.834 56 300.501 56s181.5 -19.667 266.5 -59s127.5 -98.666 127.5 -177.999c0 -52 -30 -108 -90 -168c-18 -16.667 -78.333 -63.834 -181 -141.501s-190.334 -148.834 -263.001 -213.501
s-124 -125.334 -154 -182.001c-76.667 0 -120.667 19 -132 57c18.667 79.333 58.667 145.333 120 198s161.166 130.334 299.499 233.001s207.5 172 207.5 208c0 57.333 -67 86 -201 86c-98 0 -208.667 -29.333 -332 -88s-227.833 -135.334 -313.5 -230.001
s-129.834 -193.334 -132.501 -296.001c6.66699 -37.333 26.5 -89.833 59.5 -157.5s56 -116.834 69 -147.501s19.5 -68.334 19.5 -113.001c0 -40.667 -17.333 -78.334 -52 -113.001s-95.334 -81.667 -182.001 -141c-80.667 -52.667 -144.834 -115.167 -192.501 -187.5
s-73.5 -140.833 -77.5 -205.5c4 -50.667 25.333 -92.667 64 -126s93.667 -50 165 -50c143.333 0 277.5 42 402.5 126s214.833 154 269.5 210z" />
    <glyph glyph-name="quotesingle" unicode="'" horiz-adv-x="606" 
d="M721 2376l114.5 297.5l114.5 296.5l19 28c7.33301 10.667 14.666 18 21.999 22s21 7.66699 41 11c28.667 0 59.334 1.33301 92.001 4s52.667 4 60 4c32.667 0 49 -8 49 -24s-13.667 -42 -41 -78l-385 -586z" />
    <glyph glyph-name="parenleft" unicode="(" horiz-adv-x="1511" 
d="M377 -999c-28.667 158.667 -47.999 349.668 -57.999 573.001c2.66699 350 53.5 699.667 152.5 1049s221.167 671.333 366.5 966s290.666 550.167 435.999 766.5s269.666 382.833 372.999 499.5h147c-247.333 -298.667 -457 -597 -629 -895s-308.667 -586.667 -410 -866
s-174.833 -548 -220.5 -806s-69.5 -508.333 -71.5 -751c6.66699 -166.667 20.334 -345.334 41.001 -536.001h-127z" />
    <glyph glyph-name="parenright" unicode=")" horiz-adv-x="1511" 
d="M1065 2855c30 -167.333 45 -358.668 45 -574.001c0 -350.667 -48.5 -699 -145.5 -1045s-217.167 -665.167 -360.5 -957.5s-287 -546.333 -431 -762s-271.333 -387.5 -382 -515.5h-143c242.667 296.667 449 593 619 889s305.667 583.667 407 863s174 547.833 218 805.5
s66 506.834 66 747.501c0 209.333 -9.33301 392.333 -28 549h135z" />
    <glyph glyph-name="asterisk" unicode="*" horiz-adv-x="1360" 
d="M1118 1638l-237 521l-361 -447l-143 127l414 393l-496 160l82 184l487 -258l58 529l184 8l-131 -545l528 139l49 -184l-577 -65l307 -471z" />
    <glyph glyph-name="plus" unicode="+" horiz-adv-x="2458" 
d="M1151 0v655h-655v136h655v659h143v-659h652v-136h-652v-655h-143z" />
    <glyph glyph-name="comma" unicode="," horiz-adv-x="913" 
d="M-143 -336l112.498 280.5l112.5 280.5c6.66699 26 14.334 44.167 23.001 54.5s24.334 15.5 47.001 15.5h135c48.667 0 73 -11 73 -33c0 -3.33301 -10.667 -26.333 -32 -69l-369 -562c-8 -16 -25.667 -24 -53 -24c-32.667 0 -49 13.667 -49 41v16z" />
    <glyph glyph-name="hyphen" unicode="-" horiz-adv-x="1360" 
d="M82 647c19.333 68 34.833 108.999 46.5 122.999s35.834 21 72.501 21h815c-24.667 -73.333 -41.834 -115.666 -51.501 -126.999s-37.5 -17 -83.5 -17h-799z" />
    <glyph glyph-name="period" unicode="." horiz-adv-x="913" 
d="M82 -25c-60 0 -90 27.333 -90 82c0 57.333 21.5 111.333 64.5 162s93.833 76 152.5 76c46.667 0 70 -34 70 -102c0 -57.333 -18.5 -108 -55.5 -152s-84.167 -66 -141.5 -66z" />
    <glyph glyph-name="slash" unicode="/" horiz-adv-x="1135" 
d="M119 -94h-185l1258 2838l94 217h184l-1253 -2842z" />
    <glyph glyph-name="zero" unicode="0" 
d="M586 -8c-118.667 0 -219.003 26.833 -301.003 80.5s-143.667 128.667 -185 225s-63.666 210.166 -66.999 341.499c6.66699 138.667 35.334 306.667 86.001 504c53.333 165.333 120.333 319.333 201 462s171 267.5 271 374.5s206.833 191.167 320.5 252.5
s228.834 93 345.501 95c162.667 0 290.167 -58.167 382.5 -174.5s138.5 -274.166 138.5 -473.499c0 -165.333 -33 -336 -99 -512c-114 -332 -266.333 -606.833 -457 -824.5s-402.667 -334.5 -636 -350.5zM527.997 135c198.667 0 383.502 90.667 554.502 272
s311.167 426.666 420.5 735.999c76.667 202.667 115 389.667 115 561c0 144 -29.667 256.5 -89 337.5s-141.666 125.5 -246.999 133.5c-117.333 0 -236.333 -42.167 -357 -126.5s-232.334 -200.666 -335.001 -348.999s-187.334 -314.833 -254.001 -499.5
c-82 -237.333 -127 -442 -135 -614c4 -132 33.167 -238 87.5 -318s134.166 -124.333 239.499 -133z" />
    <glyph glyph-name="one" unicode="1" 
d="M471 8l-191.999 -8.00098c78 117.333 155.667 244.833 233 382.5s155 283.834 233 438.501l226 466l213 466c-170.667 -116.667 -271.667 -184.667 -303 -204s-61.333 -29 -90 -29c-14 0 -26.333 16.333 -37 49c8.66699 54.667 42.667 97 102 127
c62 34 113.333 64 154 90s77.334 51.833 110.001 77.5s59.5 48.167 80.5 67.5l65.5 60c20 18.667 50.333 61.5 91 128.5s76.167 118.333 106.5 154s64.166 53.5 101.499 53.5c5.33301 0 17.666 -3 36.999 -9c30 -8.66699 45 -29 45 -61
c0 -52.667 -64.333 -149.667 -193 -291c-26 -28 -79.5 -131.333 -160.5 -310l-264 -587c-95 -212.667 -191.167 -414.667 -288.5 -606s-187.333 -343 -270 -455z" />
    <glyph glyph-name="two" unicode="2" 
d="M401 168c-102.667 -60 -189.502 -105.665 -260.502 -136.998s-154.833 -47 -251.5 -47c-133.333 15.333 -200 82 -200 200c0 76.667 23.833 139.5 71.5 188.5s111.167 73.5 190.5 73.5c66 0 128.167 -10.333 186.5 -31s143.5 -55.334 255.5 -104.001
c180 142 354.167 293.167 522.5 453.5s319 327 452 500s223.167 333.167 270.5 480.5c22 78.667 33 140 33 184c0 74 -22.833 130.833 -68.5 170.5s-104.834 59.5 -177.501 59.5c-96 0 -185.5 -26.833 -268.5 -80.5s-161.5 -120 -235.5 -199l-225 -241.5
c-14 0 -31.5 9.83301 -52.5 29.5s-33.5 37.167 -37.5 52.5c50 97.333 120.333 191.666 211 282.999s191.334 165.333 302.001 222s221 85 331 85c108.667 0 200.667 -30.5 276 -91.5s113 -146.5 113 -256.5c0 -93.333 -22.333 -196.833 -67 -310.5
s-109.667 -229.834 -195 -348.501c-272 -376.667 -621.667 -723.667 -1049 -1041c212.667 -82.667 405.334 -127.667 578.001 -135c158 8.66699 296 41.334 414 98.001v-65c0 -117.333 -136.667 -176 -410 -176c-241.333 0 -477.666 61.333 -708.999 184zM257.998 250.002
c-21.333 6 -52.333 16.167 -93 30.5s-78.167 25.833 -112.5 34.5s-70.833 13 -109.5 13c-84.667 -8 -127 -53 -127 -135c14 -66 59 -99 135 -99c56.667 4 159 47.667 307 131v25z" />
    <glyph glyph-name="three" unicode="3" 
d="M1040 1176c-24.667 -2 -58.834 -7.33398 -102.501 -16.001s-79.167 -14.334 -106.5 -17.001c-14.667 5.33301 -36.5 10.166 -65.5 14.499s-51.333 11.666 -67 21.999s-27.167 30.833 -34.5 61.5c10.667 68 85.667 102 225 102c36 0 97.333 -5.33301 184 -16
c124 67.333 227 140.166 309 218.499s141.833 154.166 179.5 227.499s56.5 140.333 56.5 201c0 59.333 -20 103.5 -60 132.5s-92.333 43.5 -157 43.5c-88 0 -180.833 -22 -278.5 -66s-183.834 -109.333 -258.501 -196c-45.333 -45.333 -87.666 -72.666 -126.999 -81.999
c-22 0 -38.333 22 -49 66c28 82 84 156.333 168 223s179.5 119.167 286.5 157.5s204.167 57.5 291.5 57.5c103.333 0 189.166 -28.167 257.499 -84.5s102.5 -134.5 102.5 -234.5c0 -82 -24.833 -170.833 -74.5 -266.5s-119.667 -184.667 -210 -267
s-193.5 -146.166 -309.5 -191.499c80 -61.333 141.667 -118.5 185 -171.5s65 -129.833 65 -230.5c0 -121.333 -28.333 -236.166 -85 -344.499s-133.167 -202.666 -229.5 -282.999s-203.166 -142.5 -320.499 -186.5s-234.666 -66 -351.999 -66
c-115.333 0 -215 25.833 -299 77.5s-136 126.834 -156 225.501c-10.667 97.333 -16 161.333 -16 192c0 128.667 30 193 90 193c14.667 0 27.167 -3 37.5 -9s15.5 -11.333 15.5 -16c0 -24.667 -5.33301 -75 -16 -151c9.33301 -230.667 106.333 -356.334 291 -377.001
c30 0 55.667 -2.66699 77 -8c122 5.33301 244.167 40.333 366.5 105s223 150.834 302 258.501s118.5 223.834 118.5 348.501c0 101.333 -25 185.5 -75 252.5s-103 100.5 -159 100.5z" />
    <glyph glyph-name="four" unicode="4" 
d="M975 770c-23.333 4.66699 -79.0029 10.835 -167.003 18.502l-250 22c-78.667 7 -131 13.833 -157 20.5c-35.333 0 -66.666 -9.33301 -93.999 -28s-58.666 -47.334 -93.999 -86.001s-65.5 -68.167 -90.5 -88.5s-54.833 -31.833 -89.5 -34.5
c-36.667 11.333 -62.334 21.166 -77.001 29.499s-22 24.5 -22 48.5c0 49.333 38.667 105 116 167s141.333 99 192 111c30.667 13.333 101.834 120.333 213.501 321s215.834 406.167 312.501 616.5s145 341.5 145 393.5c0 34.667 15.667 68.667 47 102s63.666 50 96.999 50
c32.667 0 49 -27.333 49 -82c0 -38.667 -16.333 -102.667 -49 -192l-204.5 -398l-250 -468l-176.5 -326c57.333 -10 141.166 -23.333 251.499 -40s198.5 -26.667 264.5 -30c63.333 8.66699 99 17 107 25c12 22 105 202.333 279 541s274.667 528.334 302 569.001
c15.333 21.333 37.333 32 66 32c38 0 57 -21.667 57 -65c0 -8 -5.33301 -28.667 -16 -62c-49.333 -78.667 -144.166 -260.167 -284.499 -544.5s-221.833 -446.833 -244.5 -487.5c14 -8.66699 53.667 -19.667 119 -33c26.667 0 60.5 1.5 101.5 4.5s74.167 4.5 99.5 4.5
c48.667 0 78.667 -5.66699 90 -17c8 0 12 -11 12 -33c0 -29.333 -19.667 -55 -59 -77s-85 -33 -137 -33c-34 2.66699 -79.667 8.83398 -137 18.501s-100.666 14.5 -129.999 14.5h-32c-12 -24.667 -58.167 -136.334 -138.5 -335.001s-135.5 -327.334 -165.5 -386.001
c-15.333 -38.667 -49.333 -58 -102 -58c-30.667 0 -49.667 22 -57 66c2 10 4.5 23.5 7.5 40.5s5.83301 29.5 8.5 37.5c51.333 137.333 105 266.333 161 387s98 208.667 126 264z" />
    <glyph glyph-name="five" unicode="5" 
d="M496 1409l147 359c60.667 146.667 100.334 237.334 119.001 272.001c11.333 27.333 24 56.333 38 87s34.667 59.167 62 85.5s68.166 48.5 122.499 66.5s126.166 27 215.499 27c93.333 -3.33301 161.166 -6.33301 203.499 -9s90.5 -6.5 144.5 -11.5l131 -12.5
c17.333 2.66699 40.166 5.16699 68.499 7.5s53.5 5.5 75.5 9.5c0 -64 -12.833 -107 -38.5 -129s-74.5 -35 -146.5 -39c-13.333 5.33301 -36.333 8 -69 8c-44.667 0 -108 0.666992 -190 2s-139 2 -171 2c-102 0 -176.667 -10.167 -224 -30.5s-90 -72.833 -128 -157.5
c-64 -153.333 -117.333 -287.333 -160 -402c4 0 29.167 9 75.5 27s95.833 33.667 148.5 47s109.334 20 170.001 20c89.333 0 169.666 -21.333 240.999 -64s127.5 -100.5 168.5 -173.5s61.5 -153.5 61.5 -241.5c0 -156.667 -34 -307 -102 -451s-161.333 -271.5 -280 -382.5
s-252.167 -197.167 -400.5 -258.5s-298.5 -92 -450.5 -92c-150 0 -256.333 30.167 -319 90.5s-97 124.5 -103 192.5c0 37.333 6.5 72 19.5 104s29.5 48 49.5 48c33.333 0 50 -43.667 50 -131c0 -46.667 29.833 -86.5 89.5 -119.5s136.167 -52.167 229.5 -57.5
c164.667 6 327.834 56 489.501 150s293.834 217.5 396.501 370.5s154 314.167 154 483.5c0 114 -29.667 204.667 -89 272s-144.333 101 -255 101c-135.333 0 -274.333 -48 -417 -144c-18.667 -12.667 -40 -44.334 -64 -95.001s-45.833 -88.334 -65.5 -113.001
s-50.5 -37 -92.5 -37c-45.333 0 -72.666 25.667 -81.999 77c5.33301 43.333 23.833 87.833 55.5 133.5s72.167 81.834 121.5 108.501z" />
    <glyph glyph-name="six" unicode="6" 
d="M1544 2392c22.667 10.667 38.999 16.0029 48.999 16.0029c16 0 33 -5.5 51 -16.5s27 -24.5 27 -40.5c0 -35.333 -31.333 -69.333 -94 -102c-123.333 -68 -242 -150.167 -356 -246.5s-215.167 -193.5 -303.5 -291.5s-164 -189.5 -227 -274.5
s-117.167 -161.167 -162.5 -228.5c-54 -71.333 -111 -181.5 -171 -330.5s-91.667 -287.167 -95 -414.5c17.333 -205.333 122.666 -320 315.999 -344c94 2 187.5 36.5 280.5 103.5s177.833 153.667 254.5 260s137 216.166 181 329.499s66 212.666 66 297.999
c0 78 -21.833 136.333 -65.5 175s-102.5 58 -176.5 58c-108 0 -209 -45 -303 -135c-52.667 -64.667 -97.667 -98.667 -135 -102c-2.66699 2.66699 -12.5 7.5 -29.5 14.5s-29.167 17.167 -36.5 30.5c16.667 66.667 54.834 125.5 114.501 176.5s128.5 90.333 206.5 118
s150 41.5 216 41.5c108.667 0 197.667 -32.833 267 -98.5s106 -168.167 110 -307.5c0 -192 -50.667 -372 -152 -540s-228.166 -301.5 -380.499 -400.5s-299.833 -148.5 -442.5 -148.5c-144 0 -255.5 49.5 -334.5 148.5s-120.5 222.833 -124.5 371.5
c3.33301 102 24.333 211.833 63 329.5s99.5 244.834 182.5 381.501s188.167 278 315.5 424c104.667 117.333 203.5 218.166 296.5 302.499s168.333 147.166 226 188.499s124.5 86.666 200.5 136c76 49.333 131.333 88.666 166 118z" />
    <glyph glyph-name="seven" unicode="7" 
d="M463 49c67.333 96.667 153.168 249.831 257.501 459.498l294.5 596c92 187.667 189.667 372.834 293 555.501s210.666 343.334 321.999 482.001c-70 0 -181.167 8.16699 -333.5 24.5s-267.833 24.5 -346.5 24.5c-94.667 0 -171 -13.667 -229 -41
c-16 -34 -42.333 -81.833 -79 -143.5s-74.667 -109.167 -114 -142.5c-33.333 -26 -63.333 -42.333 -90 -49c-30 0 -50.333 32.667 -61 98c6.66699 48 25.334 93 56.001 135l104 139c38.667 50.667 64.334 100 77.001 148c5.33301 1.33301 15.166 3 29.499 5s31.833 3 52.5 3
c57.333 0 86 -5.33301 86 -16c6 0 11.667 -3 17 -9c43.333 11.333 115.666 17 216.999 17c50.667 0 115.834 -4.5 195.501 -13.5s134.5 -14.167 164.5 -15.5c27.333 0 49.333 -2.66699 66 -8c211.333 13.333 338.333 20 381 20c32.667 0 49 -15 49 -45
c0 -28.667 -47.667 -112 -143 -250l-100.5 -143c-54.333 -78 -113.166 -169.5 -176.499 -274.5s-120 -211.5 -170 -319.5l-172.5 -372l-174.5 -374.5c-50 -105 -99.333 -203.667 -148 -296s-95.334 -170.833 -140.001 -235.5c-24 -32.667 -69 -49 -135 -49
c-42.667 0 -67.334 13.667 -74.001 41l11.5 22.5z" />
    <glyph glyph-name="eight" unicode="8" 
d="M864 1135c-228 -148 -398.5 -271.832 -511.5 -371.499s-177.167 -199.834 -192.5 -300.501c0 -226.667 136.333 -344 409 -352c18 2.66699 46 5.33398 84 8.00098s66 5.33398 84 8.00098c96.667 18 180.834 52.167 252.501 102.5s126.667 109.166 165 176.499
s59.166 134 62.499 200c0 169.333 -117.667 345.666 -353 528.999zM999 1233c26.667 -22 66.667 -61.498 120 -118.498s106.833 -135 160.5 -234s80.5 -202.833 80.5 -311.5c-26.667 -171.333 -103 -307.333 -229 -408s-276.333 -159.667 -451 -177
c-22 -2.66699 -54.667 -4 -98 -4c-177.333 0 -318.666 37.5 -423.999 112.5s-158 175.167 -158 300.5c0 97.333 25 185.166 75 263.499s108.167 144 174.5 197s157.666 118.667 273.999 197s198.5 139.166 246.5 182.499l-59.5 54c-33 30 -68.333 68.833 -106 116.5
s-70.167 100.5 -97.5 158.5s-42 119 -44 183c7.33301 122 54 226.167 140 312.5s191.333 151.333 316 195s247 65.5 367 65.5c118.667 0 218.334 -12.333 299.001 -37c62.667 -16 94 -43 94 -81c0 -30 -36.667 -49.333 -110 -58c-144.667 27.333 -233.334 41 -266.001 41
c-153.333 0 -305.333 -38.667 -456 -116s-228.334 -184.666 -233.001 -321.999c9.33301 -50.667 23 -101.334 41 -152.001c20 -47.333 41.167 -85.833 63.5 -115.5s51.833 -63.334 88.5 -101.001s61.334 -65.167 74.001 -82.5l831 627c16.667 0 25 -24.667 25 -74
c-6 -45.333 -33.333 -87.666 -82 -126.999c-180 -150 -398.667 -312.333 -656 -487z" />
    <glyph glyph-name="nine" unicode="9" 
d="M1208 1327c0 1.33301 8.16406 -7.16309 24.4971 -25.4961s24.5 -38.5 24.5 -60.5c0 -2.66699 -1.33301 -8 -4 -16s-4 -13.667 -4 -17c-45.333 -92.667 -132 -179 -260 -259s-250 -122 -366 -126c-208.667 42 -320.667 170.333 -336 385c4.66699 174 54 346.833 148 518.5
s218.333 311.167 373 418.5s319.667 161 495 161c133.333 0 241.666 -33 324.999 -99s125 -158.667 125 -278c0 -252 -77 -513.167 -231 -783.5s-351 -525.333 -591 -765s-491.667 -449.834 -755 -630.501c-26.667 -13.333 -58 -20 -94 -20c-36.667 0 -58.667 12.333 -66 37
c14 49.333 67.333 99.666 160 150.999c188.667 108.667 508.334 426.667 959.001 954c93.333 112 191.666 269.167 294.999 471.5s155 375.833 155 520.5c0 164.667 -69.667 260 -209 286c-32 8.66699 -66 13 -102 13c-115.333 0 -230.166 -44.167 -344.499 -132.5
s-212.166 -197.333 -293.499 -327s-133.666 -252.5 -156.999 -368.5c0 -13.333 -5.33301 -47.333 -16 -102c0 -68.667 18 -127.834 54 -177.501s87.667 -76.5 155 -80.5c150.667 9.33301 329.334 126.666 536.001 351.999z" />
    <glyph glyph-name="colon" unicode=":" horiz-adv-x="913" 
d="M8 -25c-54.667 0 -82 27.335 -82 82.002c0 59.333 19.833 115.166 59.5 167.499s89.5 78.5 149.5 78.5c24.667 0 44.5 -9.33301 59.5 -28s22.5 -43.334 22.5 -74.001c0 -56 -21.333 -107.667 -64 -155s-91 -71 -145 -71zM496 1118c-54.667 0 -86.333 27.333 -95 82
c46.667 166.667 120.667 250 222 250c54.667 0 82 -35.667 82 -107c0 -56 -20.667 -107.5 -62 -154.5s-90.333 -70.5 -147 -70.5z" />
    <glyph glyph-name="semicolon" unicode=";" horiz-adv-x="913" 
d="M496 1118c-54.667 0 -86.333 27.333 -95 82c46.667 166.667 120.667 250 222 250c54.667 0 82 -35.667 82 -107c0 -56 -20.667 -107.5 -62 -154.5s-90.333 -70.5 -147 -70.5zM-208.999 -336l108.5 280.501l108.5 280.5c15.333 41.333 40 64.666 74 69.999h135
c46.667 0 70 -11 70 -33c0 5.33301 -9.66699 -17.667 -29 -69l-360 -562c-12 -10.667 -28.667 -16 -50 -16c-38 0 -57 11 -57 33v16z" />
    <glyph glyph-name="less" unicode="&#x3c;" horiz-adv-x="2458" 
d="M1974 -41l-1495 688v152l1495 688v-160l-1310 -606l1310 -610v-152z" />
    <glyph glyph-name="equal" unicode="=" horiz-adv-x="2458" 
d="M1954 930h-1442v135h1442v-135zM1954 377h-1450v135h1450v-135z" />
    <glyph glyph-name="greater" unicode="&#x3e;" horiz-adv-x="2458" 
d="M479 1479l1495 -688v-144l-1495 -688v152l1315 610l-1315 606v152z" />
    <glyph glyph-name="question" unicode="?" horiz-adv-x="1286" 
d="M119 -16c-55.333 0 -86.668 27.334 -94.001 82.001c49.333 158 124.333 237 225 237c22.667 0 41.334 -9.33301 56.001 -28s22 -43.334 22 -74.001c0 -54.667 -21.167 -104.5 -63.5 -149.5s-90.833 -67.5 -145.5 -67.5zM261.998 688.001
c48 118.667 137.835 246.831 269.502 384.498l390 410c128.333 135.667 215.833 262.834 262.5 381.501c16 56.667 24 107 24 151c0 74 -18.5 130.333 -55.5 169s-79.833 60.334 -128.5 65.001c-26.667 5.33301 -45.667 8 -57 8c-62.667 0 -123.167 -17.833 -181.5 -53.5
s-107.333 -77 -147 -124s-62.834 -84.833 -69.501 -113.5c-16 -70 -57 -109.667 -123 -119c-26.667 0 -44.334 27.333 -53.001 82c30.667 126.667 105.334 234.167 224.001 322.5s246 132.5 382 132.5c105.333 0 193.166 -34.5 263.499 -103.5s105.5 -157.5 105.5 -265.5
c0 -136 -36 -256.833 -108 -362.5s-184 -225.834 -336 -360.501s-267 -243.667 -345 -327s-134.333 -183.666 -169 -300.999c-23.333 -102.667 -64.333 -158.667 -123 -168c-22 0 -37 30 -45 90c11.333 53.333 18 87.333 20 102z" />
    <glyph glyph-name="at" unicode="@" horiz-adv-x="3281" 
d="M2777 623h208.998c-57.333 -111.333 -146.166 -223 -266.5 -335c-120.333 -112 -261.5 -204.333 -423.5 -277s-330.667 -109 -506 -109c-49.333 0 -86.333 1.33301 -111 4c-218.667 13.333 -435 71 -649 173s-394 255.333 -540 460s-226 456.334 -240 755.001
c0 203.333 35.5 399.5 106.5 588.5s170.667 357 299 504s277.5 261.833 447.5 344.5s351.333 124 544 124c179.333 0 353.5 -29.5 522.5 -88.5s320.333 -143.667 454 -254s239.167 -242.833 316.5 -397.5s116 -323 116 -505c0 -158 -40 -322.833 -120 -494.5
s-188.833 -317.334 -326.5 -437.001s-287.834 -186.167 -450.5 -199.5c-80 4 -145.833 31.833 -197.5 83.5s-81.5 120.834 -89.5 207.501c-65.333 -83.333 -148.166 -150 -248.499 -200s-204.5 -77.667 -312.5 -83c-175.333 8 -301 72 -377 192s-126.667 280 -152 480
c3.33301 164 48.5 331.833 135.5 503.5s204.167 313.667 351.5 426s306 168.5 476 168.5c102.667 0 193.834 -28 273.501 -84s140.167 -142.667 181.5 -260l49.5 126.5l56.5 143.5h213l-389 -1208c-8 -64.667 -16.333 -123.334 -25 -176.001c0 -76 31.667 -118.333 95 -127
c132 18 247.5 82.5 346.5 193.5s173.833 241.333 224.5 391s76 290.5 76 422.5c0 136.667 -32.667 267 -98 391s-152.333 231.167 -261 321.5s-230.5 160.833 -365.5 211.5s-269.167 76 -402.5 76c-166.667 0 -322.167 -34 -466.5 -102s-263.833 -143.667 -358.5 -227
s-169 -159.333 -223 -228c-38.667 -56 -75.167 -124.667 -109.5 -206s-63 -172.5 -86 -273.5s-35.833 -206.167 -38.5 -315.5c6 -224.667 66.5 -431.667 181.5 -621s268.5 -340.333 460.5 -453s400 -172.334 624 -179.001c214.667 4 415.5 58.333 602.5 163
s343.833 233.334 470.5 386.001zM2064 1737c-12.667 73.333 -48.666 144.334 -107.999 213.001s-127 106.667 -203 114.001c-101.333 0 -209.833 -44.833 -325.5 -134.5s-199.5 -198.834 -251.5 -327.501c-88 -201.333 -136 -372 -144 -512
c4 -110.667 38.333 -203.5 103 -278.5s150.667 -118.833 258 -131.5c98 6.66699 189 41.167 273 103.5s156.167 140.666 216.5 234.999s107.166 195 140.499 302s50 206.167 50 297.5c0 20.667 -1.5 43.167 -4.5 67.5s-4.5 41.5 -4.5 51.5z" />
    <glyph glyph-name="A" unicode="A" horiz-adv-x="2281" 
d="M287 1106c114 200.667 279.336 436.832 496.003 708.499s442.667 508.167 678 709.5s439.333 309 612 323c196 0 294 -82 294 -246c0 -92 -50.333 -287.333 -151 -586l-139.5 -407c-80.333 -234.667 -141.833 -427.834 -184.5 -579.501s-77.834 -310 -105.501 -475
s-41.5 -327.5 -41.5 -487.5c0 -66 -38.333 -99 -115 -99c-67.333 0 -104 33 -110 99c0 8.66699 1.33301 47.334 4 116.001s4 109 4 121c-28 106.667 -75.667 204.5 -143 293.5s-180.333 167.333 -339 235s-373.667 107.167 -645 118.5
c-97.333 -126 -244.666 -415.333 -441.999 -868c-16 -48.667 -33 -77.167 -51 -85.5s-77.333 -12.5 -178 -12.5c33.333 96.667 95.166 245 185.499 445s185.5 373.667 285.5 521c-100 0 -217.667 -9.33301 -353 -28c-23.333 4 -37.333 9.83301 -42 17.5s-7 24.834 -7 51.501
c3.33301 41.333 18.166 68.333 44.499 81s73.166 24 140.499 34h127h176zM1593 593.998c26 126.667 63.834 275.835 113.501 447.502s101 339.667 154 504l166.5 508c58 174.333 92.333 281.833 103 322.5c4 23.333 9.16699 47.666 15.5 73
c6.33301 25.333 11.5 49.833 15.5 73.5s6 44.5 6 62.5c0 62.667 -26 94 -78 94c-73.333 0 -188 -53.333 -344 -160c-163.333 -112.667 -334.833 -260.834 -514.5 -444.501s-338.334 -366.667 -476.001 -549s-226.834 -324.833 -267.501 -427.5
c147.333 -17.333 252 -30.333 314 -39s141.833 -28.834 239.5 -60.501s195.334 -80.5 293.001 -146.5s184.167 -152 259.5 -258z" />
    <glyph glyph-name="B" unicode="B" horiz-adv-x="2048" 
d="M-287 8c78.667 134 151.335 273.336 218.002 418.003s161.167 361 283.5 649l313.5 725c86.667 195.333 187.667 406.333 303 632.999c56 111.333 141.167 208.166 255.5 290.5c114.333 82.333 230.166 123.5 347.499 123.5c106.667 0 193.334 -37.333 260.001 -112
s114.334 -165.667 143.001 -273s43 -214 43 -320c0 -150.667 -29.833 -288.334 -89.5 -413.001s-132.334 -225.5 -218.001 -302.5s-164.834 -125.167 -237.501 -144.5c-40.667 -5.33301 -87.5 -23 -140.5 -53s-81.167 -61.333 -84.5 -94c10 -36 71.333 -64.667 184 -86
c128 -19.333 229.667 -73.5 305 -162.5s113 -189.167 113 -300.5c0 -186.667 -81.167 -323 -243.5 -409s-350.166 -136.667 -563.499 -152c-199.333 0 -352.333 -3 -459 -9c-51.333 6 -119.333 9 -204 9c0 6.66699 9.33301 49 28 127c87.333 0 154.333 -3 201 -9
c9.33301 0.666992 84.666 5.16699 225.999 13.5s254.333 20 339 35s165.667 41.333 243 79s144 89.5 200 155.5c6.66699 12 15.167 32.333 25.5 61s15.5 64.334 15.5 107.001c0 84 -24 145.167 -72 183.5s-119.167 73.166 -213.5 104.499s-165.5 63.666 -213.5 96.999
s-75.667 88 -83 164c4.66699 108 49.667 177.667 135 209l164 65.5c81.333 33 154.166 76.167 218.499 129.5s119.166 126.666 164.499 219.999s68 209 68 347c0 387.333 -93 581 -279 581c-55.333 0 -114.666 -20.167 -177.999 -60.5s-121.833 -92.5 -175.5 -156.5
s-95.5 -129.667 -125.5 -197l-323 -746.5l-305.5 -730l-219 -509c-66.333 -148.333 -115.833 -244.166 -148.5 -287.499c-10.667 -10.667 -55.667 -16 -135 -16c-57.333 0 -86 5.33301 -86 16z" />
    <glyph glyph-name="C" unicode="C" horiz-adv-x="2200" 
d="M1712 774c24 0 63.6699 -17.6719 119.003 -53.0049c-40 -133.333 -113.5 -256.166 -220.5 -368.499s-234.5 -201.833 -382.5 -268.5s-296.667 -100 -446 -100c-129.333 0 -241.333 21.667 -336 65c-129.333 57.333 -226.833 149.5 -292.5 276.5
s-100.5 275.167 -104.5 444.5c4 158 32.5 321.833 85.5 491.5s125.5 328.167 217.5 475.5c119.333 189.333 256.833 368 412.5 536s326.167 305.667 511.5 413s373 161 563 161c146.667 0 257.834 -40 333.501 -120s113.5 -193 113.5 -339
c0 -35.333 -1.66699 -62.666 -5 -81.999c-4.66699 -95.333 -42.334 -202.5 -113.001 -321.5s-151 -227.833 -241 -326.5s-164.333 -168 -223 -208c-90.667 -62.667 -197.334 -126 -320.001 -190s-214 -97.667 -274 -101c-20.667 0 -35.667 13.667 -45 41
c5.33301 11.333 8 22.333 8 33c14 50.667 31.167 84.834 51.5 102.501s61.5 36.334 123.5 56.001s115.667 39.167 161 58.5c111.333 48 222.666 120.833 333.999 218.5s202.333 207.167 273 328.5s106 242 106 362c0 96.667 -22.167 178.167 -66.5 244.5
s-119.166 99.5 -224.499 99.5c-108 0 -228.333 -31.333 -361 -94c-183.333 -86.667 -350.833 -207.5 -502.5 -362.5s-279.334 -314.833 -383.001 -479.5s-181.167 -308.667 -232.5 -432c-70.667 -157.333 -110.334 -344.333 -119.001 -561
c6 -164.667 44.833 -303.667 116.5 -417s187.167 -181.666 346.5 -204.999c30 -6 73.667 -9 131 -9c156 0 293.5 36.833 412.5 110.5s211.5 152.5 277.5 236.5s131 178.667 195 284z" />
    <glyph glyph-name="D" unicode="D" horiz-adv-x="2961" 
d="M1806 1999c-67.333 75.333 -179.167 181.332 -335.5 317.999s-327.166 245 -512.499 325c-90 35.333 -169 53 -237 53c-102.667 0 -158.667 -53.333 -168 -160c16.667 -114.667 65 -219.167 145 -313.5s171.333 -175.833 274 -244.5s218.334 -138 347.001 -208
c-9.33301 -78 -32.666 -121.667 -69.999 -131c0 4 -1 6.5 -3 7.5s-3.66699 1.5 -5 1.5c-144 77.333 -275 157.833 -393 241.5s-220.5 182.334 -307.5 296.001s-136.167 236.167 -147.5 367.5c3.33301 92 34.666 164.333 93.999 217s123.666 81.334 192.999 86
c207.333 0 431.833 -88.167 673.5 -264.5s422.5 -323.166 542.5 -440.499c4.66699 19.333 31.667 64.5 81 135.5s78.333 106.5 86.999 106.5c13.333 -6.66699 31.833 -19.5 55.5 -38.5s42.167 -43.167 55.5 -72.5c-24 -31.333 -53.833 -76.5 -89.5 -135.5
s-53.5 -107.833 -53.5 -146.5c178.667 -192.667 323.667 -390.5 435 -593.5s167 -410.833 167 -623.5c0 -178.667 -49.5 -327.5 -148.5 -446.5s-216.167 -202.167 -351.5 -249.5c-176.667 -57.333 -421 -86 -733 -86c-136.667 0 -261.834 4.16699 -375.501 12.5
s-194.834 15.166 -243.501 20.499c-11.333 -0.666992 -76.166 -9 -194.499 -25s-221.166 -24 -308.499 -24c-79.333 0 -141 2.66699 -185 8c-125.333 14 -188 50.667 -188 110c0 87.333 103.667 131 311 131c53.333 0 125.5 -8.16699 216.5 -24.5s181.5 -24.5 271.5 -24.5
c98 0 196.833 58.833 296.5 176.5s194.167 265.167 283.5 442.5s173.5 361.333 252.5 552zM1929 1880c-37.333 -108 -101.5 -276.497 -192.5 -505.497s-203.5 -470.833 -337.5 -725.5s-259 -420.334 -375 -497.001c9.33301 0 54.333 -3.33301 135 -10
s158.667 -11.667 234 -15c244 5.33301 462.833 41.666 656.5 108.999s313.167 186.666 358.5 357.999c16.667 60 25 128.333 25 205c0 119.333 -20 237.333 -60 354s-88 221.5 -144 314.5s-107.333 169.667 -154 230z" />
    <glyph glyph-name="E" unicode="E" horiz-adv-x="1966" 
d="M512 1294c-86 146 -133.665 293.67 -142.998 443.003c2.66699 82 18.167 160.167 46.5 234.5s62.333 141.833 102 202.499c39.667 60.667 93.834 136 162.501 226c47.333 67.333 119.666 136.5 216.999 207.5s206.166 130 326.499 177s235.5 70.5 345.5 70.5
c106.667 0 193.334 -26 260.001 -78s100 -121.667 100 -209c0 -72.667 -27.333 -147.667 -82 -225l-153 -204.5l-192 -242.5c-81.333 -102 -128.666 -163.333 -141.999 -184c-7.33301 -7.33301 -23.666 -15.333 -48.999 -24c-16 0 -32 9.33301 -48 28s-26 42 -30 70
c4 10 12 33 24 69c23.333 37.333 84.833 113.5 184.5 228.5s178.5 213.333 236.5 295s87 148.834 87 201.5c0 17.333 -4 32.666 -12 46c-34.667 40.667 -107 61 -217 61c-158 0 -310.167 -49.333 -456.5 -148s-267.5 -224.334 -363.5 -377.001s-153 -305.334 -171 -458.001
c4 -65.333 15.667 -129.5 35 -192.5s55.333 -164.167 108 -303.5c0 -39.333 -16.833 -73.333 -50.5 -102s-109.834 -87.5 -228.501 -176.5s-206.334 -169.333 -263.001 -241s-86.334 -152.5 -89.001 -242.5c6 -10.667 9 -25.667 9 -45c18 -168 127 -256.667 327 -266
c121.333 2.66699 256.333 37.167 405 103.5s286 153.5 412 261.5s218.333 221.333 277 340c21.333 10.667 51.333 16 90 16c40.667 0 69.334 -2.66699 86.001 -8c-56.667 -150.667 -161.834 -291.834 -315.501 -423.501s-319 -237.167 -496 -316.5
s-321.5 -120.666 -433.5 -123.999c-188 0 -324.5 42.667 -409.5 128s-127.5 171 -127.5 257c0 130.667 29.167 242.167 87.5 334.5s133.666 173.333 225.999 243l232 175c62.333 47 93.5 89.5 93.5 127.5c0 24.667 -2.66699 39.667 -8 45z" />
    <glyph glyph-name="F" unicode="F" horiz-adv-x="2433" 
d="M-16 1057c0 145.333 69.6709 320.002 209.004 524.002s318.833 403.167 538.5 597.5s447.5 354.333 683.5 480s444.333 188.5 625 188.5c234.667 0 352 -98.333 352 -295c0 -104.667 -27 -231.834 -81 -381.501s-114 -291.167 -180 -424.5l-257.5 -503.5
c-105.667 -202.333 -173.167 -339.5 -202.5 -411.5h361c84.667 0 127 -23 127 -69c0 -22 -10.333 -41.167 -31 -57.5s-47.334 -24.5 -80 -24.5h-446l-126 -208.5l-177 -282.5c-62.667 -96.667 -118.334 -178 -167.001 -244s-90 -112 -124 -138c0 -10.667 -22 -16 -66 -16
c-18 0 -47.333 2.66699 -88 8s-67.334 8 -80.001 8c290.667 317.333 494 608.333 610 873h-249c-27.333 0 -45.333 16.333 -54 49c6 27.333 21.5 51.166 46.5 71.499s60.167 30.5 105.5 30.5h254c22.667 50.667 95.667 204.667 219 462l304 650
c79.333 176 137 320.333 173 433c16.667 56 25 106.333 25 151c0 101.333 -61.667 152 -185 152c-108.667 0 -257.334 -39.667 -446.001 -119c-134 -53.333 -273.5 -133 -418.5 -239s-283 -222.833 -414 -350.5s-248.167 -253.5 -351.5 -377.5
c-60.667 -79.333 -119.334 -170.833 -176.001 -274.5s-86.667 -188.167 -90 -253.5c9.33301 -46.667 25.666 -74 48.999 -82c22 -10.667 49.333 -16 82 -16c98 0 215.167 57.5 351.5 172.5s267.833 251.333 394.5 409s226.334 296.834 299.001 417.501
c10.667 22 27 33 49 33c31.333 0 50.333 -42.333 57 -127c-35.333 -84.667 -96.333 -187.167 -183 -307.5s-186.334 -237.833 -299.001 -352.5s-228.834 -209.834 -348.501 -285.501s-229.167 -115.5 -328.5 -119.5c-107.333 0 -177.166 21.167 -209.499 63.5
s-51.166 104.5 -56.499 186.5z" />
    <glyph glyph-name="G" unicode="G" horiz-adv-x="2048" 
d="M1622 815c-106.667 -208 -228.332 -477 -364.999 -807l-83 -166c-38.667 -78 -76.5 -149.5 -113.5 -214.5s-73.833 -119.833 -110.5 -164.5c-118 -174.667 -208 -262 -270 -262c-20.667 0 -37 15 -49 45c2.66699 24 13.334 52.667 32.001 86s40.334 68 65.001 104l95 138
l131.5 226c68.333 117.333 131.666 235.666 189.999 354.999s98.833 222 121.5 308l-9 8c-139.333 -149.333 -289 -265.166 -449 -347.499s-309.333 -123.5 -448 -123.5c-132 0 -236 40.667 -312 122s-114 206 -114 374c16 301.333 85.167 595 207.5 881
s276.166 542.167 461.499 768.5s376.5 403.833 573.5 532.5s372.833 193 527.5 193c138.667 -7.33301 241.667 -53.666 309 -138.999s101 -190.333 101 -315c0 -112.667 -20.333 -221.667 -61 -327s-99.834 -197.5 -177.501 -276.5s-168.834 -134.5 -273.501 -166.5l-9 147
c92 54.667 175.167 135 249.5 241s111.5 225 111.5 357c-8 104 -38.833 183.333 -92.5 238s-125.167 82 -214.5 82c-63.333 0 -145.333 -19.333 -246 -58c-175.333 -82 -335.166 -198 -479.499 -348s-267 -312.333 -368 -487s-184.667 -350.334 -251 -527.001
s-116.5 -341 -150.5 -493c-29.333 -162 -46 -268.667 -50 -320c11.333 -200.667 103 -304.334 275 -311.001c176 0 358.833 72.333 548.5 217s382.167 341.334 577.5 590.001c8 9.33301 27.167 50.333 57.5 123s61.5 131.667 93.5 177s70.333 68 115 68
c24.667 0 46.667 -7.33301 66 -22s29 -33 29 -55c0 -27.333 -9.66699 -59 -29 -95s-53.333 -92.833 -102 -170.5s-85.667 -139.5 -111 -185.5z" />
    <glyph glyph-name="H" unicode="H" horiz-adv-x="2961" 
d="M-319 344c12 140.667 120.996 251.668 326.996 333.001s413.833 136.166 623.5 164.499s438.834 52.166 687.501 71.499c132 233.333 229.5 411.833 292.5 535.5s124.833 273.667 185.5 450s110.334 377.833 149.001 604.5c4 28 17 50 39 66s48.333 24 79 24
c52 0 78 -24.667 78 -74v-16c-158 -676 -360 -1200.33 -606 -1573c90 3.33301 185.5 8.33301 286.5 15l319.5 22c105.333 300.667 211 586.834 317 858.501s198.333 487.834 277 648.5c29.333 62.667 63.666 121.834 103 177.5c39.333 55.667 78.5 100.834 117.5 135.5
c39 34.667 69.167 52 90.5 52c22.667 0 39.334 -7 50 -21c-44 -70.667 -102.667 -185.834 -176 -345.501s-146.5 -328.667 -219.5 -507s-142 -355.833 -207 -532.5s-112.833 -318.334 -143.5 -425.001l352 102c24.667 -89.333 38.334 -142.666 41.001 -159.999
c-290 -68 -444.333 -102 -463 -102c-16 -45.333 -40 -122.666 -72 -231.999l-95.5 -330.5l-81.5 -285.5c-9.33301 -16.667 -32.666 -25 -69.999 -25c-36.667 0 -72.334 8.33301 -107.001 25c10.667 58.667 28.334 129.334 53.001 212.001l101 324.5l88 278.5
c-72 -3.33301 -191 -11.333 -357 -24s-271 -19.667 -315 -21c-124 -169.333 -245.833 -309.333 -365.5 -420s-252.167 -196.667 -397.5 -258s-310 -97.333 -494 -108c-122 0 -233.667 21.667 -335 65s-152 122.666 -152 237.999v57zM1192 754.001
c-222.667 -12 -437.167 -37.5 -643.5 -76.5s-376 -91.667 -509 -158s-199.5 -143.833 -199.5 -232.5c26 -98 130 -151.333 312 -160c178.667 4.66699 366 60.5 562 167.5s355.333 260.167 478 459.5z" />
    <glyph glyph-name="I" unicode="I" horiz-adv-x="1360" 
d="M864 1126c94.667 170.667 184.004 378.332 268.004 622.999s149 493 195 745c5.33301 33.333 8 74.333 8 123c0 74 -26 111 -78 111c-40 0 -88 -22 -144 -66s-102 -89 -138 -135c-58.667 -70.667 -122.834 -169.667 -192.501 -297s-128.834 -254.166 -177.501 -380.499
s-74.334 -222.5 -77.001 -288.5c0 -44 -20.167 -84.833 -60.5 -122.5s-81.5 -58.5 -123.5 -62.5c-10.667 22 -16 55 -16 99c0 98 29.833 228 89.5 390s137.834 323 234.501 483s200.167 292.667 310.5 398s214.166 158 311.499 158c147.333 0 221 -106.333 221 -319
c0 -181.333 -40.833 -394.166 -122.5 -638.499s-166.5 -471.166 -254.5 -680.499c-82.667 -199.333 -175.167 -379.5 -277.5 -540.5s-207.5 -296.5 -315.5 -406.5s-214.167 -193.333 -318.5 -250s-200.5 -85 -288.5 -85c-86 0 -157 21.667 -213 65c22 74 56 127.333 102 160
c44 -29.333 100 -48.333 168 -57c153.333 3.33301 302.666 102.166 447.999 296.499s292.333 420.166 441 677.499z" />
    <glyph glyph-name="J" unicode="J" horiz-adv-x="1360" 
d="M631 639l-7.99902 8.00098c-170 -86 -332.833 -219 -488.5 -399s-281.167 -367.667 -376.5 -563s-143 -354 -143 -476c0 -101.333 27.333 -160 82 -176c50.667 0 109 47.667 175 143s146 238.166 240 428.499l272 556c87.333 180.333 169.666 339.833 246.999 478.5z
M344.001 1729c70 222 156.333 418.999 259 590.999s211.667 304.167 327 396.5s227.333 138.5 336 138.5c136 0 204 -103.667 204 -311c0 -332.667 -185.667 -906.334 -557 -1721l-811 -1614c-92.667 -229.333 -233 -344 -421 -344c-150.667 7.33301 -226 114 -226 320
c0 84 16.333 193.333 49 328c30.667 114.667 95.834 254.334 195.501 419.001s240.334 337.834 422.001 519.501s399.167 347.834 652.5 498.501c68.667 158 135.167 320 199.5 486s118.666 318 162.999 456s79.666 264.5 105.999 379.5s39.5 205.833 39.5 272.5
c0 95.333 -21.667 143 -65 143c-65.333 0 -144.833 -51.667 -238.5 -155s-186.167 -239.333 -277.5 -408s-166.333 -346.834 -225 -534.501s-89 -362.5 -91 -524.5c3.33301 0 5.5 -1 6.5 -3s1.5 -3.66699 1.5 -5c0 -28 -12.833 -51.667 -38.5 -71s-56.5 -31.333 -92.5 -36
c-40.667 11.333 -61 36 -61 74c4 117.333 14.5 216.166 31.5 296.499s54.167 216.5 111.5 408.5z" />
    <glyph glyph-name="K" unicode="K" 
d="M471 1663c43.333 76 123.336 237.835 240.003 485.502s215.667 468.167 297 661.5c0 24.667 30 37 90 37h102c-8.66699 -34.667 -28.334 -85.834 -59.001 -153.5l-155 -332l-167.5 -361c-39 -87 -60.5 -143.5 -64.5 -169.5
c173.333 103.333 377.833 253.166 613.5 449.499s406.5 372.833 512.5 529.5c13.333 24.667 47.333 37 102 37c60.667 0 91 -15 91 -45v-9c-86 -146.667 -213.333 -297.667 -382 -453s-346.5 -298.666 -533.5 -429.999s-359.833 -242.333 -518.5 -333
c-78.667 -99.333 -121 -190.666 -127 -273.999c39.333 -76.667 101 -179.334 185 -308.001s183.333 -265.834 298 -411.501s228.5 -272.167 341.5 -379.5s216.5 -178 310.5 -212c0 -22 -45.333 -33 -136 -33c-78 0 -139.333 13.667 -184 41c-90 63.333 -175 137 -255 221
s-154.5 172 -223.5 264s-156.333 218 -262 378l-168.5 255c-26.667 -38 -72.5 -127.667 -137.5 -269l-224 -503c-84.333 -194 -131.833 -301 -142.5 -321c-16 -16.667 -48.667 -25 -98 -25c-20.667 0 -37.667 1 -51 3s-22.333 3.66699 -27 5
c167.333 414 353 827.667 557 1241v25c0 22.667 -5.33301 55.5 -16 98.5s-16.334 66.167 -17.001 69.5c5.33301 13.333 8 25.666 8 36.999c18 35.333 49.167 71.5 93.5 108.5s80.166 62.167 107.499 75.5z" />
    <glyph glyph-name="L" unicode="L" horiz-adv-x="2281" 
d="M102 209c58.667 6 121.999 46.5 189.999 121.5s137 176.167 207 303.5s139.667 274.833 209 442.5s132.333 337.167 189 508.5c70.667 206 135.834 378.667 195.501 518s128.334 265.166 206.001 377.5c77.667 112.333 166.5 200.166 266.5 263.499s213.333 95 340 95
c180 -18.667 270 -143 270 -373c0 -110 -21.833 -236.167 -65.5 -378.5s-100.5 -282.833 -170.5 -421.5s-143 -259.667 -219 -363c-24 -26.667 -53.333 -45 -88 -55s-91.334 -15 -170.001 -15c103.333 150.667 193.833 294.334 271.5 431.001s140.834 270.667 189.501 402
s76.667 256.333 84 375c0 87.333 -14.167 147.5 -42.5 180.5s-78.166 49.5 -149.499 49.5c-66.667 0 -124.334 -17.5 -173.001 -52.5s-106 -88.5 -172 -160.5c-112 -164.667 -217.333 -382.167 -316 -652.5l-251.5 -702.5c-69 -198 -153.333 -379.5 -253 -544.5
s-228.834 -295.167 -387.501 -390.5v-16c148.667 -19.333 330.334 -33 545.001 -41c409.333 10 711 40 905 90c-12.667 -61.333 -22.334 -101.333 -29.001 -120s-17.167 -32 -31.5 -40s-39.166 -16.333 -74.499 -25c-177.333 -43.333 -386.333 -65 -627 -65
c-163.333 0 -322.333 9 -477 27s-281 39 -379 63c-115.333 -60 -242.333 -90 -381 -90c-166.667 0 -250 43.667 -250 131c0 117.333 104 176 312 176c64 0 131.667 -8.16699 203 -24.5s112.666 -24.5 123.999 -24.5z" />
    <glyph glyph-name="M" unicode="M" horiz-adv-x="2879" 
d="M-446 -74c152 145.333 299.835 326.17 443.502 542.503s274.667 441.166 393 674.499s240.5 493.5 366.5 780.5l316 722.5c25.333 62 57.833 109.667 97.5 143s78.167 50 115.5 50c92.667 0 139 -53.333 139 -160v-33c-16 -82.667 -51.333 -250 -106 -502l-196 -893
l-156 -706l391 487.5l454 577l450.5 556c151 181 300.833 352.167 449.5 513.5c35.333 51.333 82.166 93.5 140.5 126.5c58.333 33 112.5 49.5 162.5 49.5c76 0 114 -39.667 114 -119c0 -60 -21.667 -129.667 -65 -209l-236.5 -438
c-107.667 -200 -216.834 -417.833 -327.5 -653.5c-110.667 -235.667 -208.167 -481.667 -292.5 -738s-126.5 -475.166 -126.5 -656.499c-4.66699 -14 -19.334 -27 -44.001 -39s-49.667 -18 -75 -18c-44 0 -66 16.333 -66 49c16.667 237.333 65.834 479.666 147.501 726.999
s170.167 469.166 265.5 665.499s215.166 429.666 359.5 699.999c144.333 270.333 239.166 460.166 284.5 569.499l-577.5 -665l-561 -678.5l-527 -669l-415.5 -563.5c-56.667 -79.333 -90.667 -119 -102 -119c-34 0 -58 4.66699 -72 14s-22.667 33.333 -26 72
c5.33301 16.667 8 30.334 8 41.001c49.333 188.667 101.666 406.5 156.999 653.5l189 867l150 697c29.333 133.667 56.333 245.167 81 334.5c-92 -225.333 -202.667 -481.5 -332 -768.5s-266 -573 -410 -858s-281.333 -530 -412 -735s-240 -332.833 -328 -383.5
c-5.33301 0 -38.333 -1.33301 -99 -4s-101.334 -4 -122.001 -4z" />
    <glyph glyph-name="N" unicode="N" horiz-adv-x="2130" 
d="M-463 -86c123.333 134.667 246.831 315.168 370.498 541.501s236.334 455.666 338.001 687.999l350.5 830c132 321 224 535.5 276 643.5c58 136.667 122.333 205 193 205c95.333 0 143 -82 143 -246l8.5 -647.5c3 -236.333 6.33301 -476 10 -719
s8.5 -504.167 14.5 -783.5h8c62 166 147.667 409.167 257 729.5s199.5 573 270.5 758s142.5 339.167 214.5 462.5c14 21.333 27.667 32 41 32c38 0 57 -45 57 -135c0 -54 -8.33301 -107 -25 -159c-101.333 -235.333 -184.666 -438.333 -249.999 -609l-207.5 -562.5
l-167.5 -461.5c-38.667 -103.333 -84 -210.333 -136 -321c-22 -52 -49.167 -93 -81.5 -123s-64.166 -45 -95.499 -45c-46 0 -69 45 -69 135c-2 139.333 -5.83301 449.333 -11.5 930s-9.33398 818.5 -11.001 1013.5s-2.5 349.833 -2.5 464.5h-8l-292.5 -694.5l-316 -749.5
c-89 -204.667 -183.333 -404.5 -283 -599.5s-202.5 -369.833 -308.5 -524.5c-34.667 -52 -85.334 -78 -152.001 -78c-26 0 -54.167 4.16699 -84.5 12.5s-47.166 12.5 -50.499 12.5z" />
    <glyph glyph-name="O" unicode="O" horiz-adv-x="2200" 
d="M-16 696c22.667 271.333 89.832 534.671 201.499 790.004s252.834 484.333 423.501 687s354.834 365.167 552.501 487.5s389.5 189.833 575.5 202.5c73.333 0 110 -23.333 110 -70c0 -25.333 -6.66699 -40.666 -20 -46c-13.333 -5.33301 -46 -14.333 -98 -27
c-204 -36.667 -401.667 -127.334 -593 -272c-191.333 -144.667 -362.333 -321.334 -513 -530c-150.667 -208.667 -269 -425.834 -355 -651.501s-129 -432.167 -129 -619.5c0 -67.333 7 -134.333 21 -201c43.333 -202.667 171.666 -309 384.999 -319
c184.667 7.33301 375.667 79.666 573 216.999c154.667 118.667 304.167 284.5 448.5 497.5s260.666 433.333 348.999 661s132.5 420.5 132.5 578.5c0 182.667 -58.667 286.334 -176 311.001c-28 5.33301 -50 8 -66 8c-70.667 0 -145 -23.5 -223 -70.5
s-152.5 -118.333 -223.5 -214s-132.167 -213.834 -183.5 -354.501c-10.667 -57.333 -34.667 -96.333 -72 -117s-88.666 -37.667 -153.999 -51c6 146.667 58.167 294.334 156.5 443.001s217.833 270.5 358.5 365.5s270.667 142.5 390 142.5
c240.667 -8.66699 361 -163 361 -463c0 -134 -25 -286.333 -75 -457s-114.5 -334.834 -193.5 -492.501s-160.167 -289.167 -243.5 -394.5c-142 -178.667 -271 -321.167 -387 -427.5s-236.5 -186.5 -361.5 -240.5s-264.5 -82.333 -418.5 -85
c-143.333 0 -256 31.167 -338 93.5s-138.333 145.666 -169 249.999s-46 227.166 -46 368.499z" />
    <glyph glyph-name="P" unicode="P" horiz-adv-x="1745" 
d="M209 1319c100 276.667 207.834 520.5 323.501 731.5s228.834 391.833 339.501 542.5c59.333 79.333 130.833 141.5 214.5 186.5s166.5 67.5 248.5 67.5c164 0 276 -69.833 336 -209.5s90 -304.834 90 -495.5c0 -243.333 -43 -488.166 -129 -734.499
s-217.333 -451 -394 -614s-391.334 -245.833 -644.001 -248.5c-117.333 0 -176 28.667 -176 86c4 30.667 17.167 49.167 39.5 55.5s67.833 9.5 136.5 9.5c159.333 0 303.166 47.333 431.499 142s237.666 231.167 327.999 409.5s159.5 389.166 207.5 632.499
c16 86 24 176 24 270c0 154.667 -28 282.834 -84 384.5c-56 101.667 -129 152.5 -219 152.5c-127.333 0 -258.333 -106.667 -393 -320c-74.667 -120.667 -144.167 -239 -208.5 -355s-124.333 -234.167 -180 -354.5s-105 -243 -148 -368s-77.167 -247.5 -102.5 -367.5
c-4.66699 -22 -23.834 -105.667 -57.501 -251s-60 -255.833 -79 -331.5s-38.667 -148.5 -59 -218.5s-38.5 -126.667 -54.5 -170c-58.667 -164 -106.334 -246 -143.001 -246c-33.333 0 -50 53.333 -50 160c0 12.667 1.5 32.834 4.5 60.501s4.5 52.5 4.5 74.5
c10.667 81.333 36.834 197.5 78.501 348.5s91.834 315.667 150.501 494s113.334 337.166 164.001 476.499z" />
    <glyph glyph-name="Q" unicode="Q" horiz-adv-x="2200" 
d="M975 782c138.667 89.333 274.166 198.169 406.499 326.502s251.333 265.166 357 410.499s189.167 288.666 250.5 429.999s92 267.333 92 378c0 217.333 -109.333 345.666 -328 385c-38.667 5.33301 -68.667 8 -90 8c-118 0 -244.5 -38.167 -379.5 -114.5
s-263.333 -174.166 -385 -293.5c-121.667 -119.333 -226.667 -245.166 -315 -377.5c-88.333 -132.333 -146.166 -248.833 -173.499 -349.5c-8.66699 -30.667 -28 -49.667 -58 -57c-17.333 0 -35.666 13.333 -54.999 40s-31 55.667 -35 87c11.333 34 17 50.333 17 49
c74.667 168 186.167 342.5 334.5 523.5s317.333 332.167 507 453.5s378.834 182 567.501 182c156.667 0 290.667 -46.667 402 -140s167 -228.333 167 -405c0 -135.333 -41 -295 -123 -479c-72 -163.333 -179.667 -331.666 -323 -504.999s-300.833 -336 -472.5 -488
s-342.834 -285.167 -513.501 -399.5s-317.334 -196.166 -440.001 -245.499c113.333 -34.667 342.666 -56.667 687.999 -66c274 10 481.667 21 623 33c0 -4 1.33301 -12.333 4 -25s4 -23.334 4 -32.001c0 -30 -7.16699 -53.333 -21.5 -70s-26.166 -27.667 -35.499 -33
c-55.333 0 -150.333 -2.66699 -285 -8s-242 -8 -322 -8c-315.333 0 -603.333 30 -864 90c-194 -60 -338.667 -90 -434 -90c-125.333 0 -188 42.333 -188 127c0 106.667 76.333 160 229 160c47.333 0 147 -12.333 299 -37c82 9.33301 216.5 73.166 403.5 191.499
s350.167 234.5 489.5 348.5z" />
    <glyph glyph-name="R" unicode="R" horiz-adv-x="1593" 
d="M82 958l129.998 376.5c68 199 128.833 367 182.5 504s114.834 272.167 183.501 405.5s145 255 229 365c122 158.667 261.333 238 418 238c121.333 0 215.833 -41.667 283.5 -125s113 -183.166 136 -299.499s34.5 -238.5 34.5 -366.5c0 -562 -271.667 -934.667 -815 -1118
l-68 -20c-36.667 -10.667 -63.167 -21.334 -79.5 -32.001s-25.833 -26 -28.5 -46c10.667 -22 35.334 -50.667 74.001 -86c80.667 -72 191 -195.833 331 -371.5s220.667 -286.834 242 -333.501c11.333 -46.667 17 -76.667 17 -90c0 -57.333 -23.333 -86 -70 -86
c-32.667 0 -65.334 26 -98.001 78c-102.667 183.333 -189.334 318.166 -260.001 404.499s-163 183.5 -277 291.5c-71.333 68 -111 135 -119 201c10 98.667 79.667 173.667 209 225c198 81.333 349.333 168.666 454 261.999s178 205.333 220 336s67.333 301.334 76 512.001
c0 72.667 -10.667 147.834 -32 225.501s-53.5 143.5 -96.5 197.5s-95.833 81 -158.5 81c-87.333 0 -177.333 -67 -270 -201c-67.333 -92 -130.333 -190.5 -189 -295.5s-113.834 -215.5 -165.501 -331.5s-101.167 -243.333 -148.5 -382s-88.666 -278.667 -123.999 -420
l-87 -368c-18.667 -78.667 -45.667 -176.5 -81 -293.5s-71.666 -214.167 -108.999 -291.5s-73.333 -116 -108 -116c-10 0 -19.667 4 -29 12c-16 8 -24 35.333 -24 82c0 56 11.167 131 33.5 225s55.833 216.333 100.5 367s72.334 245.334 83.001 284.001z" />
    <glyph glyph-name="S" unicode="S" horiz-adv-x="2048" 
d="M-250 426c30.667 133.333 117.329 230.172 259.996 290.505s315.334 90.5 518.001 90.5c242.667 0 461.334 -31.333 656.001 -94c0 -78.667 -11 -123.667 -33 -135c-315.333 51.333 -536.666 77 -663.999 77c-123.333 0 -238 -16.333 -344 -49
c-50.667 -16.667 -100.834 -48 -150.501 -94s-74.5 -93.667 -74.5 -143c0 -61.333 49.333 -114.666 148 -159.999c62 -32.667 197 -54.667 405 -66c244 10.667 423 27.334 537 50.001c171.333 28 304.833 86.5 400.5 175.5s143.5 190.167 143.5 303.5
c0 139.333 -58.667 251.333 -176 336c-62.667 47.333 -162 103.166 -298 167.499s-238 116.166 -306 155.499s-129 94.166 -183 164.499s-81 158.833 -81 265.5c0 38 4 77.667 12 119c23.333 136 75.833 263 157.5 381s183.667 221.167 306 309.5s254.5 156.5 396.5 204.5
s281.333 72 418 72c119.333 0 209.333 -27 270 -81s91 -125.333 91 -214c0 -42 -12.333 -98 -37 -168c-48 -91.333 -124 -179.666 -228 -265c-104 -85.333 -235 -159.5 -393 -222.5s-336 -105.5 -534 -127.5c0 49.333 8 94.666 24 135.999
c118.667 16.667 259.334 59.334 422.001 128.001s302.334 148.5 419.001 239.5s175 178.5 175 262.5c-7.33301 112 -77 168 -209 168c-68.667 0 -148.5 -15.5 -239.5 -46.5s-179 -68.5 -264 -112.5s-153.167 -83.667 -204.5 -119c-102 -72.667 -197.667 -165.334 -287 -278
c-89.333 -112.667 -135.666 -226.334 -138.999 -341.001c5.33301 -99.333 38.166 -180.5 98.499 -243.5s139.5 -117.333 237.5 -163l303 -140c104 -47.667 181.667 -98.834 233 -153.501c64 -67.333 108.833 -122.333 134.5 -165s42.167 -113.334 49.5 -212.001
c0 -185.333 -65.5 -332.833 -196.5 -442.5s-291.833 -186.167 -482.5 -229.5s-386 -65 -586 -65c-190.667 0 -357.167 29.667 -499.5 89s-213.5 151 -213.5 275c0 13.333 2.66699 36.666 8 69.999z" />
    <glyph glyph-name="T" unicode="T" horiz-adv-x="2130" 
d="M279 2105c0 67.333 59.498 131.498 178.498 192.498s272 117.333 459 169s355.333 93 505 124l610.5 121.5c38.667 7.33301 70.834 13.166 96.5 17.5c25.667 4.33301 49.167 9.5 70.5 15.5s48.666 16.667 82 32c54.667 46.667 108 70 160 70s78 -28.667 78 -86
c0 -48.667 -15 -81.667 -45 -99l-61.5 -30.5c-14.333 -7 -28.166 -17.5 -41.499 -31.5s-26.833 -36.833 -40.5 -68.5s-30.167 -78.167 -49.5 -139.5c-36 -118 -100.667 -294.5 -194 -529.5l-315 -756.5c-116.667 -269.333 -225.167 -509.166 -325.5 -719.499
s-174.166 -350.166 -221.499 -419.499c-20.667 -40.667 -63 -61 -127 -61c-24.667 0 -55 2 -91 6s-59 6 -69 6c374 542 786.333 1433.67 1237 2675c-11.333 -4 -132.5 -29.667 -363.5 -77s-439.667 -92.5 -626 -135.5s-357.5 -91.333 -513.5 -145s-234 -102.5 -234 -146.5
c6 -90.667 167.333 -213.667 484 -369c-17.333 -57.333 -58.333 -91.333 -123 -102c-153.333 68.667 -278.333 139 -375 211s-145 164 -145 276z" />
    <glyph glyph-name="U" unicode="U" horiz-adv-x="2503" 
d="M242 1855c158 346.667 349.002 618.667 573.002 816c122.667 112 240 168 352 168c91.333 0 164.666 -27.333 219.999 -82s83 -134 83 -238c-6 -107.333 -47.167 -251 -123.5 -431s-193.333 -429.833 -351 -749.5s-274.834 -565.167 -351.501 -736.5
s-126 -318.666 -148 -441.999c274 166 642.667 501.667 1106 1007l306.5 322.5l314 332c91 99 167.167 189.667 228.5 272s103 154.5 125 216.5c8.66699 24 28.167 45 58.5 63s58.833 27 85.5 27c32.667 0 49 -16.333 49 -49c0 -19.333 -5.33301 -37 -16 -53
c-11.333 -24 -83.666 -164.5 -216.999 -421.5s-243.333 -480.167 -330 -669.5s-163 -388.5 -229 -597.5s-101 -398.5 -105 -568.5c0 -26 -7.83301 -43.667 -23.5 -53s-37.334 -15.333 -65.001 -18l-112.5 -11c0 135.333 21.167 284.166 63.5 446.499s99.5 333 171.5 512
s161.667 387.833 269 626.5l-8 8l-270.5 -298l-372 -399.5c-140.333 -147.667 -284 -290.334 -431 -428.001s-276.5 -245.834 -388.5 -324.501c-130 -90 -231.333 -135 -304 -135c-77.333 0 -121 39.667 -131 119c9.33301 57.333 25.666 124.333 48.999 201
c52.667 150.667 115.5 304.334 188.5 461.001l292 603.5c121.667 245.667 216.667 443.5 285 593.5s120.5 285.333 156.5 406c27.333 80.667 41 145 41 193c0 36.667 -11.167 67 -33.5 91s-52.166 36 -89.499 36c-88 0 -183.667 -53.333 -287 -160
c-130 -132 -250.167 -301.833 -360.5 -509.5s-174.5 -379.167 -192.5 -514.5c0 -30 -20.167 -60.167 -60.5 -90.5s-78.833 -48.166 -115.5 -53.499c-27.333 10 -41 23.667 -41 41c0 125.333 46.667 282.333 140 471z" />
    <glyph glyph-name="V" unicode="V" horiz-adv-x="2130" 
d="M86 1503c28.667 138 64.8311 264.002 108.498 378.002s89.334 212.833 137.001 296.5s96.334 159 146.001 226l128.5 172.5c59.333 85.333 130.166 151.833 212.499 199.5s161.833 71.5 238.5 71.5c144.667 0 217 -76.667 217 -230c0 -95.333 -16.667 -193.333 -50 -294
s-68.5 -185.834 -105.5 -255.501l-174.5 -316c-79.333 -141 -133.333 -244.167 -162 -309.5c-24 -55.333 -67.5 -143.666 -130.5 -264.999l-155 -303.5c-40.333 -81 -77.333 -165.833 -111 -254.5s-58.5 -180.334 -74.5 -275.001c0 -118 75.333 -182 226 -192
c117.333 10 207.333 37 270 81c200 122 383.833 281.333 551.5 478s312.667 403.5 435 620.5s222.5 421.333 300.5 613s132.333 346.167 163 463.5c4 28 24 61.667 60 101s66.333 59 91 59c16.667 0 25 -21.667 25 -65c-13.333 -184 -73.5 -403 -180.5 -657
s-242.167 -506.167 -405.5 -756.5s-337 -468 -521 -653s-357 -308.5 -519 -370.5c-119.333 -44 -226 -66 -320 -66c-136.667 0 -234.667 45 -294 135c-21.333 32 -38 93.333 -50 184c2.66699 94 26.667 200.667 72 320s116 273.666 212 462.999l167 332
c16 33.333 67.333 134.5 154 303.5l218.5 440.5c59 124.667 100.167 224.667 123.5 300c10.667 44 16 76.667 16 98c0 74 -38.333 111 -115 111c-59.333 0 -120.666 -34 -183.999 -102c-76 -92 -147.167 -201 -213.5 -327s-121.5 -244.333 -165.5 -355l-133 -351
c-15.333 -34 -44.5 -67.667 -87.5 -101s-75.167 -50 -96.5 -50c-12 0 -21.667 17.667 -29 53c2.66699 16.667 4 33 4 49z" />
    <glyph glyph-name="W" unicode="W" horiz-adv-x="3113" 
d="M135 1630c56.667 224 130.672 423.498 222.005 598.498s193.666 322.5 306.999 442.5c124 128 252.333 192 385 192c77.333 0 139 -23.5 185 -70.5s69 -113.5 69 -199.5c0 -72.667 -12.333 -145 -37 -217l-223.5 -501.5l-293.5 -633.5l-269 -573.5l-185 -397.5
c768 780 1363.33 1420.33 1786 1921c31.333 38.667 62.666 58 94 58c49.333 0 74 -27.333 74 -82v-37c-49.333 -107.333 -125.166 -262.5 -227.5 -465.5l-261 -525.5c-71.667 -147.333 -136.834 -291.166 -195.501 -431.499s-102.334 -266.833 -131.001 -379.5
c-6 -31.333 -9 -50.666 -9 -57.999c0 -70 48 -109.333 144 -118c57.333 4 119 17.5 185 40.5s121.667 48.833 167 77.5c161.333 120 322.166 287.5 482.5 502.5c160.333 215 306 445.333 437 691s234.5 471.667 310.5 678s114 356.833 114 451.5
c0 40 12.167 71.167 36.5 93.5s51.5 33.5 81.5 33.5c44 0 66 -11 66 -33c0 -156 -47.5 -361.667 -142.5 -617s-221.333 -520.5 -379 -795.5s-328.667 -522 -513 -741s-359.833 -372.167 -526.5 -459.5c-104.667 -54.667 -208.334 -82 -311.001 -82
c-96.667 0 -175.834 25.5 -237.501 76.5s-94.5 126.5 -98.5 226.5c10 94 25 169 45 225c35.333 80.667 75 165.5 119 254.5l121.5 246l142.5 301.5l162 366l-358.5 -384l-357 -380.5l-397.5 -427.5l-341 -369c-89.333 -84.667 -172.666 -127 -249.999 -127
c-54.667 -0 -86 31.333 -94 94c10.667 54.667 21.667 98.334 33 131.001c44.667 104.667 112.5 249.667 203.5 435l306.5 622l299 626.5c86 188.333 154.667 354.833 206 499.5c19.333 51.333 29 107.333 29 168c0 79.333 -34 119 -102 119
c-80.667 0 -165.334 -50.333 -254.001 -151c-74.667 -88 -137.334 -176.333 -188.001 -265s-91.334 -175 -122.001 -259s-58.167 -175.167 -82.5 -273.5s-38.5 -154.833 -42.5 -169.5c-8.66699 -29.333 -29.667 -58.166 -63 -86.499s-65.333 -44.5 -96 -48.5
c-20 0 -33.667 26 -41 78c2.66699 11.333 5.33398 29.666 8.00098 54.999s5.33398 43.666 8.00098 54.999z" />
    <glyph glyph-name="X" unicode="X" horiz-adv-x="1966" 
d="M1159 1450c0 73.333 -1.33105 253.998 -3.99805 541.998s-4 437.667 -4 449c0 89.333 -3.16699 152.666 -9.5 190c-6.33301 37.333 -23.5 56 -51.5 56c-26 0 -75.333 -34 -148 -102c-112.667 -118.667 -216.334 -250 -311.001 -394c-18.667 -37.333 -42 -60.333 -70 -69
c-23.333 0 -39.666 34 -48.999 102c59.333 174 198.666 355.667 417.999 545c80 62.667 151 94 213 94c68 0 119.833 -26.333 155.5 -79s53.5 -108.334 53.5 -167.001c-10.667 -158 -21.667 -428.333 -33 -811c5.33301 -35.333 8 -80.333 8 -135h8
c172 240.667 360 461.667 564 663.001c204 201.333 360 324.333 468 369c0 0.666992 1.5 -6.66602 4.5 -22c3 -15.333 4.5 -33.666 4.5 -54.999c0 -73.333 -28.667 -132.333 -86 -177c-96.667 -68 -204.5 -162.167 -323.5 -282.5s-235.167 -248.666 -348.5 -384.999
s-213 -265.833 -299 -388.5c0 -612 75 -1065.33 225 -1360c0 -14.667 -27.333 -25.667 -82 -33c-88.667 11.333 -139 36 -151 74c-96.667 305.333 -155.334 678 -176.001 1118c-202 -270 -558.333 -662 -1069 -1176c-8 -8 -35 -16.833 -81 -26.5s-91.667 -14.5 -137 -14.5
c-54 0 -90.667 3 -110 9c80 50 201.667 155.5 365 316.5s344 350.167 542 567.5z" />
    <glyph glyph-name="Y" unicode="Y" horiz-adv-x="2281" 
d="M168 1442c12.667 182 54.501 361.337 125.501 538.004s151.667 330.834 242 462.5c90.333 131.667 169.833 226.834 238.5 285.5c116.667 95.333 219 143 307 143c71.333 0 127.5 -25.167 168.5 -75.5s61.5 -115.166 61.5 -194.5c0 -54 -8.33301 -99 -25 -135l-391 -925
l-315.5 -706.5l-157 -340.5c-17.667 -38.667 -32.834 -80.334 -45.501 -125.001c-28.667 -84.667 -45 -135.334 -49 -152.001c0 -22 10.667 -38.333 32 -49c31.333 3.33301 109.333 45.666 234 126.999l426 347c124 104 277.667 246.833 461 428.5
s351.166 375.667 503.499 582s259.5 405.166 321.5 596.499l160 16l-713 -1671l-312 -690c-83.333 -178.667 -168.166 -344.667 -254.499 -498s-165.166 -268 -236.499 -344c-35.333 -46.667 -83 -70 -143 -70c-15.333 0 -26.333 13.667 -33 41l246.5 486.5l315 623.5
l259.5 535.5c84 177.667 162.667 354.167 236 529.5l-8 17c-64 -68.667 -165.167 -171.834 -303.5 -309.501l-419.5 -404.5c-141.333 -132 -244.333 -219 -309 -261l-113 -78c-40.667 -28 -80.334 -52.5 -119.001 -73.5s-82 -38.5 -130 -52.5s-98 -21 -150 -21
c-80.667 6.66699 -126 59.667 -136 159c6.66699 122.667 71 301.667 193 537c317.333 678.667 522.666 1124.83 615.999 1338.5s148.666 372.167 165.999 475.5c0 8.66699 1.33301 22.667 4 42s4 32.666 4 40c0 57.333 -25.667 86 -77 86c-31.333 0 -87.333 -23 -168 -69
c-46.667 -44.667 -107.667 -124.5 -183 -239.5s-144.666 -245.5 -207.999 -391.5s-103.666 -288 -120.999 -426c-26 -52 -93 -97 -201 -135z" />
    <glyph glyph-name="Z" unicode="Z" horiz-adv-x="1663" 
d="M578 1274c59.333 59.333 162.164 143.498 308.497 252.498s263.5 201.167 351.5 276.5s165.167 165.333 231.5 270s99.5 219.334 99.5 344.001c0 98 -24.333 166.167 -73 204.5s-118.667 57.5 -210 57.5c-38.667 0 -94.667 -5.66699 -168 -17
c-86 -20.667 -173.167 -59.167 -261.5 -115.5s-173.833 -121.833 -256.5 -196.5l-203.5 -185c-53 -48.667 -89.5 -76.667 -109.5 -84c0 40 9 88.667 27 146s33.333 93.333 46 108c132.667 164 286.834 293 462.501 387s341.167 141 496.5 141
c137.333 0 245.333 -39.5 324 -118.5s118 -196.5 118 -352.5c-5.33301 -136 -56.833 -270.833 -154.5 -404.5s-206.667 -251.167 -327 -352.5s-248.166 -201.833 -383.499 -301.5s-207.333 -160.5 -216 -182.5c0 -12 35.333 -20.833 106 -26.5s138 -16.834 202 -33.501
s122.167 -55.167 174.5 -115.5s78.5 -150.5 78.5 -270.5c0 -196.667 -43.5 -397 -130.5 -601s-203.167 -391.167 -348.5 -561.5s-303.666 -311.5 -474.999 -423.5c-132.667 -68 -262.334 -102 -389.001 -102c-235.333 0 -353 125.667 -353 377
c10.667 137.333 52 268 124 392s153.333 229.667 244 317s181 162.333 271 225c96 54.667 160.333 82 193 82s49 -19.333 49 -58c-129.333 -93.333 -245.166 -192.666 -347.499 -297.999s-185.833 -212.833 -250.5 -322.5s-103 -212.834 -115 -309.501
c0 -94 13.833 -159.667 41.5 -197s72.5 -56 134.5 -56c86 0 189.5 36.5 310.5 109.5s225.167 159.167 312.5 258.5c108.667 122 202.334 239.167 281.001 351.5s143.667 233 195 362s77 261.167 77 396.5c0 68.667 -14.167 124 -42.5 166s-64.166 72.833 -107.499 92.5
s-91 34.834 -143 45.501s-107.333 21.334 -166 32.001c-46.667 7.33301 -75.334 52.333 -86.001 135c9.33301 74.667 28.666 126.667 57.999 156z" />
    <glyph glyph-name="bracketleft" unicode="[" horiz-adv-x="1511" 
d="M1266 2855h532l-45 -127h-401l-959 -2839l-266 -753h410l-41 -135h-553l970 2838z" />
    <glyph glyph-name="backslash" unicode="\" horiz-adv-x="1135" 
d="M66 2961l1093 -2842l90 -213h-184l-1090 2838l-86 217h177z" />
    <glyph glyph-name="bracketright" unicode="]" horiz-adv-x="1511" 
d="M193 -999h-529l41 135h389l971 2838l262 746h-405l28 135h561l-974 -2839z" />
    <glyph glyph-name="asciicircum" unicode="^" horiz-adv-x="2458" 
d="M369 807l749 1499h176l754 -1499h-184l-656 1290l-655 -1290h-184z" />
    <glyph glyph-name="underscore" unicode="_" horiz-adv-x="2048" 
d="M0 -295h2064v-258h-2064v258z" />
    <glyph glyph-name="grave" unicode="`" horiz-adv-x="913" 
d="M143 2265h258l439 -545h-144z" />
    <glyph glyph-name="a" unicode="a" horiz-adv-x="1663" 
d="M840 152c109.333 23.333 221.168 75.001 335.501 155.001s248.166 193.333 401.499 340c27.333 0 42.333 -28.667 45 -86c0 -40.667 -50.5 -102.167 -151.5 -184.5s-215.333 -163 -343 -242s-215.5 -126.5 -263.5 -142.5c-34 -11.333 -68 -17 -102 -17
c-74 0 -115 27.333 -123 82c9.33301 44 20.333 81 33 111c18.667 54 34.167 96.5 46.5 127.5s21.166 52.5 26.499 64.5l-8 9c-16 -17.333 -54.5 -61.333 -115.5 -132s-115.5 -126.334 -163.5 -167.001s-102.333 -72.334 -163 -95.001c-7.33301 0 -21 -1.33301 -41 -4
s-37.667 -4 -53 -4c-218.667 0 -328 168 -328 504s224 613.333 672 832c193.333 98 375 147 545 147c66.667 0 137.834 -9.5 213.501 -28.5s113.5 -53.167 113.5 -102.5v-37c-18.667 -29.333 -35 -51 -49 -65c-130.667 68 -237 102 -319 102
c-52.667 0 -120.667 -13 -204 -39s-172.833 -65.167 -268.5 -117.5s-184.167 -114.833 -265.5 -187.5c-172.667 -153.333 -262.667 -296.666 -270 -429.999c0 -10 -0.666992 -24.333 -2 -43s-2 -31.667 -2 -39c0 -214 52 -326 156 -336c62.667 6.66699 124 34 184 82
c214.667 174.667 438.667 443.667 672 807c24.667 40 46.667 65 66 75s50.333 15 93 15c44 0 66 -8.33301 66 -25c0 -6.66699 -5.66699 -25.667 -17 -57z" />
    <glyph glyph-name="b" unicode="b" horiz-adv-x="1511" 
d="M848 545c67.333 71.333 127.166 177.167 179.499 317.5s78.5 252.833 78.5 337.5c0 57.333 -11 86 -33 86c-25.333 0 -56.833 -33.667 -94.5 -101s-71 -150 -100 -248s-44.833 -189 -47.5 -273c3.33301 -16 6.33301 -36.667 9 -62s5.33398 -44.333 8.00098 -57zM942 2744
c20 52.667 46.8301 95.1641 80.4971 127.497s62.834 48.5 87.501 48.5c38 0 57 -27 57 -81c0 -30 -8 -69.667 -24 -119c-60.667 -179.333 -147.5 -391.166 -260.5 -635.5l-306 -659.5c-91 -195.333 -174.5 -392.833 -250.5 -592.5s-134 -399.5 -174 -599.5
c0 -83.333 39.333 -129.666 118 -138.999c81.333 8.66699 163.5 40.667 246.5 96s153.833 120.333 212.5 195c0 7.33301 -8 28.666 -24 63.999s-27 78.333 -33 129c0 30 -2.66699 55.667 -8 77c4 135.333 34.667 279.5 92 432.5s127.666 257.5 210.999 313.5
c36.667 27.333 80.334 41 131.001 41c100.667 0 151 -72.333 151 -217c0 -258 -106.333 -527 -319 -807c17.333 -7.33301 46 -15.666 86 -24.999c47.333 2.66699 93 15.667 137 39s80.333 46.833 109 70.5l131 111.5c26 27.333 42.333 41 49 41c18.667 0 28 -23 28 -69
c0 -93.333 -58.833 -172.666 -176.5 -237.999s-226.5 -100.666 -326.5 -105.999c-60 10.667 -102.333 25.667 -127 45c-94.667 -88 -186 -161.333 -274 -220s-186.667 -92 -296 -100c-190.667 0 -286 80.667 -286 242c0 114.667 36.667 258 110 430l-8 8l-64.5 -81
c-27 -34 -54 -62.5 -81 -85.5s-52.167 -34.5 -75.5 -34.5c-16.667 0 -25 8.33301 -25 25c0 68.667 16.333 122 49 160s95.834 100.333 189.501 187s150.834 158 171.501 214l174.5 412.5l172 425l164.5 417z" />
    <glyph glyph-name="c" unicode="c" horiz-adv-x="1286" 
d="M1192 623l8.00391 -0.00292969c12 0 21.833 -4.5 29.5 -13.5s11.5 -16.833 11.5 -23.5c0 -54.667 -11 -90.334 -33 -107.001c-146.667 -141.333 -301.334 -262 -464.001 -362s-327.334 -150 -494.001 -150c-36 0 -85.333 5.66699 -148 17
c-60.667 14.667 -110.5 64.334 -149.5 149.001s-58.5 197.334 -58.5 338.001c0 46.667 1.33301 82.334 4 107.001c11.333 112.667 54 221.334 128 326.001s164.167 198.167 270.5 280.5s212.166 148.833 317.499 199.5c97.333 44 180.666 66 249.999 66
c81.333 0 145.333 -18.833 192 -56.5s70 -88.5 70 -152.5c0 -71.333 -19.667 -153.333 -59 -246s-87.666 -144.334 -144.999 -155.001c-3.33301 3.33301 -14.833 8 -34.5 14s-32.834 20.333 -39.501 43c10 30 32.333 80.5 67 151.5s54.667 124.167 60 159.5
c0 35.333 -16 61.333 -48 78s-64 25 -96 25c-26.667 0 -60.667 -5.66699 -102 -17c-94.667 -40.667 -193.667 -103.5 -297 -188.5s-191.5 -183.667 -264.5 -296s-112.5 -227.833 -118.5 -346.5c0 -228 82 -348.333 246 -361c156.667 32.667 300 90.334 430 173.001
s285.667 198.667 467 348z" />
    <glyph glyph-name="d" unicode="d" 
d="M999 807c96.667 130 198.332 316.502 304.999 559.502s197.334 486.833 272.001 731.5s117.334 435.667 128.001 573h-8c-88.667 -122.667 -181.334 -290.334 -278.001 -503.001s-183 -438.834 -259 -678.501s-132 -464.5 -168 -674.5zM949.998 1303
c-16 10.667 -44.665 15.9971 -85.998 15.9971c-66.667 0 -146 -22.667 -238 -68s-181.333 -108.166 -268 -188.499s-157.834 -172.833 -213.501 -277.5s-84.834 -214.667 -87.501 -330c0 -216 58.667 -328 176 -336c147.333 8.66699 326.333 137 537 385
c13.333 14.667 40.833 115.834 82.5 303.501s74.167 352.834 97.5 495.501zM1008 1434c48 164 95.6699 311.5 143.003 442.5s101 262 161 393s129.333 267.5 208 409.5c36.667 69.333 79.5 126.833 128.5 172.5s92.167 68.5 129.5 68.5c57.333 0 86 -55.667 86 -167
c0 -52 -13.667 -150.333 -41 -295c-31.333 -138.667 -81.333 -310 -150 -514s-164.5 -437 -287.5 -699s-270.833 -522.667 -443.5 -782c-2.66699 -41.333 -9.33398 -100 -20.001 -176c0 -88.667 31.333 -136.667 94 -144c64.667 16.667 128.667 44.167 192 82.5
s125.666 83.166 186.999 134.499l190 160c84.667 90 140.667 135 168 135c10.667 0 16 -28.667 16 -86c0 -34.667 -11.167 -66.167 -33.5 -94.5s-48.5 -54.333 -78.5 -78l-96 -77.5c-98 -82.667 -173.333 -144.167 -226 -184.5s-116.667 -78.333 -192 -114
s-149 -53.5 -221 -53.5c-61.333 0 -101.833 23.5 -121.5 70.5s-32.5 109.5 -38.5 187.5c5.33301 16.667 8 37.334 8 62.001c-16 -11.333 -64.333 -51.5 -145 -120.5s-148.834 -118.167 -204.501 -147.5s-118.167 -44 -187.5 -44c-210 0 -315 136.667 -315 410
c0 191.333 48.333 367 145 527s228.5 287 395.5 381s350.167 141 549.5 141z" />
    <glyph glyph-name="e" unicode="e" horiz-adv-x="1286" 
d="M49 672c13.333 -2.66699 34.665 -5.33594 63.998 -8.00293s50.333 -5.66699 63 -9c102 6.66699 208.833 31.334 320.5 74.001s206.334 103.834 284.001 183.501s116.5 172.834 116.5 279.501c0 79.333 -42.333 119 -127 119c-99.333 0 -219.333 -56 -360 -168
c-213.333 -182.667 -333.666 -339.667 -360.999 -471zM1208 638.998l9.00293 -0.00195312c16 0 24 -20.333 24 -61c0 -44 -16.333 -82.333 -49 -115c-109.333 -92.667 -210 -172.334 -302 -239.001s-201.5 -126.167 -328.5 -178.5s-260.833 -78.5 -401.5 -78.5
c-118.667 8.66699 -200.334 60.834 -245.001 156.501s-67 227.834 -67 396.501c0 162.667 73.667 327.167 221 493.5s314 292.833 500 379.5c102 38 181.333 57 238 57c72 0 133 -18 183 -54s75 -87.667 75 -155c0 -243.333 -102.833 -423 -308.5 -539
s-452.5 -174 -740.5 -174c0 -43.333 -2.66699 -77.333 -8 -102c4 -105.333 28.167 -184.166 72.5 -236.499s121.166 -78.5 230.499 -78.5c122 11.333 250.667 58.333 386 141s305.666 211.667 510.999 387z" />
    <glyph glyph-name="f" unicode="f" horiz-adv-x="1135" 
d="M504 1454l129 390.502l192 558.5c68.667 194 118.667 321.333 150 382c44 71.333 70.667 113.166 80 125.499s27.666 18.5 54.999 18.5c32.667 -8.66699 49 -36 49 -82c0 -12 -2.66699 -32.667 -8 -62s-8 -51 -8 -65c-22 -112 -117.167 -388.167 -285.5 -828.5
s-308.166 -793.833 -419.499 -1060.5c-55.333 -139.333 -124.833 -326 -208.5 -560s-158.5 -453.167 -224.5 -657.5s-104.667 -341.833 -116 -412.5c0 -15.333 -1.33301 -35.333 -4 -60s-4 -40 -4 -46c0 -57.333 17.667 -86 53 -86c38.667 0 77 28.667 115 86
c75.333 105.333 135.5 202.833 180.5 292.5s79.333 176.167 103 259.5s45.667 180.833 66 292.5l56.5 318.5c44.667 16 119.5 53 224.5 111s222.5 145.333 352.5 262c10.667 10.667 19 16 25 16c22 0 33 -23 33 -69c0 -37.333 -13.667 -70.333 -41 -99
c-56.667 -58 -211 -161.667 -463 -311c-2.66699 -120.667 -20.334 -252.5 -53.001 -395.5s-73.667 -275.833 -123 -398.5s-100 -218.334 -152 -287.001c0 -9.33301 -29.667 -46.5 -89 -111.5s-110.333 -107.167 -153 -126.5c-51.333 -16.667 -96.333 -25 -135 -25
c-100.667 0 -151 75.333 -151 226c0 62.667 2.66699 110.334 8 143.001c18 112.667 46.833 236.667 86.5 372s95.834 305.666 168.501 510.999l265 731h-8l-199 -211c-84 -87.333 -143.333 -142.666 -178 -165.999l-8 -4c-22 3.33301 -33 37.333 -33 102
c0 10.667 3.66699 21.5 11 32.5s19.166 26.167 35.499 45.5s25.5 30.333 27.5 33c24 27.333 88.667 91.666 194 192.999s184 184.333 236 249c15.333 17.333 31.833 45.333 49.5 84s37.334 86 59.001 142s41.5 105 59.5 147z" />
    <glyph glyph-name="g" unicode="g" horiz-adv-x="1663" 
d="M1233 983c-70 -156 -125.998 -284.671 -167.998 -386.004l-127.5 -318l-114.5 -287l461.5 391.5c189 160.333 297.5 253.833 325.5 280.5c13.333 0 20 -19.333 20 -58c0 -60 -17.667 -107.667 -53 -143c-76 -72.667 -196 -176.834 -360 -312.501
s-285.333 -238.834 -364 -309.501s-136.334 -135 -173.001 -193c-30.667 -47.333 -78.334 -149.833 -143.001 -307.5s-131.667 -292.834 -201 -405.501c-46.667 -74 -91.667 -111 -135 -111c-50.667 0 -80.667 61.667 -90 185c12.667 92 39.667 179.833 81 263.5
s91.5 166.334 150.5 248.001l185.5 254.5c24 36.667 48.333 80.334 73 131.001s45.167 95.834 61.5 135.501s37.833 94.667 64.5 165l88 231.5l-8 8c-208.667 -302.667 -410.667 -454 -606 -454c-224 0 -336 157 -336 471c0 110 21.667 212.333 65 307
s113.5 185.834 210.5 273.501s223.5 171.167 379.5 250.5c227.333 112 411.666 168 552.999 168c44 0 84.167 -3.5 120.5 -10.5s67.833 -16 94.5 -27s51.167 -22.333 73.5 -34l72.5 -38.5c10.667 0 16 -16.333 16 -49c0 -31.333 -6.5 -60.666 -19.5 -87.999
s-31.167 -43.333 -54.5 -48c-106.667 106.667 -215.667 160 -327 160c-152.667 0 -319.667 -53.833 -501 -161.5s-324.333 -238.167 -429 -391.5c-58.667 -104 -93 -222.667 -103 -356c10.667 -188.667 83 -283 217 -283c100.667 26 189.334 76 266.001 150
s163.167 176.833 259.5 308.5s168.5 221.834 216.5 270.501l66.5 81.5c24.333 29.667 49.833 54.334 76.5 74.001s54 29.5 82 29.5c22 0 33 -11 33 -33v-33z" />
    <glyph glyph-name="h" unicode="h" 
d="M352 1176l213.497 507.004l201 476.5l131.5 308l175 403.5c22.667 60 51.334 90 86.001 90c27.333 0 47.833 -11.833 61.5 -35.5s20.5 -49.834 20.5 -78.5v-17c-46.667 -138 -114.5 -310.5 -203.5 -517.5l-298.5 -667.5l-321 -699c-104 -228 -184.667 -412.333 -242 -553
l292 285.5l452.5 419.5c168.333 150.667 295.833 251.667 382.5 303c72.667 40.667 128.334 61 167.001 61c22 0 41.167 -7.33301 57.5 -22s24.5 -36 24.5 -64v-24c-47.333 -124.667 -143 -342.834 -287 -654.501s-216 -482.834 -216 -513.501c0 -8 5.33301 -12 16 -12
c27.333 0 84.666 30.667 171.999 92s180.333 131.666 279 210.999l245 197h8c6 0 9 -24.667 9 -74c0 -61.333 -24.667 -112 -74 -152c-334 -244.667 -558 -390.667 -672 -438c-3.33301 0 -16.333 -1.33301 -39 -4s-41 -4 -55 -4c-70 0 -108.333 28.667 -115 86
c10.667 77.333 35.334 149.666 74.001 216.999c69.333 135.333 140.5 283 213.5 443l163.5 364c8 0 12 19 12 57c0 11.333 -4 17 -12 17s-35.333 -13.667 -82 -41c-153.333 -116.667 -315.5 -257 -486.5 -421s-316.333 -309 -436 -435l-253.5 -271
c0.666992 0 -15.666 -5.33301 -48.999 -16c-52 -0 -78 27.333 -78 82c0 25.333 8.33301 59.333 25 102l108 280.5l72 190.5l-88 -88l-88 -88c-2 -4 -6 -9.5 -12 -16.5s-14.333 -12.5 -25 -16.5c-2.66699 3.33301 -9 8.5 -19 15.5s-17.5 14.167 -22.5 21.5s-7.5 17 -7.5 29
c0 46.667 28.667 97.334 86 152.001l135.5 121.5c40.333 36.333 79.5 74.5 117.5 114.5s73 83.167 105 129.5s57.333 95.166 76 146.499z" />
    <glyph glyph-name="i" unicode="i" horiz-adv-x="913" 
d="M664 1720c-50 0 -78.668 31.666 -86.001 94.999c4.66699 10 12.667 37.833 24 83.5s26.333 79.334 45 101.001s48.667 32.5 90 32.5c22.667 0 41.334 -12.833 56.001 -38.5s22 -58.167 22 -97.5c0 -117.333 -50.333 -176 -151 -176zM486.999 1434l193.003 -0.000976562
l-90.5 -200.5l-142.5 -314.5l-173.5 -385.5l-121.5 -271.5c-6.66699 0 -15 -20.333 -25 -61c0 -8.66699 8.33301 -17 25 -25c71.333 24 141.166 59.167 209.499 105.5s153.833 111.833 256.5 196.5s165.667 135.667 189 153c2.66699 0 8 2.66699 16 8s13.667 8 17 8
c21.333 0 32 -17.667 32 -53c0 -44 -16.333 -82.333 -49 -115c-216.667 -188.667 -437.667 -340 -663 -454c-16 -5.33301 -31.833 -10.333 -47.5 -15s-32.334 -8.83398 -50.001 -12.501s-35.834 -5.5 -54.501 -5.5c-60 0 -90 21.667 -90 65c0 62 11.667 126.833 35 194.5
s52.833 136.834 88.5 207.501l110.5 221l-9 8l-209 -209c-5.33301 -2.66699 -11.333 -6.66699 -18 -12s-12.667 -9.33301 -18 -12c-11.333 5.33301 -22.333 8 -33 8c-11.333 10.667 -17 35.334 -17 74.001c6 40.667 84 130.667 234 270l132.5 131c45 44 77.167 81 96.5 111
c14.667 14 41.667 67 81 159z" />
    <glyph glyph-name="j" unicode="j" horiz-adv-x="1065" 
d="M774 1720c-50 0 -78.667 31.667 -86 95l28.5 107c8.33301 31.333 22.166 57.5 41.499 78.5s49.333 31.5 90 31.5c28.667 0 50.834 -12.5 66.501 -37.5s23.5 -57.833 23.5 -98.5c0 -51.333 -14.333 -93.5 -43 -126.5s-69 -49.5 -121 -49.5zM623 1434l168.002 -0.00488281
c-42.667 -134.667 -81.667 -252.667 -117 -354l-142.5 -393.5l-155 -417.5l-81.5 -220l8 -16c21.333 18 105.5 94.833 252.5 230.5l435.5 400.5h8c33.333 0 50 -23.333 50 -70c-7.33301 -37.333 -17.666 -65.166 -30.999 -83.499s-34.333 -37.666 -63 -57.999
s-53.334 -40.166 -74.001 -59.499c-21.333 -24.667 -93.666 -89.667 -216.999 -195s-229.833 -201.666 -319.5 -288.999s-148.5 -163.333 -176.5 -228c-28.667 -61.333 -62.834 -150.166 -102.501 -266.499l-107 -309.5c-31.667 -90 -62.834 -161.667 -93.501 -215
c-22.667 -44 -55.334 -66 -98.001 -66c-41.333 0 -62 37 -62 111c0 96.667 15.833 186 47.5 268s78.5 182.167 140.5 300.5s106 211.5 132 279.5c6.66699 21.333 39.5 116 98.5 284l189 531.5l166.5 450.5l-272.5 -286c-119 -124 -209.833 -216 -272.5 -276
c-13.333 -13.333 -28.333 -24 -45 -32c-21.333 0 -32 24.333 -32 73c0 27.333 2.66699 44 8 50c60 80 141.833 173.833 245.5 281.5l287.5 302.5c88 94 163 184.667 225 272z" />
    <glyph glyph-name="k" unicode="k" horiz-adv-x="1745" 
d="M279 1040l801.996 1753c34 84.667 82 127 144 127c32.667 0 49 -27 49 -81c0 -17.333 -5.66699 -51.666 -17 -103c-34 -108 -70.167 -203.667 -108.5 -287s-95 -196.333 -170 -339s-140.5 -272.667 -196.5 -390c-101.333 -203.333 -255.666 -552.666 -462.999 -1048l9 -8
c208.667 278.667 432.334 505 671.001 679c98.667 66 187.667 99 267 99c65.333 0 117.166 -21.333 155.499 -64s57.5 -102 57.5 -178c0 -262 -185.667 -488.667 -557 -680c-34.667 -17.333 -77.667 -35.166 -129 -53.499s-83.666 -35 -96.999 -50s-21.333 -44.5 -24 -88.5
c0 -22 -2.66699 -41.333 -8 -58c0 -51.333 9.83301 -89.666 29.5 -114.999s57.5 -40 113.5 -44c16 5.33301 37.667 8 65 8c66.667 8 171.167 59.5 313.5 154.5s283.833 205.833 424.5 332.5c17.333 22 35 33 53 33c22 0 33 -17.667 33 -53c0 -59.333 -19.333 -103 -58 -131
l-181.5 -155.5c-76.333 -65 -149.5 -120.833 -219.5 -167.5s-142.667 -84.5 -218 -113.5s-151.333 -43.5 -228 -43.5c-100 0 -172 27.333 -216 82s-70.333 134 -79 238c10.667 77.333 18.667 125 24 143c16.667 47.333 43.334 82 80.001 104s87.167 42.667 151.5 62
s110.166 36.333 137.499 51c286.667 174 430 353 430 537c0 54.667 -23.333 82 -70 82c-72 0 -181 -64.333 -327 -193c-60 -52 -147.667 -139 -263 -261s-232 -252.833 -350 -392.5s-212.667 -260.167 -284 -361.5l-30.5 -42.5c-13.667 -19 -27.167 -34.5 -40.5 -46.5
s-26.666 -18 -39.999 -18c-14 0 -28.5 5.83301 -43.5 17.5s-22.5 24.834 -22.5 39.501c0 36 26 111.333 78 226c80.667 166.667 139.334 301.667 176.001 405l-8 8c-8.66699 -8.66699 -30.5 -32.834 -65.5 -72.501s-63.667 -70.334 -86 -92.001s-45.5 -39.167 -69.5 -52.5
c-38 9.33301 -57 36.666 -57 81.999c0 11.333 5.33301 27.666 16 48.999c23.333 34 77.666 89 162.999 165s148.333 134 189 174s72.334 84 95.001 132z" />
    <glyph glyph-name="l" unicode="l" horiz-adv-x="1065" 
d="M311 1065c26 54 70.3359 167.334 133.003 340.001s112.667 306.334 150 401.001l171.5 506.5l209.5 575.5c8 32.667 38 49 90 49c46.667 0 70 -24.667 70 -74v-16c-5.33301 -52.667 -31.333 -145.667 -78 -279s-121.834 -337.666 -225.501 -612.999l-192.5 -513
c-108 -291.333 -251.333 -705 -430 -1241c0 -14 16.333 -25 49 -33c14 5.33301 31.667 8 53 8c80 21.333 190.667 87.666 332 198.999s252 202 332 272c32.667 0 49 -20.333 49 -61c0 -44 -16.333 -82.333 -49 -115c-128.667 -131.333 -266.334 -244 -413.001 -338
s-289 -141 -427 -141c-83.333 0 -128.333 27.333 -135 82c5.33301 5.33301 8 12 8 20c7.33301 52 25 126.167 53 222.5l78 260c24 77 42 133.167 54 168.5v9l-165 -173.5c-66.667 -69.667 -103.334 -106.167 -110.001 -109.5c-7.33301 0 -17 -5.33301 -29 -16
c-21.333 5.33301 -32 32.666 -32 81.999c0 31.333 10.667 60 32 86c30 33.333 80.5 80.833 151.5 142.5s127.333 114.167 169 157.5s75.5 90.666 101.5 141.999z" />
    <glyph glyph-name="m" unicode="m" horiz-adv-x="2503" 
d="M225 463l-0.000976562 -8.00098c317.333 383.333 611 676.666 881 879.999c96 79.333 178 119 246 119c54.667 0 82 -28.667 82 -86c0 -24 -8.33301 -55.333 -25 -94c-170.667 -312.667 -290.667 -577.667 -360 -795v-8c156.667 181.333 327.334 364.5 512.001 549.5
s330.667 311.833 438 380.5c56 32.667 101 49 135 49c60 0 90 -30 90 -90c0 -16 -2.16699 -31.833 -6.5 -47.5s-11.333 -35.167 -21 -58.5s-16.834 -44 -21.5 -62l-170 -388l-154.5 -360.5c-37.667 -87 -78.167 -173.5 -121.5 -259.5l16 -16c62 22 123.333 51.167 184 87.5
s118 75.666 172 117.999s113.5 93 178.5 152l153.5 138.5c22 -12.667 33 -34.667 33 -66c0 -75.333 -61.667 -154.666 -185 -237.999c-86.667 -61.333 -194.334 -132.833 -323.001 -214.5s-221.667 -130.167 -279 -145.5h-49c-84 0 -129 27.333 -135 82
c5.33301 8 8 20.333 8 37c23.333 61.333 67.333 161 132 299l184 386l135 277c0 1.33301 3.33301 15 10 41s10 44 10 54l-62 -37c-23.333 -14 -45 -27.667 -65 -41c-136 -127.333 -261 -253 -375 -377l-608 -672c-32.667 -32.667 -72.334 -49 -119.001 -49
c-31.333 0 -50.333 16.333 -57 49c5.33301 11.333 8 22.333 8 33c29.333 95.333 66.333 194.5 111 297.5s96 215.5 154 337.5l190 401c0 6.66699 1.33301 13.334 4 20.001s4 11 4 13c0 16.667 -5.33301 25 -16 25c-5.33301 0 -13.666 -5.66699 -24.999 -17
c-83.333 -64 -170.166 -142.667 -260.499 -236s-204.833 -218.166 -343.5 -374.499l-311 -346.5c-68.667 -74.667 -136.334 -139.334 -203.001 -194.001c-5.33301 -5.33301 -19 -8 -41 -8c-46.667 0 -70 16.333 -70 49v25c20 65.333 55.667 161.666 107 288.999l123 301
l-102.5 -104.5l-102.5 -104.5c-4 0 -12.333 -5.66699 -25 -17c-21.333 0 -32 22 -32 66c0 66.667 50.333 144.334 151 233.001c53.333 43.333 105.833 92.333 157.5 147s89.5 96 113.5 124c16 22 40.167 75.833 72.5 161.5s63.833 151.167 94.5 196.5s71.667 68 123 68
c46.667 0 70 -13.667 70 -41c0 -9.33301 -2 -20.666 -6 -33.999s-8.16699 -25.166 -12.5 -35.499s-9.16602 -22.833 -14.499 -37.5c-5.33301 -8.66699 -30.5 -61.334 -75.5 -158.001l-167 -362z" />
    <glyph glyph-name="n" unicode="n" 
d="M250 991c15.333 21.333 39.8389 75.3359 73.5059 162.003s68.667 153.667 105 201s86.166 71 149.499 71c30 -8.66699 45 -27.667 45 -57c0 -16.667 -11 -46.167 -33 -88.5l-37 -71.5l-125.5 -269.5l-132 -290l-119.5 -255.5h17l282.5 282l431.5 407
c158 143.333 277.667 238.666 359 285.999c5.33301 2.66699 22 13 50 31s50.833 31 68.5 39s36.834 12 57.501 12c25.333 0 48.666 -8.16699 69.999 -24.5s32 -38.166 32 -65.499c0 -31.333 -19.333 -86 -58 -164s-61.667 -127 -69 -147l-368 -824
c0 -3.33301 -5.66699 -17 -17 -41c0 -4.66699 11 -12.667 33 -24c21.333 10.667 35 16 41 16c54 21.333 151.667 87.666 293 198.999l338 272h16c16.667 0 25 -13.667 25 -41c0 -41.333 -7.33301 -74.166 -22 -98.499s-40.334 -51.5 -77.001 -81.5
c-94.667 -82 -209.334 -167.333 -344.001 -256s-241 -145.334 -319 -170.001c-16.667 -5.33301 -45.334 -8 -86.001 -8c-70 0 -108.333 27.333 -115 82c28 108.667 65 216.667 111 324s96.833 215.333 152.5 324l195.5 384c8 20 12 37.667 12 53c0 11.333 -4 17 -12 17
c-12.667 0 -31.667 -8.33301 -57 -25c-104.667 -70 -204.334 -148.333 -299.001 -235s-192.667 -183.667 -294 -291l-312.5 -330c-107 -112.667 -205.5 -208.334 -295.5 -287.001c-10.667 -10.667 -32.334 -16 -65.001 -16c-46.667 0 -70 19 -70 57v33l221 582l-112.5 -121
c-47 -50 -80.5 -82.333 -100.5 -97l-8 -8c-27.333 9.33301 -41 36.666 -41 81.999c0 38.667 24.667 81 74 127c30 34.667 82 86.5 156 155.5s134 131.833 180 188.5z" />
    <glyph glyph-name="o" unicode="o" horiz-adv-x="1360" 
d="M631 1503c16 5.33301 37.6699 8.00098 65.0029 8.00098c52 0 78 -23 78 -69c0 -42.667 -17.667 -67.334 -53 -74.001c-235.333 -68.667 -411.833 -187.167 -529.5 -355.5s-178.834 -346.166 -183.501 -533.499c10 -84 19 -144.5 27 -181.5s26.167 -72 54.5 -105
s70.833 -52.167 127.5 -57.5c72.667 3.33301 152.667 37.333 240 102s150.666 127.667 189.999 189c-48 55.333 -76.667 151 -86 287c5.33301 134 36 264.333 92 391s142.667 190 260 190c64 0 104 -19.333 120 -58s24 -95.667 24 -171c0 -84 -12.167 -165.833 -36.5 -245.5
s-53 -150 -86 -211l-70.5 -129.5l34.5 -11l39.5 -13c48.667 2.66699 98.167 18.667 148.5 48s98.5 63.5 144.5 102.5s70 58.5 72 58.5c10.667 0 16 -22 16 -66c0 -84 -47.5 -151.5 -142.5 -202.5s-188.167 -79.167 -279.5 -84.5c-68 13.333 -109 21.666 -123 24.999
c-103.333 -114 -200 -198.833 -290 -254.5s-187 -85.5 -291 -89.5c-110 0 -193.5 37.5 -250.5 112.5s-85.5 202.5 -85.5 382.5v41c4.66699 210.667 64.167 388.334 178.5 533.001s228.166 249.667 341.499 315s198 107.666 254 126.999zM754.003 553.001
c46 89.333 85.499 182.832 118.499 280.499s49.5 174.834 49.5 231.501c0 46.667 -8.33301 70 -25 70c-48 0 -92.167 -42.333 -132.5 -127s-63.166 -177.667 -68.499 -279c10 -81.333 29.333 -140 58 -176z" />
    <glyph glyph-name="p" unicode="p" horiz-adv-x="1896" 
d="M721 1417l-48.501 -163.502l-49.5 -163.5l8 -9c30 48.667 101.667 123 215 223s223.333 152.667 330 158c223.333 0 335 -109 335 -327c0 -61.333 -8 -127 -24 -197c-29.333 -143.333 -93.333 -280.333 -192 -411s-178 -225.667 -238 -285
c112 0 231.167 38.5 357.5 115.5s262.5 176.167 408.5 297.5h8c22 0 33 -20.333 33 -61c0 -43.333 -19.333 -84.333 -58 -123c-286.667 -264 -617 -402 -991 -414c-64.667 -43.333 -149.334 -65 -254.001 -65c-62 0 -108.167 9.33301 -138.5 28s-59.166 51.667 -86.499 99
c0 49.333 47.667 74 143 74h49c63.333 0 105.666 -3 126.999 -9c28 4 50.5 6.5 67.5 7.5s27.5 1.5 31.5 1.5c96 73.333 187.667 161 275 263s158.833 212.167 214.5 330.5s83.5 234.5 83.5 348.5c0 117.333 -45 176 -135 176c-55.333 0 -116.666 -20.667 -183.999 -62
c-80.667 -53.333 -163.334 -127.5 -248.001 -222.5s-153 -179.167 -205 -252.5s-88.333 -126.666 -109 -159.999c-72.667 -121.333 -133.334 -249.166 -182.001 -383.499s-87.667 -266.833 -117 -397.5s-60.666 -291.667 -93.999 -483s-53.666 -305 -60.999 -341
c-12 -44 -31.667 -83 -59 -117s-52.666 -51 -75.999 -51c-38.667 0 -58 36.667 -58 110c0 86 21.333 222.833 64 410.5s94.334 386 155.001 595s119.5 398 176.5 567s98.5 279.833 124.5 332.5l-8 8l-197.5 -204c-97 -101.333 -159.5 -164.333 -187.5 -189
c-2.66699 0 -9.33398 -5.33301 -20.001 -16c-12.667 0 -24 7.16699 -34 21.5s-15 31.5 -15 51.5c0 39.333 13.667 71 41 95c38.667 42 112.167 113.667 220.5 215s183.5 177 225.5 227c37.333 39.333 75.5 87.5 114.5 144.5s62.167 101.5 69.5 133.5
c8 37.333 22.167 60.333 42.5 69s51.5 13 93.5 13c32.667 0 51.667 -2.66699 57 -8z" />
    <glyph glyph-name="q" unicode="q" horiz-adv-x="1663" 
d="M184 -831l163.998 338.494l209.5 433l163.5 338.5l-8 8c-26.667 -20.667 -66.334 -55 -119.001 -103s-97.667 -86.333 -135 -115s-79.166 -52.834 -125.499 -72.501s-96.166 -29.5 -149.499 -29.5c-124.667 0 -211.834 51.5 -261.501 154.5s-74.5 224.833 -74.5 365.5
c0 211.333 86.667 391.5 260 540.5s380.333 267.833 621 356.5c169.333 44 295 66 377 66c212.667 -20 319 -72 319 -156c0 -26.667 -6.33301 -54.5 -19 -83.5s-25.334 -43.5 -38.001 -43.5c-10.667 3.33301 -33 19.333 -67 48s-73.667 51.834 -119 69.501
s-106.333 26.5 -183 26.5c-136 -14.667 -280.333 -65 -433 -151s-281 -188.167 -385 -306.5s-159 -229.5 -165 -333.5c0 -145.333 13.167 -246.166 39.5 -302.499s74.833 -86.5 145.5 -90.5c76.667 0 160.667 44.333 252 133s198.333 211.5 321 368.5
s203.334 254.833 242.001 293.5c66.667 73.333 122.667 110 168 110c17.333 0 30.5 -2 39.5 -6s14.833 -7.33301 17.5 -10c-53.333 -139.333 -116.166 -285 -188.499 -437s-164.5 -335.167 -276.5 -549.5l-249.5 -482.5c-54.333 -107.333 -109.833 -225.333 -166.5 -354
c-38 -98 -57 -159.333 -57 -184c11.333 -11.333 25 -17 41 -17h33c68 20.667 138.333 87.834 211 201.501s137 241.834 193 384.501s94.667 264.334 116 365.001c6 30 12.833 71.5 20.5 124.5s14.5 81.167 20.5 84.5c8.66699 18 29 39.667 61 65
c42 26.667 149 104.334 321 233.001s263 194.334 273 197.001c19.333 0 29 -23 29 -69c0 -41.333 -15 -77 -45 -107c-33.333 -31.333 -112 -94.833 -236 -190.5s-202.333 -157.834 -235 -186.501c-28.667 -27.333 -48 -58.166 -58 -92.499s-17.667 -81 -23 -140
s-11 -100.167 -17 -123.5c-19.333 -80 -46.333 -168.333 -81 -265s-86.5 -201.667 -155.5 -315s-152.833 -208 -251.5 -284c-73.333 -49.333 -151 -74 -233 -74c-89.333 0 -142.666 50.333 -159.999 151c8.66699 61.333 27.667 134 57 218z" />
    <glyph glyph-name="r" unicode="r" horiz-adv-x="1360" 
d="M385 1303c-44 28.667 -66.001 84.3359 -66.001 167.003c0 68 30.333 114.667 91 140c5.33301 0 12.666 1.33301 21.999 4s17 4 23 4c49.333 0 79.833 -15 91.5 -45s24.834 -84.667 39.501 -164h102c202 0 303 -72.333 303 -217c0 -42 -7.16699 -84.167 -21.5 -126.5
s-36.666 -96.5 -66.999 -162.5s-48.5 -106.333 -54.5 -121l-119 -262.5l-110 -244.5c-22 -51.333 -33 -84.333 -33 -99l20 -16c35.333 4.66699 100.166 40.167 194.499 106.5s183.166 132.833 266.499 199.5l182 148c4 5.33301 10.333 12.166 19 20.499
s17.334 12.5 26.001 12.5c16.667 0 25 -8 25 -24v-62c0 -39.333 -17.667 -72 -53 -98c-136.667 -117.333 -239.334 -203 -308.001 -257s-161.334 -111.667 -278.001 -173c-79.333 -44 -151.666 -66 -216.999 -66c-56 0 -93 30 -111 90
c22.667 70.667 49.167 143.667 79.5 219s71.833 171.833 124.5 289.5l137.5 312c39 90.333 71.5 173.166 97.5 248.499c0 6 1.33301 14.333 4 25s4 19 4 25c0 54 -50.667 81 -152 81c-19.333 0 -45.666 -2.66699 -78.999 -8s-54.666 -8 -63.999 -8
c-136.667 -246.667 -347 -514.334 -631 -803.001c-27.333 6.66699 -41 34 -41 82c0 26.667 4.16699 45.667 12.5 57s28.833 34.666 61.5 69.999c128 119.333 232.833 243.333 314.5 372s136.5 223.334 164.5 284.001z" />
    <glyph glyph-name="s" unicode="s" horiz-adv-x="1360" 
d="M-94 631c305.333 266.667 576.999 552.003 814.999 856.003c8.66699 10 20 49 34 117s34.5 122.833 61.5 164.5s71.5 62.5 133.5 62.5c44 0 66 -28.667 66 -86c0 -42 -16.167 -92.167 -48.5 -150.5s-72.166 -109.166 -119.499 -152.499
c-6.66699 -6.66699 -12.334 -64.5 -17.001 -173.5s-7.33398 -168.5 -8.00098 -178.5c-2.66699 -36.667 -4.83398 -67.834 -6.50098 -93.501s-4 -54.5 -7 -86.5l-10.5 -111c-12 -148.667 -37.167 -270.167 -75.5 -364.5s-69.166 -158.5 -92.499 -192.5
c116.667 37.333 241.834 99.666 375.501 186.999s225.5 157.333 275.5 210c5.33301 10.667 12.333 16 21 16c10.667 0 16 -20.333 16 -61c0 -38 -1.5 -62.667 -4.5 -74s-12.5 -25 -28.5 -41c-81.333 -62.667 -201.166 -143.5 -359.499 -242.5
s-299.166 -155.833 -422.499 -170.5c-29.333 -2.66699 -68.5 -13.834 -117.5 -33.501s-83.5 -32.667 -103.5 -39s-53 -9.5 -99 -9.5c-185.333 0 -278 39.333 -278 118c0 38.667 23 58 69 58c22 0 42.667 -1.16699 62 -3.5s43.166 -5.5 71.499 -9.5s59.166 -8 92.499 -12
c87.333 10 154 26.333 200 49c90.667 44 151.334 157.667 182.001 341s54.667 408.333 72 675c-31.333 -38.667 -82.333 -93.334 -153 -164.001l-298.5 -293l-203.5 -198c-40 -40.667 -74 -68 -102 -82c-22 5.33301 -33 27 -33 65c0 44 13.667 78.333 41 103z" />
    <glyph glyph-name="t" unicode="t" horiz-adv-x="1065" 
d="M680 1831c14.667 48.667 39 124.337 73 227.004s75.833 215 125.5 337s92.834 204.333 129.501 247c38.667 35.333 68.667 53 90 53c30 0 45 -28.667 45 -86c0 -75.333 -23.167 -159 -69.5 -251l-139.5 -276c-46.667 -92 -70 -175.667 -70 -251h246
c10.667 0 16 -15 16 -45c0 -65.333 -31.333 -98 -94 -98h-225c-237.333 -521.333 -431.333 -991 -582 -1409c0 -8 -5.33301 -23.333 -16 -46c0 -29.333 20.333 -48.333 61 -57c27.333 5.33301 74 21.666 140 48.999c96 55.333 195.167 124.166 297.5 206.499
s179.166 146.166 230.499 191.499c20.667 27.333 44 41 70 41c16 0 24 -19.333 24 -58c0 -40.667 -16.333 -80.334 -49 -119.001c-20.667 -26.667 -85.834 -80.334 -195.501 -161.001s-222.5 -154.667 -338.5 -222s-204.333 -104.666 -265 -111.999
c-128 0 -192 31.333 -192 94c0 57.333 10 113.333 30 168s50.833 120.334 92.5 197.001s74.667 140.167 99 190.5s40.5 102.833 48.5 157.5l-4 8l-213.5 -203c-88.333 -83.333 -142.833 -133 -163.5 -149c-4 4 -9 12 -15 24s-9 28.333 -9 49c0 33.333 2.66699 55.333 8 66
c11.333 18 70.5 79.667 177.5 185l244.5 244c56 57.333 94 105.333 114 144c8.66699 24 37.167 97.167 85.5 219.5l119.5 301.5h-270c-46.667 0 -72.667 21.667 -78 65c2 21.333 10.333 39.666 25 54.999s32.334 23 53.001 23h344z" />
    <glyph glyph-name="u" unicode="u" 
d="M1442 1434h20.0049c18.667 0 41.167 -1.5 67.5 -4.5s44.833 -4.5 55.5 -4.5c-42.667 -109.333 -115 -267.166 -217 -473.499l-214.5 -439.5c-41 -86.667 -81.5 -190.334 -121.5 -311.001c0 -14.667 11 -25.667 33 -33c12.667 3.33301 44 17 94 41
c96.667 58 206.5 136 329.5 234l280.5 229c11.333 0 17 -22 17 -66c0 -81.333 -31 -147.333 -93 -198s-162 -119.667 -300 -207l-159 -103.5c-53.333 -34.333 -105.333 -61.833 -156 -82.5s-102.667 -31 -156 -31c-63.333 0 -99 32.667 -107 98c16.667 86 43 170 79 252
s84.667 181.667 146 299s106.666 210.666 135.999 279.999l-9 9l-289 -291.5c-81.333 -78.333 -164.666 -154.5 -249.999 -228.5s-169.333 -142.333 -252 -205s-160.334 -117.334 -233.001 -164.001c-44.667 -27.333 -97.667 -41 -159 -41c-63.333 0 -95 19 -95 57
c0 9.33301 1.5 18.833 4.5 28.5s4.5 17.834 4.5 24.501l117 286.5c70 172.333 115.667 277.833 137 316.5l-9 8c-28 -37.333 -67.333 -86.333 -118 -147s-90.334 -97.667 -119.001 -111c-27.333 0 -41 21.667 -41 65c0 41.333 13.667 75.666 41 102.999l173 173l171 171
c27.333 31.333 52.5 68.333 75.5 111s48.667 95.834 77 159.501s51.166 112.5 68.499 146.5c20 33.333 39 50 57 50c84.667 0 127 -5.66699 127 -17c-22 -90 -54.667 -182.667 -98 -278s-100.833 -208.333 -172.5 -339s-125.334 -231.667 -161.001 -303
s-67.834 -149.666 -96.501 -234.999c0 -11.333 11 -21 33 -29c28.667 10.667 58.667 26 90 46c96.667 71.333 209.5 164.5 338.5 279.5s253.5 233 373.5 354s218.333 227.833 295 320.5l102.5 128c17.667 22 30.667 36.667 39 44s22.833 17 43.5 29z" />
    <glyph glyph-name="v" unicode="v" horiz-adv-x="1663" 
d="M872 639c2 2.66699 9.99707 42.501 23.9971 119.501s37.667 157.167 71 240.5c34 85.333 61.167 150.666 81.5 195.999s50.333 91 90 137s84.834 69 135.501 69c24.667 0 37 -11 37 -33c0 -121.333 -22.5 -238.333 -67.5 -351s-112.833 -259 -203.5 -439
c9.33301 -54.667 23 -92.5 41 -113.5s52.333 -36.5 103 -46.5c68.667 8.66699 132.667 31.667 192 69c50 30 96 64.167 138 102.5s71.333 60.166 88 65.499c13.333 0 20 -23 20 -69c0 -70 -37 -126 -111 -168c-146.667 -98.667 -266.667 -148 -360 -148
c-117.333 7.33301 -191 63.333 -221 168c-47.333 -62 -125.166 -144.667 -233.499 -248s-223.166 -172 -344.499 -206c-72 -11.333 -125 -17 -159 -17c-70 0 -126.5 17.667 -169.5 53s-64.5 87.333 -64.5 156c0 54.667 10.5 112.167 31.5 172.5s61.167 162.5 120.5 306.5
l-9 9c-26.667 -30.667 -69 -74.667 -127 -132s-92 -91.333 -102 -102c-22 10.667 -33 40.667 -33 90c0 22.667 6.16699 43.167 18.5 61.5s31 39.5 56 63.5l44.5 43c176 169.333 293.333 300.333 352 393c9.33301 14.667 35.5 69.167 78.5 163.5s75.5 151.833 97.5 172.5
c71.333 0 122 -5.33301 152 -16l-125.5 -294l-173.5 -384l-147 -322c-12 -18.667 -27.833 -48.667 -47.5 -90s-31.167 -80.666 -34.5 -117.999c0 -52 38 -82.333 114 -91c11.333 6 26.333 9 45 9c124 22.667 255.333 108.667 394 258c104.667 109.333 174 199.333 208 270z
" />
    <glyph glyph-name="w" unicode="w" horiz-adv-x="2351" 
d="M270 1024l91.0078 191.501c40 82.333 71.333 141.5 94 177.5c19.333 32.667 41 49 65 49c57.333 0 97 -5.66699 119 -17l-148.5 -325l-145.5 -324l-129.5 -308c-37.667 -94 -72.5 -188.667 -104.5 -284c10.667 -16 21.334 -29.667 32.001 -41
c31.333 6.66699 58.666 23.334 81.999 50.001c145.333 122 286.666 264.667 423.999 428s287 359 449 587c6 13.333 18 29.666 36 48.999s42.667 29 74 29c38.667 0 58 -23 58 -69c0 -74.667 -12.667 -150.167 -38 -226.5s-66 -172.333 -122 -288
s-96.167 -202.5 -120.5 -260.5s-42.833 -124.667 -55.5 -200c0 -11.333 -2.66699 -25 -8 -41c0 -27.333 20.333 -46.666 61 -57.999c41.333 11.333 66 17 74 17c56 20 122.167 63.667 198.5 131s145.5 137.833 207.5 211.5s97.333 124.5 106 152.5
c74 378 172.333 618.333 295 721c40.667 32.667 70.667 49 90 49c30 0 45 -32.667 45 -98c0 -72.667 -13.167 -147.167 -39.5 -223.5s-66.833 -167.5 -121.5 -273.5s-88.334 -172.333 -101.001 -199c0 -16.667 -2.66699 -31.667 -8 -45c8 -52 22.833 -88.833 44.5 -110.5
s57.167 -36.834 106.5 -45.501c116 33.333 233.333 97.666 352 192.999c3.33301 1.33301 12.166 7 26.5 17c14.333 10 24.833 15 31.5 15c13.333 0 20 -16.333 20 -49c0 -92.667 -54.333 -169 -163 -229s-222.334 -90 -341.001 -90c-38 4.66699 -75 21.167 -111 49.5
s-60.333 64.833 -73 109.5c-110.667 -136 -222.334 -245.667 -335.001 -329s-237.334 -125 -374.001 -125c-58.667 0 -95.334 10.5 -110.001 31.5s-28.334 63.833 -41.001 128.5c3.33301 78.667 22.833 176.167 58.5 292.5s61.167 189.5 76.5 219.5l-16 8
c-149.333 -186.667 -271.333 -328 -366 -424s-191.334 -173.333 -290.001 -232c-48 -16 -91.667 -24 -131 -24c-106.667 0 -160 42.333 -160 127c0 58 9 111.833 27 161.5s45.833 116.5 83.5 200.5s62.5 150.333 74.5 199l-8 8c-20 -26.667 -49.5 -63.5 -88.5 -110.5
s-73.833 -82.5 -104.5 -106.5c-1.33301 -2.66699 -5.83301 -5.5 -13.5 -8.5s-12.834 -5.5 -15.501 -7.5c-27.333 0 -41 30 -41 90v33c6 17.333 43.333 57.333 112 120l165.5 155c41.667 40.667 89.834 97.667 144.501 171z" />
    <glyph glyph-name="x" unicode="x" horiz-adv-x="1663" 
d="M1294 1417h217.001l-202 -212.5l-258.5 -271l-202.5 -212.5l-16.5 -229.5l-16.5 -229.5c2 0 -0.666992 -15 -8 -45c0 -48.667 21.667 -76 65 -82c82.667 27.333 163 67.5 241 120.5s152.667 110.667 224 173l248 218.5c1.33301 1.33301 3.5 3 6.5 5s6.5 3 10.5 3
c18.667 0 28 -20.333 28 -61c0 -32 -1.5 -54 -4.5 -66s-7.33301 -20.833 -13 -26.5s-9.16699 -10.5 -10.5 -14.5c-22.667 -28 -112.5 -100 -269.5 -216s-291.167 -201 -402.5 -255c-48.667 -16 -100.667 -24 -156 -24c-44 0 -73.333 8 -88 24s-24.167 45.5 -28.5 88.5
s-7.83301 69.5 -10.5 79.5c0 32 1.33301 77.333 4 136s4 103.667 4 135v123l-536 -570h-201l729 754c38.667 42 58 126.667 58 254c5.33301 43.333 8 96.666 8 159.999c0 60 -11 90 -33 90c-10.667 0 -35.334 -19.333 -74.001 -58l-240 -262.5l-221.5 -231l-255.5 -259.5
c-27.333 9.33301 -41 23 -41 41c0 42 19.333 84.333 58 127c46.667 62 118 145.167 214 249.5l288.5 307l205.5 213.5c32 40.667 81.333 61 148 61c79.333 0 119 -45 119 -135c0 -46 -1.5 -103.167 -4.5 -171.5s-4.5 -131.5 -4.5 -189.5c40 50.667 80 97.834 120 141.501
l133 141.5z" />
    <glyph glyph-name="y" unicode="y" horiz-adv-x="1745" 
d="M496 1417l176.003 -0.00195312c-30.667 -84.667 -66 -167.5 -106 -248.5l-161.5 -317.5c-67.667 -130.667 -120.334 -238.834 -158.001 -324.501s-69.167 -175.167 -94.5 -268.5c0 -4.66699 5.33301 -13 16 -25c28.667 10.667 65.667 31.334 111 62.001
c72.667 56 185 158.667 337 308s296.833 299.666 434.5 450.999s229.834 264.333 276.501 339c5.33301 10.667 30 16 74 16c68 0 102 -11 102 -33l-190 -415l-242 -530l-190 -415l8 -4l8 -4l241.5 205l344.5 290.5c124 103.667 189.333 157.167 196 160.5
c10 0 19.333 -8.16699 28 -24.5s13 -36.833 13 -61.5c0 -40.667 -10.667 -68 -32 -82l-224.5 -185l-329.5 -277.5c-100.667 -86.333 -194.834 -170.833 -282.501 -253.5s-142.167 -143 -163.5 -181c-42 -78 -101.833 -199.167 -179.5 -363.5s-121.5 -261.833 -131.5 -292.5
c-7.33301 -21.333 -24.5 -45 -51.5 -71s-60.5 -39 -100.5 -39c-64 0 -99.333 34 -106 102c2.66699 9.33301 5.5 23.166 8.5 41.499s5.5 31.833 7.5 40.5c25.333 120 91.166 261 197.499 423s190.833 276.333 253.5 343c28 34 49.333 66.833 64 98.5s34 79.5 58 143.5
s44.667 114.333 62 151l141.5 304l178.5 384h-9c-52.667 -50 -141 -138.667 -265 -266s-227.667 -229.166 -311 -305.499s-168.333 -142.5 -255 -198.5c-121.333 -68 -210 -102 -266 -102c-52 0 -78 24.667 -78 74c0 26 9.33301 68.333 28 127
c46.667 117.333 90 216.833 130 298.5s69.333 139.167 88 172.5c-1.33301 2.66699 -2.83301 5.33398 -4.5 8.00098s-3.16699 5.33398 -4.5 8.00098l-114.5 -116.5l-114.5 -117.5c-10.667 1.33301 -24.334 6.83301 -41.001 16.5s-25 26.167 -25 49.5
c0 43.333 23.333 88.333 70 135c32 34.667 99.5 101.834 202.5 201.501s172.167 174.5 207.5 224.5c22 27.333 50.5 79.833 85.5 157.5z" />
    <glyph glyph-name="z" unicode="z" horiz-adv-x="1442" 
d="M438 -352c-54.667 -45.333 -126.168 -110.668 -214.501 -196.001s-164.666 -168.5 -228.999 -249.5s-96.5 -142.833 -96.5 -185.5c0 -22 5.33301 -38.333 16 -49c5.33301 -5.33301 16.333 -8 33 -8c38.667 0 90 33.167 154 99.5s127.167 153.333 189.5 261
s111.5 216.834 147.5 327.501zM-143.001 585.998c80 78.667 184.666 192.669 313.999 342.002s219.166 251 269.499 305s113 104.333 188 151s153.5 70 235.5 70c86.667 0 158.834 -28.333 216.501 -85s86.5 -132 86.5 -226c0 -41.333 -2.66699 -72.666 -8 -93.999
c-22.667 -90 -63.834 -167.167 -123.501 -231.5s-127 -123.833 -202 -178.5s-112.5 -88.667 -112.5 -102c0 -1.33301 8.5 -18.166 25.5 -50.499s26.167 -66.166 27.5 -101.499c0 -13.333 1.33301 -35.333 4 -66s4 -53.667 4 -69c0 -16.667 -1.66699 -40.334 -5 -71.001
s-5.66602 -53.334 -6.99902 -68.001c70.667 59.333 178.167 158.666 322.5 297.999s236.166 221.333 275.499 246h8c16.667 0 25 -23 25 -69v-25c-20.667 -53.333 -50.667 -98.333 -90 -135l-158 -141.5l-195.5 -179.5c-57.667 -54 -117.5 -114.333 -179.5 -181
s-100 -116.334 -114 -149.001c-51.333 -119.333 -117.166 -251.333 -197.499 -396s-164.333 -271.5 -252 -380.5s-164.5 -167.167 -230.5 -174.5c-12 0 -28 -1.33301 -48 -4s-32.667 -4 -38 -4c-104 0 -156 48 -156 144c0 100 27.167 192 81.5 276s132 168.833 233 254.5
l274 231.5c81.667 68.667 144.834 134 189.501 196c62.667 78 94 203.667 94 377c0 106.667 -15 160 -45 160c-23.333 0 -58.833 -12.333 -106.5 -37s-81.834 -38.334 -102.501 -41.001c-12 12 -30.167 20.667 -54.5 26s-42.5 12.333 -54.5 21s-20.667 29.667 -26 63
c7.33301 54 31 89.167 71 105.5s97.833 27.5 173.5 33.5s126.834 15.667 153.501 29c90 46 175.167 116.5 255.5 211.5s120.5 187.167 120.5 276.5c0 100.667 -45 151 -135 151c-42.667 0 -85 -9.33301 -127 -28c-102 -46.667 -197.5 -123 -286.5 -229l-274 -332
c-93.667 -115.333 -186.5 -196 -278.5 -242c-16 0 -29.667 6.66699 -41 20s-17 28.333 -17 45c0 28.667 5.66699 48 17 58z" />
    <glyph glyph-name="braceleft" unicode="{" horiz-adv-x="1360" 
d="M369 -975l-143.999 0.000976562c-84.667 0 -131 67 -139 201c14.667 107.333 37.667 208.333 69 303s79.5 227.834 144.5 399.501s112.5 314.5 142.5 428.5s45 227 45 339c0 101.333 -28.667 152 -86 152c6 21.333 14.667 48 26 80l28 80
c50.667 0 114.667 50.333 192 151l47.5 84.5c24.333 43.667 50.333 95.667 78 156s55.5 133.166 83.5 218.499c28.667 92 76.167 235.5 142.5 430.5l152.5 445.5c53.333 110 110.166 197.667 170.499 263s137.166 98 230.499 98h95l-37 -127h-131
c-50.667 0 -99 -47.167 -145 -141.5s-102.667 -247.5 -170 -459.5s-108.666 -339.333 -123.999 -382c-86.667 -229.333 -162.667 -403.833 -228 -523.5s-146.333 -216.834 -243 -291.501c36 -56.667 54 -131.667 54 -225c0 -82.667 -13.833 -177.5 -41.5 -284.5
s-71 -246 -130 -417s-103 -302.5 -132 -394.5s-52.167 -185.667 -69.5 -281c0 -32.667 -2.66699 -57 -8 -73c10 -68.667 22.333 -103 37 -103h131z" />
    <glyph glyph-name="bar" unicode="|" horiz-adv-x="913" 
d="M393 0v2839v98h144v-2843v-94h-144z" />
    <glyph glyph-name="braceright" unicode="}" horiz-adv-x="1360" 
d="M1090 2855l135 0.00195312c84.667 0 127 -69.667 127 -209c0 -70.667 -11 -141.667 -33 -213c-22 -72.667 -66.333 -204.834 -133 -396.5c-66.667 -191.667 -118.334 -350.167 -155.001 -475.5s-63.667 -253.666 -81 -384.999c12 -106.667 47.667 -160 107 -160
c-4 -22.667 -12.5 -50.334 -25.5 -83.001s-23.833 -58.334 -32.5 -77.001c-64.667 0 -128.667 -45 -192 -135c-76 -124.667 -145.667 -277.667 -209 -459c-34.667 -109.333 -84.834 -257.333 -150.501 -444l-152.5 -432c-43.333 -98.667 -97.666 -183.5 -162.999 -254.5
s-140.666 -106.5 -225.999 -106.5h-99l41 127h127c48 0 93.833 45.667 137.5 137s99 237.833 166 439.5s113.5 334.5 139.5 398.5c82 226 155.833 398 221.5 516s146.167 216.333 241.5 295c-29.333 40 -48.666 105.667 -57.999 197c2 115.333 18.833 226.833 50.5 334.5
s79.667 243.167 144 406.5s112.166 298.666 143.499 405.999s47 219 47 335c0 74 -13.667 111 -41 111h-127z" />
    <glyph glyph-name="asciitilde" unicode="~" horiz-adv-x="2458" 
d="M279 606c21.333 58.667 73.501 131.999 156.501 219.999s209.5 132 379.5 132c71.333 -2 143.5 -15.667 216.5 -41s158.667 -61.5 257 -108.5s171.5 -80.167 219.5 -99.5s94.333 -29 139 -29c56 0 103.167 11 141.5 33s69.833 47.833 94.5 77.5
s71.334 91.167 140.001 184.5l144 -144c-84 -123.333 -167.5 -212.833 -250.5 -268.5s-185.167 -83.5 -306.5 -83.5c-66.667 2 -127.834 13.667 -183.501 35s-129.834 55.333 -222.501 102s-170.5 81.334 -233.5 104.001s-128.5 34 -196.5 34c-150 0 -266 -97 -348 -291z
" />
    <glyph glyph-name="exclamdown" unicode="&#xa1;" horiz-adv-x="1065" 
d="M520 897l-655.001 -1761c0 -14.667 -9.66699 -30.667 -29 -48s-50.666 -26 -93.999 -26c-46.667 0 -70 22 -70 66c0 6 1.5 13.333 4.5 22s4.5 15 4.5 19l704 1736c14.667 41.333 40.667 62 78 62c38 0 57 -20.667 57 -62v-8zM663.999 1462l32.001 0.00195312
c44 0 66 -31.333 66 -94c0 -60 -19.167 -107.333 -57.5 -142s-91.5 -65 -159.5 -91c-42.667 8.66699 -67.334 36 -74.001 82c0 47.333 18.333 97.666 55 150.999s82.667 84.666 138 93.999z" />
    <glyph glyph-name="cent" unicode="&#xa2;" 
d="M82 950c20.667 136.667 68.501 262.17 143.501 376.503s160.667 210.666 257 288.999s189.833 139.333 280.5 183s158.667 65.5 204 65.5l217 602c7.33301 35.333 26.333 53 57 53c30 0 45 -13.667 45 -41l-205 -606c127.333 -8.66699 206.666 -53.667 237.999 -135v-49
c0 -69.333 -31.333 -176 -94 -320c-31.333 -61.333 -69.666 -95.333 -114.999 -102c-6.66699 6.66699 -20.167 12.167 -40.5 16.5s-35.5 16.5 -45.5 36.5c8 24.667 32.5 74.667 73.5 150s61.5 134.666 61.5 177.999c0 65.333 -42.333 98 -127 98l-120.5 -343.5l-98 -291
l-89.5 -270l-93 -271.5c108.667 37.333 214.667 90.833 318 160.5s201.833 143 295.5 220s143.167 115.5 148.5 115.5c8.66699 0 17.667 -7.33301 27 -22s14 -32 14 -52c0 -29.333 -16.667 -60.666 -50 -93.999c-276.667 -264.667 -545.334 -424.334 -806.001 -479.001
c-69.333 -185.333 -152.666 -436.666 -249.999 -753.999c-8.66699 -32.667 -37.334 -49 -86.001 -49c-36 0 -58 16.333 -66 49c3.33301 3.33301 5.5 6.66602 6.5 9.99902s1.5 5.66602 1.5 6.99902c17.333 32.667 59 140.5 125 323.5s111.667 315.167 137 396.5
c-130.667 0 -224 49 -280 147s-86.667 209 -92 333c5.33301 21.333 8 44.333 8 69zM922.001 1720c-208.667 -96.667 -372 -219.333 -490 -368s-184.333 -292 -199 -430c0 -144.667 22.833 -243.667 68.5 -297s113.167 -80 202.5 -80l76.5 218.5l96 271.5l132.5 370.5z" />
    <glyph glyph-name="sterling" unicode="&#xa3;" 
d="M713 1040c94.667 284 162.503 477.999 203.503 581.999s90.5 203.667 148.5 299c151.333 251.333 324.666 377 519.999 377c91.333 0 163.333 -29 216 -87s79 -134.333 79 -229c0 -142 -27.167 -275.667 -81.5 -401s-141.833 -188 -262.5 -188
c2.66699 10 21.667 56.667 57 140s65.333 164.333 90 243s37 147.334 37 206.001c0 112 -47.667 168 -143 168c-99.333 0 -189.333 -50 -270 -150s-153 -229.333 -217 -388s-131 -349.334 -201 -572.001h397l-29 -143h-426
c-50.667 -128.667 -96.334 -236.167 -137.001 -322.5s-91.834 -170.666 -153.501 -252.999s-132.5 -144.5 -212.5 -186.5v-8c83.333 -10 209 -21 377 -33c132.667 3.33301 279.834 17.5 441.501 42.5s254.5 38.167 278.5 39.5c46.667 0 70 -27.333 70 -82
c-11.333 -40 -48.333 -63 -111 -69c-16.667 -1.33301 -72.334 -6.83301 -167.001 -16.5s-185.5 -17.667 -272.5 -24s-166.833 -9.5 -239.5 -9.5c-217.333 0 -388 24.667 -512 74c-108 -49.333 -217.333 -74 -328 -74c-126.667 0 -193.667 30.333 -201 91
c0 52 27.667 90.167 83 114.5s117.666 36.5 186.999 36.5c47.333 0 93.333 -2.66699 138 -8s74 -8 88 -8c28 0 89.333 42.333 184 127c49.333 53.333 103.833 136 163.5 248s108.834 219 147.501 321h-327l24 143h361z" />
    <glyph glyph-name="currency" unicode="&#xa4;" 
d="M897 176c133.333 0 256.832 33.501 370.499 100.501s203.834 158 270.501 273s100 239.167 100 372.5c0 130 -32.833 250.667 -98.5 362s-154.667 199.666 -267 264.999s-234.833 98 -367.5 98c-134 0 -258.167 -32.667 -372.5 -98s-205 -153.833 -272 -265.5
s-100.5 -232.167 -100.5 -361.5c0 -134 32.833 -258.333 98.5 -373s155 -205.5 268 -272.5s236.5 -100.5 370.5 -100.5zM327.999 1630c144 134 333.667 201 569 201c115.333 0 225.666 -18.167 330.999 -54.5s189 -85.166 251 -146.499l200 201l144 -143l-201 -218
c128.667 -140 193 -325.667 193 -557c0 -115.333 -16.667 -224 -50 -326s-78.333 -180.333 -135 -235l193 -217l-135 -135l-201 209c-139.333 -139.333 -327.666 -209 -564.999 -209c-122 0 -239 19.167 -351 57.5s-198.667 88.833 -260 151.5l-192 -209l-135 135l192 217
c-128 159.333 -192 343.666 -192 552.999c0 118 19.333 228.667 58 332s89 184 151 242l-209 209l135 143z" />
    <glyph glyph-name="yen" unicode="&#xa5;" 
d="M737 1393l-351.995 887.999c0 24.667 31.333 37 94 37s100.5 -2.66699 113.5 -8s25.833 -20.333 38.5 -45l360 -938l1024 979c5.33301 2.66699 38.333 4 98.999 4c46 0 69 -1.33301 69 -4v0l-958 -913h405c5.33301 0 8 -13.667 8 -41c0 -46.667 -20.333 -70 -61 -70h-467
l-94 -90l-78 -217h598c5.33301 0 8 -11 8 -33c0 -52 -21.667 -78 -65 -78h-582l-88.5 -248.5l-113.5 -317.5l-89 -249c-6.66699 -32.667 -35.334 -49 -86.001 -49h-33c-38.667 0 -61.667 11 -69 33c45.333 90 97.666 230.333 156.999 421s108 327.334 146 410.001h-602
c-5.33301 0 -11 5.66699 -17 17c5.33301 21.333 14.166 42.333 26.499 63s22.833 31 31.5 31h594l61 184l-41 123h-541c-9.33301 0 -17.333 7 -24 21c4.66699 22 12.167 42.5 22.5 61.5s19.166 28.5 26.499 28.5h479z" />
    <glyph glyph-name="brokenbar" unicode="&#xa6;" horiz-adv-x="561" 
d="M393 0v2839v98h144v-2843v-94h-144z" />
    <glyph glyph-name="section" unicode="&#xa7;" horiz-adv-x="2281" 
d="M1434 1618c-54 66.667 -111.167 123.667 -171.5 171s-121.333 83.833 -183 109.5s-122.5 38.5 -182.5 38.5c-91.333 0 -171.833 -33.5 -241.5 -100.5s-106.5 -145.167 -110.5 -234.5c10 -150.667 97.333 -312 262 -484c196.667 -193.333 372.667 -294.333 528 -303
c92.667 8.66699 174.667 41.667 246 99s107 131 107 221c0 124.667 -84.667 285.667 -254 483zM2064 2392c-32 80.667 -84.332 154.334 -156.999 221c-72.667 66.667 -151.334 119.5 -236.001 158.5s-158.334 58.5 -221.001 58.5c-279.333 -10.667 -424 -128 -434 -352
c4 -70.667 22.833 -144.334 56.5 -221c33.667 -76.667 73.5 -141 119.5 -193l286.5 -261c97 -88.667 182 -185.334 255 -290.001s109.5 -211.667 109.5 -321c0 -30.667 -4 -62 -12 -94c-56.667 -242.667 -224.667 -371 -504 -385c-30 5.33301 -61.333 8 -94 8
c32.667 -26.667 73.5 -80.667 122.5 -162s75.167 -155.666 78.5 -222.999c0 -82 -23.667 -164.167 -71 -246.5s-113.5 -150.666 -198.5 -204.999s-179.5 -82.833 -283.5 -85.5c-329.333 0 -595.666 131.333 -798.999 394l102 86l117 -120.5
c58.667 -59.667 133.834 -112 225.501 -157s198.834 -67.5 321.501 -67.5c127.333 16.667 226 56 296 118s105 137.667 105 227c0 100 -38 199.667 -114 299c-35.333 51.333 -89.333 112.666 -162 183.999l-264.5 268c-103.667 107.333 -182.834 207.5 -237.501 300.5
s-82 186.167 -82 279.5c0 40.667 7 83 21 127c61.333 202 204.666 303 429.999 303c81.333 0 142.666 -5.66699 183.999 -17c6 4 11.333 6.5 16 7.5s7.66699 1.5 9 1.5c-45.333 27.333 -78.666 60.166 -99.999 98.5c-21.333 38.333 -41.5 88.333 -60.5 150
s-35.167 104.167 -48.5 127.5c17.333 299.333 159.333 475.666 426 529c58 10.667 118 16 180 16c158 0 291.333 -34.667 400 -104s190.667 -145.833 246 -229.5s83 -140.5 83 -170.5v0z" />
    <glyph glyph-name="dieresis" unicode="&#xa8;" horiz-adv-x="913" 
d="M250 2081c35.333 0 65.333 -11.5 90 -34.5s37 -53.833 37 -92.5c0 -37.333 -12.333 -67.166 -37 -89.499s-54.667 -33.5 -90 -33.5c-38 0 -69.333 11.167 -94 33.5s-37 52.166 -37 89.499c0 38.667 12.333 69.5 37 92.5s56 34.5 94 34.5zM983 2081
c34.667 0 64.5 -11.667 89.5 -35s37.5 -54 37.5 -92c0 -36.667 -12.5 -66.334 -37.5 -89.001s-54.833 -34 -89.5 -34c-36 0 -66.167 11.333 -90.5 34s-36.5 52.334 -36.5 89.001c0 38.667 12.167 69.5 36.5 92.5s54.5 34.5 90.5 34.5z" />
    <glyph glyph-name="copyright" unicode="&#xa9;" horiz-adv-x="3281" 
d="M1647 -94c-274 0 -528.501 68.667 -763.501 206s-421.167 323.5 -558.5 558.5s-206 489.5 -206 763.5c0 274.667 67.333 528.5 202 761.5s318 417.5 550 553.5s485 204 759 204c272.667 0 527.334 -68.833 764.001 -206.5s424.5 -323.834 563.5 -558.5
c139 -234.667 208.5 -489 208.5 -763c0 -274.667 -68 -528.5 -204 -761.5s-320.5 -417.5 -553.5 -553.5s-486.833 -204 -761.5 -204zM2241 1753c-30.667 150 -98.335 259.17 -203.001 327.503c-104.667 68.333 -227 102.5 -367 102.5c-130 0 -247 -34.833 -351 -104.5
s-185.333 -162.834 -244 -279.501s-89.667 -241.334 -93 -374.001c4.66699 -134.667 37.5 -260 98.5 -376s144.667 -210 251 -282s224.833 -112 355.5 -120c126.667 4.66699 241 43 343 115s172 184 210 336h225c-44 -201.333 -138.5 -358 -283.5 -470
s-320.833 -172.667 -527.5 -182c-172.667 6 -326.334 51.5 -461.001 136.5s-240.5 199 -317.5 342s-117.833 299.167 -122.5 468.5c10.667 81.333 16 142.666 16 183.999c11.333 162.667 63.333 306.167 156 430.5s201.834 219.5 327.501 285.5s238.834 99 339.501 99
c249.333 0 438.666 -47.333 567.999 -142s211.833 -189.5 247.5 -284.5s54.834 -165.833 57.501 -212.5h-225zM1663 82.0029c184 0 355.498 35.4971 514.498 106.497s297.333 169.667 415 296s208.5 271.833 272.5 436.5s96 338.334 96 521.001
c0 240 -58.167 460.5 -174.5 661.5s-275.166 359.5 -476.499 475.5s-422.333 174 -663 174c-240 0 -461.167 -58.167 -663.5 -174.5s-362.166 -274.5 -479.499 -474.5s-176 -420.667 -176 -662c0 -247.333 55.833 -474.166 167.5 -680.499s269.167 -370.166 472.5 -491.499
s435 -184 695 -188z" />
    <glyph glyph-name="ordfeminine" unicode="&#xaa;" horiz-adv-x="999" 
d="M823 1618c0 -0.666992 -5.33691 -17.001 -16.0039 -49.001c0 -11.333 11 -22.333 33 -33c76 26.667 182.333 93.667 319 201c10.667 10.667 21.667 16 33 16c16.667 -8 25 -27 25 -57c0 -32 -44.167 -80 -132.5 -144s-161.833 -103.333 -220.5 -118c-22 0 -41 -3 -57 -9
c-64.667 0 -101.667 37 -111 111c11.333 31.333 17 53.333 17 66c6.66699 24.667 16.667 49.334 30 74.001s23.666 42.334 30.999 53.001h-4c-137.333 -182 -279.333 -286 -426 -312c-43.333 6.66699 -77.166 19.667 -101.499 39s-41.666 42.833 -51.999 70.5
s-18.333 64 -24 109s-10.5 78.833 -14.5 101.5c7.33301 110 52.833 208.5 136.5 295.5s185.5 154.333 305.5 202s234.667 71.5 344 71.5c45.333 0 93.5 -5.16699 144.5 -15.5s76.5 -29.833 76.5 -58.5v-16c-11.333 -22 -25 -35.667 -41 -41
c-5.33301 5.33301 -9.33301 8 -12 8c-26 27.333 -80.667 41 -164 41c-14 0 -53.667 -5.33301 -119 -16c-62.667 -12 -137.167 -40 -223.5 -84s-162.333 -98 -228 -162s-102.167 -128.333 -109.5 -193c0 -21.333 -1.33301 -40.333 -4 -57
c2.66699 -57.333 10.5 -101.333 23.5 -132s42.167 -53.667 87.5 -69c28 4.66699 73 26.667 135 66c56.667 40 127.834 108.667 213.501 206s156.5 191 212.5 281c2 4 6.33301 9.5 13 16.5s17.334 12.5 32.001 16.5h49h49
c-71.333 -152.667 -154.666 -312.334 -249.999 -479.001z" />
    <glyph glyph-name="guillemotleft" unicode="&#xab;" horiz-adv-x="2048" 
d="M881 1303c34 26.667 95.333 40 184 40h61l-663 -638l426 -619c-27.333 0 -49.333 -1.33301 -66 -4c-81.333 4 -137.333 24.333 -168 61l-405 594zM1470 1303c22 26.667 111 40 267 40l-664 -622l422 -635c-30 0 -56 -1.33301 -78 -4c-80 4.66699 -130.333 25 -151 61
l-410 594z" />
    <glyph glyph-name="logicalnot" unicode="&#xac;" horiz-adv-x="2458" 
d="M504 1073h1450v-770h-148v635h-1302v135z" />
    <glyph glyph-name="registered" unicode="&#xae;" horiz-adv-x="3281" 
d="M1655 82c184 0 355.5 34.6641 514.5 103.997s297.167 165.666 414.5 288.999s208.166 266.833 272.5 430.5c64.333 163.667 96.5 336.834 96.5 519.501c0 240.667 -57.5 462.834 -172.5 666.501s-272.333 364.834 -472 483.501s-420.167 178 -661.5 178
c-242.667 0 -465.667 -56.333 -669 -169s-364 -270.167 -482 -472.5s-177 -431.166 -177 -686.499c0 -246.667 55.833 -471.667 167.5 -675s269.167 -364.5 472.5 -483.5s435.333 -180.5 696 -184.5zM1655 -94.0029c-208.667 0 -407.001 38.999 -595.001 116.999
s-352.667 186.5 -494 325.5s-252 300 -332 483s-121 375.5 -123 577.5c0 288.667 68.833 551 206.5 787s323.667 421.167 558 555.5s488.5 201.5 762.5 201.5s527.833 -68.833 761.5 -206.5s418.5 -325.167 554.5 -562.5s204 -495.666 204 -774.999
c0 -276 -65 -528.167 -195 -756.5s-309.667 -408.833 -539 -541.5s-485.666 -201 -768.999 -205zM1073 2327l742.001 0.000976562c161.333 -8 289.666 -55.833 384.999 -143.5s143 -207.834 143 -360.501c0 -84 -18.667 -164.667 -56 -242s-90.333 -140.333 -159 -189
s-146 -73 -232 -73l537 -799h-258l-512 799h-381v-799h-209v1807zM1282 2142v-639h430c281.333 0 422 109.333 422 328c0 104.667 -38.167 182.667 -114.5 234s-170.5 77 -282.5 77h-455z" />
    <glyph glyph-name="plusminus" unicode="&#xb1;" horiz-adv-x="2458" 
d="M1954 782h-660v-524h-135v524h-655v148h655v520h135v-520h660v-148zM504 0v143h1450v-143h-1450z" />
    <glyph glyph-name="twosuperior" unicode="&#xb2;" horiz-adv-x="1090" 
d="M455 999c-116 -68 -219.997 -102.003 -311.997 -102.003c-47.333 0 -85.666 14 -114.999 42s-44 64.667 -44 110c4 44.667 24.5 82.334 61.5 113.001s86.167 46 147.5 46c45.333 -7.33301 138 -37.333 278 -90c208.667 162 381 308.667 517 440
s225.667 260.666 269 387.999c11.333 45.333 17 79.333 17 102c0 79.333 -46.333 119 -139 119c-58 0 -111 -13 -159 -39s-104.833 -66 -170.5 -120s-110.167 -88.333 -133.5 -103c-2.66699 0 -8.16699 -2.16699 -16.5 -6.5s-16.5 -7.83301 -24.5 -10.5
c-9.33301 0 -20.333 19.333 -33 58c51.333 96.667 128.666 180.834 231.999 252.501s207.666 107.5 312.999 107.5c78 -4 144.5 -27.333 199.5 -70s82.5 -100 82.5 -172c0 -87.333 -53 -207.333 -159 -360c-52.667 -73.333 -108.5 -140.666 -167.5 -201.999
s-117.5 -116.666 -175.5 -165.999s-124.5 -102.333 -199.5 -159l-137.5 -104c91.333 -29.333 189.666 -48.333 294.999 -57c116 9.33301 217 31 303 65v-57c0 -40.667 -14.833 -69.834 -44.5 -87.501s-65.834 -29 -108.501 -34s-84.667 -9.5 -126 -13.5
c-163.333 10.667 -313.333 47.334 -450 110.001zM360.003 1057c-84 32.667 -153.333 48.999 -208 48.999c-44.667 0 -70.667 -19 -78 -57c3.33301 0 5.5 -1.16699 6.5 -3.5s1.5 -4.16602 1.5 -5.49902c0 -43.333 26 -65 78 -65c62 7.33301 128.667 29 200 65v17z" />
    <glyph glyph-name="threesuperior" unicode="&#xb3;" horiz-adv-x="1090" 
d="M774 1618c-14 0 -64.332 -5.33594 -150.999 -16.0029c-38 10 -63 17.833 -75 23.5s-24 20.834 -36 45.501c10.667 33.333 16 47 16 41c24.667 32.667 64.334 49 119.001 49c13.333 0 61.333 -5.33301 144 -16c105.333 49.333 189 108 251 176s93 129.333 93 184
c0 31.333 -16.5 53.5 -49.5 66.5s-67.167 19.5 -102.5 19.5c-146.667 -15.333 -247.667 -57.666 -303 -127c-26 -32.667 -60 -49 -102 -49c-14.667 0 -31.334 8.33301 -50.001 25c11.333 30 17 43.667 17 41c32.667 71.333 95.834 128.666 189.501 172
c93.667 43.333 184.834 65 273.501 65c70 0 133.167 -16 189.5 -48s84.5 -87 84.5 -165c-4 -75.333 -46.667 -154.833 -128 -238.5s-167 -143.167 -257 -178.5c47.333 -30.667 85.833 -65.167 115.5 -103.5s44.5 -94.166 44.5 -167.499
c-6 -84.667 -40.833 -165.167 -104.5 -241.5s-145.834 -137.666 -246.501 -183.999s-205 -69.5 -313 -69.5c-192 0 -298.333 95.333 -319 286c2.66699 22.667 4.83398 42.167 6.50098 58.5s6.5 30.5 14.5 42.5s21.333 18 40 18c17.333 0 31.666 -1 42.999 -3
s19 -3.66699 23 -5c0 -22 -2.66699 -42.667 -8 -62c11.333 -94 24.666 -149.667 39.999 -167c12.667 -21.333 29.167 -34.833 49.5 -40.5s57.166 -11.5 110.499 -17.5c70 0 144.5 15.333 223.5 46s146.167 76.5 201.5 137.5s84.333 133.833 87 218.5
c0 54 -13 98.167 -39 132.5s-56.667 51.5 -92 51.5v0z" />
    <glyph glyph-name="acute" unicode="&#xb4;" horiz-adv-x="913" 
d="M401 1720l439 545h258l-553 -545h-144z" />
    <glyph glyph-name="paragraph" unicode="&#xb6;" horiz-adv-x="2458" 
d="M1016 1282c-120 0 -253 33.667 -399 101s-220.667 208.333 -224 423c10 123.333 25 223 45 299c43.333 146.667 113.5 270.334 210.5 371c97 100.667 204.167 179.334 321.5 236c117.333 56.667 226.833 96 328.5 118s183.5 33 245.5 33h967l-967 -2838l-278 -807h-201
l967 2838l217 631h-545l-967 -2839l-217 -630h-201z" />
    <glyph glyph-name="periodcentered" unicode="&#xb7;" horiz-adv-x="913" 
d="M319 553c-54 0 -85.3311 37 -93.998 111c5.33301 16 8 35 8 57c15.333 44 42.166 81.667 80.499 113s77.166 47 116.499 47c29.333 0 53 -9.5 71 -28.5s27 -45.167 27 -78.5c0 -56 -21.167 -106.833 -63.5 -152.5s-90.833 -68.5 -145.5 -68.5z" />
    <glyph glyph-name="cedilla" unicode="&#xb8;" horiz-adv-x="913" 
d="M-270 -328l84.001 180.497l84 180.5h94l-135 -250c5.33301 0 16 2.66699 32 8c254 -25.333 381 -112.666 381 -261.999c0 -91.333 -42.167 -162.666 -126.5 -213.999s-182.833 -77 -295.5 -77c-94.667 3.33301 -181.334 16.833 -260.001 40.5s-134 42.834 -166 57.501
l66 95l115.5 -57c29.667 -14.667 63.5 -26 101.5 -34s88.667 -12 152 -12c69.333 0 124.833 15.833 166.5 47.5s62.5 71.834 62.5 120.501c0 117.333 -82 181.666 -246 192.999c-69.333 -11.333 -106 -17 -110 -17z" />
    <glyph glyph-name="onesuperior" unicode="&#xb9;" horiz-adv-x="913" 
d="M279 922l-159.999 -0.000976562c63.333 80.667 126.666 175.167 189.999 283.5s127.333 225.166 192 350.499l212 410c-136 -90 -225 -135 -267 -135c-2.66699 0 -5.5 3.5 -8.5 10.5s-5.5 11.5 -7.5 13.5c7.33301 40 27.666 72.5 60.999 97.5s82.5 54.333 147.5 88
s108.833 60.834 131.5 81.5c10.667 10.667 27.334 35.167 50.001 73.5s45.334 68.333 68.001 90s51.667 32.5 87 32.5c49.333 0 74 -15 74 -45c-2.66699 -16.667 -12.334 -36.667 -29.001 -60s-36 -47.666 -58 -72.999l-65 -76c-4 -5.33301 -47.333 -94.166 -130 -266.499
s-167 -338.833 -253 -499.5s-164.333 -286 -235 -376z" />
    <glyph glyph-name="ordmasculine" unicode="&#xba;" horiz-adv-x="815" 
d="M696 2351h25c30 0 47.667 -5.33301 53 -16v-25c0 -35.333 -28.667 -53 -86 -53c-115.333 -24.667 -200.833 -79.334 -256.5 -164.001s-109.5 -200.667 -161.5 -348c0 -49.333 11.167 -98.333 33.5 -147s63.166 -74.667 122.499 -78c75.333 18.667 146.666 58 213.999 118
s121.5 131.333 162.5 214s61.5 164.334 61.5 245.001v37l-13.5 31c-3.66699 8.66699 -7.16699 14.667 -10.5 18c8.66699 27.333 22.334 41 41.001 41c22.667 0 39.834 -16.167 51.501 -48.5s17.5 -63.833 17.5 -94.5c0 -89.333 -27.167 -184 -81.5 -284
s-127.166 -184.167 -218.499 -252.5s-188 -102.5 -290 -102.5l-16 -8c-116.667 0 -178 95.333 -184 286c10.667 65.333 16 113.333 16 144c19.333 110 87.666 214 204.999 312s222.333 156.333 315 175z" />
    <glyph glyph-name="guillemotright" unicode="&#xbb;" horiz-adv-x="2048" 
d="M1024 135c-26.667 -22 -91.001 -38.333 -193.001 -49c-16 5.33301 -35 8 -57 8l668 643l-426 615h57c84.667 0 143.334 -19.333 176.001 -58l406 -581zM429.999 143c-19.333 -32.667 -106.667 -49 -262 -49l663 635l-421 623h69c80.667 0 134 -19.333 160 -58l410 -589z
" />
    <glyph glyph-name="onequarter" unicode="&#xbc;" horiz-adv-x="2728" 
d="M352 -16h-135l1913 2334h143zM279 922l-159.999 -0.000976562c63.333 80.667 126.666 175.167 189.999 283.5s127.333 225.166 192 350.499l212 410c-136 -90 -225 -135 -267 -135c-2.66699 0 -5.5 3.5 -8.5 10.5s-5.5 11.5 -7.5 13.5
c7.33301 40 27.666 72.5 60.999 97.5s82.5 54.333 147.5 88s108.833 60.834 131.5 81.5c10.667 10.667 27.334 35.167 50.001 73.5s45.334 68.333 68.001 90s51.667 32.5 87 32.5c49.333 0 74 -15 74 -45c-2.66699 -16.667 -12.334 -36.667 -29.001 -60
s-36 -47.666 -58 -72.999l-65 -76c-4 -5.33301 -47.333 -94.166 -130 -266.499s-167 -338.833 -253 -499.5s-164.333 -286 -235 -376zM2064 437.999c-9.33301 4.66699 -61.832 12.665 -157.499 23.998s-168.5 17 -218.5 17c-31.333 0 -75.5 -20.833 -132.5 -62.5
s-92.167 -65.834 -105.5 -72.501c-32.667 8 -49 27 -49 57c6 60.667 70 116.667 192 168c16 5.33301 49.667 45.833 101 121.5s99.666 158.167 144.999 247.5c39.333 75.333 76.833 151.666 112.5 228.999l88.5 193c4.66699 10 9.16699 21.5 13.5 34.5s9 22.833 14 29.5
s12.167 12.667 21.5 18h33c40.667 0 61 -11 61 -33c0 -15.333 -16.333 -57.666 -49 -126.999c-55.333 -113.333 -126.166 -246.666 -212.499 -399.999s-153.5 -257.666 -201.5 -312.999c23.333 -10.667 135.333 -24.334 336 -41.001c22 6 44 9 66 9
c212 395.333 336 622 372 680c0 5.33301 11 8 33 8c19.333 0 37.166 -2.16699 53.5 -6.5c16.333 -4.33301 28.5 -7.83301 36.5 -10.5l-385 -680c19.333 -6 48.166 -9.66699 86.5 -11c38.333 -1.33301 62.833 -3 73.5 -5h57c30 0 45 -8.33301 45 -25
c0 -32 -28.667 -55 -86 -69c-10.667 5.33301 -21.334 8 -32 8c-52 2.66699 -116.333 4 -193 4c-8.66699 -12.667 -36 -70.167 -82 -172.5s-77.333 -169.166 -94 -200.499c-24.667 -48.667 -53.334 -73 -86.001 -73c-30.667 0 -49.667 10.667 -57 32
c10.667 22.667 16 36.334 16 41.001c26.667 64.667 64 144 112 238s72 141.667 72 143z" />
    <glyph glyph-name="onehalf" unicode="&#xbd;" horiz-adv-x="2728" 
d="M1688 111c-112.667 -63.333 -214 -94.9961 -304 -94.9961c-48.667 0 -87.334 13.5 -116.001 40.5s-43 64.167 -43 111.5c4 43.333 24.5 80.833 61.5 112.5s86.167 47.5 147.5 47.5c32.667 -6 63.5 -13.333 92.5 -22s60.333 -19 94 -31l91.5 -33
c212.667 164 385.834 309.833 519.501 437.5s221.167 256.167 262.5 385.5c11.333 51.333 17 85.333 17 102c0 38.667 -14.5 67.5 -43.5 86.5s-62.5 28.5 -100.5 28.5c-58.667 0 -109.334 -12.333 -152 -37c-42.667 -24.667 -94.334 -62.5 -155.001 -113.5
s-109.667 -86.833 -147 -107.5c-0.666992 0 -11.667 -5.33301 -33 -16c-32.667 8 -49 24.333 -49 49c10.667 21.333 16 32.333 16 33c172.667 218 351.667 327 537.001 327c72.667 0 137.167 -21.833 193.5 -65.5s84.5 -99.5 84.5 -167.5c0 -97.333 -53 -220.333 -159 -369
c-89.333 -124 -186.5 -230.333 -291.5 -319s-234.5 -189.667 -388.5 -303c124 -38.667 223.667 -58 299 -58c87.333 0 188.333 22 303 66v-58c0 -40.667 -15.167 -69.834 -45.5 -87.501s-78 -29.834 -143 -36.501s-99.167 -10.334 -102.5 -11.001
c-161.333 11.333 -310 45.666 -446 102.999zM1602 168.004c-118.667 38 -188.333 56.999 -209 56.999c-54.667 -6.66699 -82 -31 -82 -73c7.33301 -38.667 37.333 -58 90 -58c30.667 0 67 7.33301 109 22s72.667 29.334 92 44.001v8zM352.001 -15.9971h-135l1913 2334h143z
M258.001 913.003l-163.997 -0.00195312c50.667 66 102.5 142.667 155.5 230s101.167 171.333 144.5 252l136.5 261.5l157.5 309.5c-119.333 -85.333 -205.333 -133 -258 -143c-11.333 14.667 -18 25.334 -20 32.001c6 40.667 25.5 73.334 58.5 98.001s81.833 54 146.5 88
s108 61 130 81c9.33301 8 26.166 31.5 50.499 70.5s47.5 69 69.5 90s50.333 32.833 85 35.5c14.667 0 30.667 -4.5 48 -13.5s26 -19.5 26 -31.5c-2.66699 -19.333 -12.334 -41 -29.001 -65s-36 -48.167 -58 -72.5l-65 -71.5l-147 -310
c-71.333 -150 -149.833 -305.667 -235.5 -467s-162.834 -286 -231.501 -374z" />
    <glyph glyph-name="threequarters" unicode="&#xbe;" horiz-adv-x="2728" 
d="M561 -16h-143l1917 2334h139zM2159 438c-8.66699 4 -58.1689 10.499 -148.502 19.499s-162.5 13.5 -216.5 13.5c-28 0 -55 -6.66699 -81 -20s-57 -32.5 -93 -57.5s-61.333 -41.5 -76 -49.5c-32.667 8 -49 27 -49 57c3.33301 34.667 26.5 67.334 69.5 98.001
s84.167 51.334 123.5 62.001c18 10 52.333 52.5 103 127.5s99.334 158.167 146.001 249.5l113 233l84 181c19.333 60 49.333 90 90 90c38 0 57 -11 57 -33c0 -10 -16.333 -55 -49 -135c-209.333 -393.333 -348.333 -631 -417 -713c6 0 49.833 -6 131.5 -18
s144.167 -19.667 187.501 -23c18 2.66699 35.333 6.16699 52 10.5s26.667 6.5 30 6.5c10 16.667 71.5 128.667 184.5 336s177.167 322 192.5 344c2.66699 1.33301 7 3 13 5s12.667 3 20 3c19.333 0 38.5 -3.16699 57.5 -9.5s28.5 -11.5 28.5 -15.5l-124.5 -217l-145 -256.5
l-115.5 -198.5c19.333 -6 47.833 -9.66699 85.5 -11s62.167 -3 73.5 -5h49c38.667 0 58 -11 58 -33c0 -40.667 -39.667 -61 -119 -61c-82 8 -146.333 12 -193 12c-9.33301 -14.667 -37.666 -74.334 -85 -179.001c-47.333 -104.667 -77.666 -169.334 -90.999 -194.001
c-24.667 -48.667 -54.667 -73 -90 -73c-32 0 -49.667 10.667 -53 32c1.33301 7.33301 3.66602 15.5 6.99902 24.5s5 14.5 5 16.5c24.667 56 61.667 132.833 111 230.5s74 147.834 74 150.501zM736.998 1618c-24.667 0 -72.3291 -5.33398 -142.996 -16.001
c-40.667 10 -67.334 17.833 -80.001 23.5s-27 20.834 -43 45.501c10.667 33.333 16 47 16 41c24.667 32.667 67 49 127 49c5.33301 0 52 -5.33301 140 -16c103.333 49.333 186.5 108.166 249.5 176.499s94.5 129.5 94.5 183.5c0 31.333 -17 53.5 -51 66.5
s-69 19.5 -105 19.5c-146.667 -15.333 -247.667 -57.666 -303 -127c-26 -32.667 -60 -49 -102 -49c-14.667 0 -31.334 8.33301 -50.001 25c11.333 30 17 43.667 17 41c34.667 71.333 98.5 128.666 191.5 171.999s183.5 65 271.5 65c71.333 0 134.833 -16 190.5 -48
s83.5 -87 83.5 -165c-4 -75.333 -46.667 -154.833 -128 -238.5s-167 -143.167 -257 -178.5c47.333 -28.667 85.833 -62.167 115.5 -100.5s44.5 -95.166 44.5 -170.499c-6 -84.667 -40.833 -165.167 -104.5 -241.5s-145.834 -137.666 -246.501 -183.999
s-205 -69.5 -313 -69.5c-188 0 -294.333 95.333 -319 286c1.33301 4 4.16602 19.333 8.49902 46s10.5 45.5 18.5 56.5s22 16.5 42 16.5c14 0 26.167 -1 36.5 -3s17.5 -3.66699 21.5 -5c0 -22 -2.66699 -42.667 -8 -62c11.333 -93.333 25 -149 41 -167
c13.333 -21.333 30 -34.833 50 -40.5s56.333 -11.5 109 -17.5c70 0 144.5 15.333 223.5 46s146.167 76.5 201.5 137.5s84.333 133.833 87 218.5v8c0 54 -15 96.833 -45 128.5s-57.333 47.5 -82 47.5z" />
    <glyph glyph-name="questiondown" unicode="&#xbf;" horiz-adv-x="1286" 
d="M950 1462c60 0 89.999 -31.333 89.999 -94c0 -53.333 -22.333 -105.5 -67 -156.5s-94.667 -76.5 -150 -76.5c-48 0 -76.667 32.667 -86 98c24 72 50.833 128.167 80.5 168.5s73.834 60.5 132.501 60.5zM806.999 754c-40 -94.667 -96.501 -185.67 -169.501 -273.003
s-171.333 -193.166 -295 -317.499s-220.834 -229.666 -291.501 -315.999s-124.667 -177.5 -162 -273.5c-16 -52.667 -24 -100.334 -24 -143.001c0 -134.667 61.333 -214 184 -238c76.667 0 147.834 17.5 213.501 52.5s120.167 76 163.5 123s69.333 84.167 78 111.5
c14.667 67.333 51.334 107 110.001 119c14 0 27.167 -7.16699 39.5 -21.5s18.5 -33.166 18.5 -56.499c0 -80.667 -33.833 -156.334 -101.5 -227.001s-149.5 -127 -245.5 -169s-182.333 -63 -259 -63c-100.667 0 -186 35.833 -256 107.5s-105 158.834 -105 261.501
c0 109.333 39.667 229.333 119 360c49.333 78.667 104.666 149.167 165.999 211.5l275 267c122 115.667 212.833 210.334 272.5 284.001s98.834 147.167 117.501 220.5c32 104 71.667 156 119 156c32.667 0 49 -30 49 -90c0 -20 -5.33301 -48.667 -16 -86z" />
    <glyph glyph-name="Agrave" unicode="&#xc0;" horiz-adv-x="2281" 
d="M287 1106c114 200.667 279.336 436.832 496.003 708.499s442.667 508.167 678 709.5s439.333 309 612 323c196 0 294 -82 294 -246c0 -92 -50.333 -287.333 -151 -586l-139.5 -407c-80.333 -234.667 -141.833 -427.834 -184.5 -579.501s-77.834 -310 -105.501 -475
s-41.5 -327.5 -41.5 -487.5c0 -66 -38.333 -99 -115 -99c-67.333 0 -104 33 -110 99c0 8.66699 1.33301 47.334 4 116.001s4 109 4 121c-28 106.667 -75.667 204.5 -143 293.5s-180.333 167.333 -339 235s-373.667 107.167 -645 118.5
c-97.333 -126 -244.666 -415.333 -441.999 -868c-16 -48.667 -33 -77.167 -51 -85.5s-77.333 -12.5 -178 -12.5c33.333 96.667 95.166 245 185.499 445s185.5 373.667 285.5 521c-100 0 -217.667 -9.33301 -353 -28c-23.333 4 -37.333 9.83301 -42 17.5s-7 24.834 -7 51.501
c3.33301 41.333 18.166 68.333 44.499 81s73.166 24 140.499 34h127h176zM1593 593.998c26 126.667 63.834 275.835 113.501 447.502s101 339.667 154 504l166.5 508c58 174.333 92.333 281.833 103 322.5c4 23.333 9.16699 47.666 15.5 73
c6.33301 25.333 11.5 49.833 15.5 73.5s6 44.5 6 62.5c0 62.667 -26 94 -78 94c-73.333 0 -188 -53.333 -344 -160c-163.333 -112.667 -334.833 -260.834 -514.5 -444.501s-338.334 -366.667 -476.001 -549s-226.834 -324.833 -267.501 -427.5
c147.333 -17.333 252 -30.333 314 -39s141.833 -28.834 239.5 -60.501s195.334 -80.5 293.001 -146.5s184.167 -152 259.5 -258zM1704 3506h258l439 -545h-144z" />
    <glyph glyph-name="Aacute" unicode="&#xc1;" horiz-adv-x="2281" 
d="M287 1106c114 200.667 279.336 436.832 496.003 708.499s442.667 508.167 678 709.5s439.333 309 612 323c196 0 294 -82 294 -246c0 -92 -50.333 -287.333 -151 -586l-139.5 -407c-80.333 -234.667 -141.833 -427.834 -184.5 -579.501s-77.834 -310 -105.501 -475
s-41.5 -327.5 -41.5 -487.5c0 -66 -38.333 -99 -115 -99c-67.333 0 -104 33 -110 99c0 8.66699 1.33301 47.334 4 116.001s4 109 4 121c-28 106.667 -75.667 204.5 -143 293.5s-180.333 167.333 -339 235s-373.667 107.167 -645 118.5
c-97.333 -126 -244.666 -415.333 -441.999 -868c-16 -48.667 -33 -77.167 -51 -85.5s-77.333 -12.5 -178 -12.5c33.333 96.667 95.166 245 185.499 445s185.5 373.667 285.5 521c-100 0 -217.667 -9.33301 -353 -28c-23.333 4 -37.333 9.83301 -42 17.5s-7 24.834 -7 51.501
c3.33301 41.333 18.166 68.333 44.499 81s73.166 24 140.499 34h127h176zM1593 593.998c26 126.667 63.834 275.835 113.501 447.502s101 339.667 154 504l166.5 508c58 174.333 92.333 281.833 103 322.5c4 23.333 9.16699 47.666 15.5 73
c6.33301 25.333 11.5 49.833 15.5 73.5s6 44.5 6 62.5c0 62.667 -26 94 -78 94c-73.333 0 -188 -53.333 -344 -160c-163.333 -112.667 -334.833 -260.834 -514.5 -444.501s-338.334 -366.667 -476.001 -549s-226.834 -324.833 -267.501 -427.5
c147.333 -17.333 252 -30.333 314 -39s141.833 -28.834 239.5 -60.501s195.334 -80.5 293.001 -146.5s184.167 -152 259.5 -258zM1970 2953l439 545h258l-553 -545h-144z" />
    <glyph glyph-name="Acircumflex" unicode="&#xc2;" horiz-adv-x="2281" 
d="M287 1106c114 200.667 279.336 436.832 496.003 708.499s442.667 508.167 678 709.5s439.333 309 612 323c196 0 294 -82 294 -246c0 -92 -50.333 -287.333 -151 -586l-139.5 -407c-80.333 -234.667 -141.833 -427.834 -184.5 -579.501s-77.834 -310 -105.501 -475
s-41.5 -327.5 -41.5 -487.5c0 -66 -38.333 -99 -115 -99c-67.333 0 -104 33 -110 99c0 8.66699 1.33301 47.334 4 116.001s4 109 4 121c-28 106.667 -75.667 204.5 -143 293.5s-180.333 167.333 -339 235s-373.667 107.167 -645 118.5
c-97.333 -126 -244.666 -415.333 -441.999 -868c-16 -48.667 -33 -77.167 -51 -85.5s-77.333 -12.5 -178 -12.5c33.333 96.667 95.166 245 185.499 445s185.5 373.667 285.5 521c-100 0 -217.667 -9.33301 -353 -28c-23.333 4 -37.333 9.83301 -42 17.5s-7 24.834 -7 51.501
c3.33301 41.333 18.166 68.333 44.499 81s73.166 24 140.499 34h127h176zM1593 593.998c26 126.667 63.834 275.835 113.501 447.502s101 339.667 154 504l166.5 508c58 174.333 92.333 281.833 103 322.5c4 23.333 9.16699 47.666 15.5 73
c6.33301 25.333 11.5 49.833 15.5 73.5s6 44.5 6 62.5c0 62.667 -26 94 -78 94c-73.333 0 -188 -53.333 -344 -160c-163.333 -112.667 -334.833 -260.834 -514.5 -444.501s-338.334 -366.667 -476.001 -549s-226.834 -324.833 -267.501 -427.5
c147.333 -17.333 252 -30.333 314 -39s141.833 -28.834 239.5 -60.501s195.334 -80.5 293.001 -146.5s184.167 -152 259.5 -258zM1561 2953l537 545h217l364 -545h-127l-352 414l-528 -414h-111z" />
    <glyph glyph-name="Atilde" unicode="&#xc3;" horiz-adv-x="2281" 
d="M287 1106c114 200.667 279.336 436.832 496.003 708.499s442.667 508.167 678 709.5s439.333 309 612 323c196 0 294 -82 294 -246c0 -92 -50.333 -287.333 -151 -586l-139.5 -407c-80.333 -234.667 -141.833 -427.834 -184.5 -579.501s-77.834 -310 -105.501 -475
s-41.5 -327.5 -41.5 -487.5c0 -66 -38.333 -99 -115 -99c-67.333 0 -104 33 -110 99c0 8.66699 1.33301 47.334 4 116.001s4 109 4 121c-28 106.667 -75.667 204.5 -143 293.5s-180.333 167.333 -339 235s-373.667 107.167 -645 118.5
c-97.333 -126 -244.666 -415.333 -441.999 -868c-16 -48.667 -33 -77.167 -51 -85.5s-77.333 -12.5 -178 -12.5c33.333 96.667 95.166 245 185.499 445s185.5 373.667 285.5 521c-100 0 -217.667 -9.33301 -353 -28c-23.333 4 -37.333 9.83301 -42 17.5s-7 24.834 -7 51.501
c3.33301 41.333 18.166 68.333 44.499 81s73.166 24 140.499 34h127h176zM1593 593.998c26 126.667 63.834 275.835 113.501 447.502s101 339.667 154 504l166.5 508c58 174.333 92.333 281.833 103 322.5c4 23.333 9.16699 47.666 15.5 73
c6.33301 25.333 11.5 49.833 15.5 73.5s6 44.5 6 62.5c0 62.667 -26 94 -78 94c-73.333 0 -188 -53.333 -344 -160c-163.333 -112.667 -334.833 -260.834 -514.5 -444.501s-338.334 -366.667 -476.001 -549s-226.834 -324.833 -267.501 -427.5
c147.333 -17.333 252 -30.333 314 -39s141.833 -28.834 239.5 -60.501s195.334 -80.5 293.001 -146.5s184.167 -152 259.5 -258zM1651 3043c8.66699 52 34.6689 116.832 78.002 194.499s115.666 116.5 216.999 116.5c41.333 0 89.666 -9.5 144.999 -28.5l164.5 -57
c54.333 -19 102.5 -28.5 144.5 -28.5c39.333 0 72.333 5.33301 99 16s47.167 24 61.5 40s26 35.167 35 57.5l22.5 54.5h94c-6 -68 -19.333 -122.333 -40 -163s-44.167 -70.5 -70.5 -89.5s-56.666 -32.833 -91 -41.5c-34.333 -8.66699 -60.166 -14.667 -77.5 -18
c-52.667 0 -102.334 6.83301 -149 20.5c-46.667 13.667 -105.5 32.834 -176.5 57.501s-119.5 37 -145.5 37c-112 0 -178.667 -56 -200 -168h-111z" />
    <glyph glyph-name="Adieresis" unicode="&#xc4;" horiz-adv-x="2281" 
d="M287 1106c114 200.667 279.336 436.832 496.003 708.499s442.667 508.167 678 709.5s439.333 309 612 323c196 0 294 -82 294 -246c0 -92 -50.333 -287.333 -151 -586l-139.5 -407c-80.333 -234.667 -141.833 -427.834 -184.5 -579.501s-77.834 -310 -105.501 -475
s-41.5 -327.5 -41.5 -487.5c0 -66 -38.333 -99 -115 -99c-67.333 0 -104 33 -110 99c0 8.66699 1.33301 47.334 4 116.001s4 109 4 121c-28 106.667 -75.667 204.5 -143 293.5s-180.333 167.333 -339 235s-373.667 107.167 -645 118.5
c-97.333 -126 -244.666 -415.333 -441.999 -868c-16 -48.667 -33 -77.167 -51 -85.5s-77.333 -12.5 -178 -12.5c33.333 96.667 95.166 245 185.499 445s185.5 373.667 285.5 521c-100 0 -217.667 -9.33301 -353 -28c-23.333 4 -37.333 9.83301 -42 17.5s-7 24.834 -7 51.501
c3.33301 41.333 18.166 68.333 44.499 81s73.166 24 140.499 34h127h176zM1593 593.998c26 126.667 63.834 275.835 113.501 447.502s101 339.667 154 504l166.5 508c58 174.333 92.333 281.833 103 322.5c4 23.333 9.16699 47.666 15.5 73
c6.33301 25.333 11.5 49.833 15.5 73.5s6 44.5 6 62.5c0 62.667 -26 94 -78 94c-73.333 0 -188 -53.333 -344 -160c-163.333 -112.667 -334.833 -260.834 -514.5 -444.501s-338.334 -366.667 -476.001 -549s-226.834 -324.833 -267.501 -427.5
c147.333 -17.333 252 -30.333 314 -39s141.833 -28.834 239.5 -60.501s195.334 -80.5 293.001 -146.5s184.167 -152 259.5 -258zM1811 3322c35.333 0 65.333 -11.499 90 -34.499s37 -53.833 37 -92.5c0 -37.333 -12.333 -67.166 -37 -89.5
c-24.667 -22.333 -54.667 -33.5 -90 -33.5c-38 0 -69.333 11.167 -94 33.5s-37 52.166 -37 89.499c0 38.667 12.333 69.5 37 92.5s56 34.5 94 34.5zM2544 3322c34.667 0 64.5 -11.667 89.5 -35s37.5 -54 37.5 -92c0 -36.667 -12.5 -66.334 -37.5 -89
c-25 -22.667 -54.833 -34 -89.5 -34c-36 0 -66.167 11.333 -90.5 34s-36.5 52.334 -36.5 89c0 38.667 12.167 69.5 36.5 92.5s54.5 34.5 90.5 34.5z" />
    <glyph glyph-name="Aring" unicode="&#xc5;" horiz-adv-x="2281" 
d="M287 1106c114 200.667 279.336 436.832 496.003 708.499s442.667 508.167 678 709.5s439.333 309 612 323c196 0 294 -82 294 -246c0 -92 -50.333 -287.333 -151 -586l-139.5 -407c-80.333 -234.667 -141.833 -427.834 -184.5 -579.501s-77.834 -310 -105.501 -475
s-41.5 -327.5 -41.5 -487.5c0 -66 -38.333 -99 -115 -99c-67.333 0 -104 33 -110 99c0 8.66699 1.33301 47.334 4 116.001s4 109 4 121c-28 106.667 -75.667 204.5 -143 293.5s-180.333 167.333 -339 235s-373.667 107.167 -645 118.5
c-97.333 -126 -244.666 -415.333 -441.999 -868c-16 -48.667 -33 -77.167 -51 -85.5s-77.333 -12.5 -178 -12.5c33.333 96.667 95.166 245 185.499 445s185.5 373.667 285.5 521c-100 0 -217.667 -9.33301 -353 -28c-23.333 4 -37.333 9.83301 -42 17.5s-7 24.834 -7 51.501
c3.33301 41.333 18.166 68.333 44.499 81s73.166 24 140.499 34h127h176zM1593 593.998c26 126.667 63.834 275.835 113.501 447.502s101 339.667 154 504l166.5 508c58 174.333 92.333 281.833 103 322.5c4 23.333 9.16699 47.666 15.5 73
c6.33301 25.333 11.5 49.833 15.5 73.5s6 44.5 6 62.5c0 62.667 -26 94 -78 94c-73.333 0 -188 -53.333 -344 -160c-163.333 -112.667 -334.833 -260.834 -514.5 -444.501s-338.334 -366.667 -476.001 -549s-226.834 -324.833 -267.501 -427.5
c147.333 -17.333 252 -30.333 314 -39s141.833 -28.834 239.5 -60.501s195.334 -80.5 293.001 -146.5s184.167 -152 259.5 -258zM2183 3027c78 0 143.333 25 196 75s79 112.333 79 187c0 72.667 -26.333 134.5 -79 185.5s-118 76.5 -196 76.5
c-75.333 0 -139.166 -25.5 -191.499 -76.5s-78.5 -112.833 -78.5 -185.5c0 -74.667 26.167 -137 78.5 -187s116.166 -75 191.499 -75zM2183 2888c-108 0 -201.168 38.832 -279.501 116.499s-117.5 172.5 -117.5 284.5c0 108 39.333 200.5 118 277.5
s171.667 115.5 279.001 115.5c112.667 0 207.834 -38.167 285.5 -114.5c77.667 -76.333 116.5 -169.166 116.5 -278.499c0 -74.667 -17.667 -142.5 -53 -203.5s-83.5 -109.167 -144.5 -144.5s-129.167 -53 -204.5 -53z" />
    <glyph glyph-name="AE" unicode="&#xc6;" horiz-adv-x="3490" 
d="M344 1208c95.333 167.333 206.502 332.163 333.502 494.496s259.833 313.833 398.5 454.5s274.834 264.5 408.501 371.5s254.5 189.833 362.5 248.5c107.333 57.333 208.333 86 302.999 86c177.333 0 277 -92.667 299 -278c52 40.667 133.333 93.334 244 158
c110.667 64.667 218 102 322 112c130.667 0 239.667 -24.5 327 -73.5s131 -117.5 131 -205.5c0 -16 -5.33301 -46 -16 -90c-37.333 -93.333 -84.5 -179.333 -141.5 -258s-131.333 -170.667 -223 -276s-157.167 -185.333 -196.5 -240
c-4.66699 -9.33301 -18.334 -20.333 -41 -33c-16.667 0 -34 13.333 -52 40s-29.333 53 -34 79c3.33301 11.333 5.5 19.333 6.5 24s1.5 7.66699 1.5 9c14.667 34.667 79.167 118.667 193.5 252s197.5 233.333 249.5 300s80.333 123 85 169c0 90 -72.333 135 -217 135
c-164.667 0 -325.334 -50.833 -482.001 -152.5s-284.667 -233.167 -384 -394.5s-152 -323 -158 -485c9.33301 -120.667 38 -216.334 86 -287.001c54.667 -70 82 -128.667 82 -176c0 -20.667 -5.16699 -39.167 -15.5 -55.5s-27 -34.666 -50 -54.999
s-35.167 -31.166 -36.5 -32.499l-196.5 -133c-83.667 -57.333 -159.167 -126.833 -226.5 -208.5s-102.333 -171.5 -105 -269.5c11.333 -76 29 -136 53 -180c34 -61.333 111.667 -96.666 233 -105.999c60.667 4.66699 161.667 21 303.001 49c85.333 20 189 66.5 311 139.5
s230.5 155.833 325.5 248.5s151.833 176.334 170.5 251.001c8 4 22.167 9 42.5 15s44.5 9 72.5 9c32 0 60.667 -8 86 -24c-17.333 -61.333 -64 -137.666 -140 -228.999s-170.333 -181.166 -283 -269.499s-237 -164.666 -373 -228.999s-273.333 -104.5 -412 -120.5
c-54.667 -5.33301 -94.334 -8 -119.001 -8c-155.333 0 -268.833 37.333 -340.5 112s-109.834 168.334 -114.501 281.001c0 139.333 32.833 253.166 98.5 341.499s120.167 147.833 163.5 178.5c-82.667 6 -229 25.667 -439 59s-366.833 57.166 -470.5 71.499
s-211.5 21.5 -323.5 21.5l-137 -255.5c-62 -117.667 -129.5 -252.834 -202.5 -405.501s-122.167 -271 -147.5 -355c0 -22 -31.333 -33 -94 -33c-54.667 0 -82 19 -82 57c2.66699 36 39.167 128.5 109.5 277.5l202.5 413.5l147 284l-172 -16.5l-172 -16.5
c-27.333 0 -41 19.333 -41 58c0 32 9.16699 61.167 27.5 87.5s40.5 39.5 66.5 39.5l106.5 6.5l89 5.5l98 6zM561.002 1208c44 0 109.167 -6.66699 195.5 -20s188 -30.5 305 -51.5s220.167 -38.333 309.5 -52s169 -22.834 239 -27.501c85.333 0 181 11.833 287 35.5
s159 67.834 159 132.501c0 30.667 -8 56.667 -24 78c-76 128 -118.333 267 -127 417c8 224 77.667 411 209 561c100.667 118.667 151 222.667 151 312c0 62.667 -41 94 -123 94h-69c-120.667 -28.667 -281 -123.167 -481 -283.5s-396.5 -351.333 -589.5 -573
s-340.167 -429.167 -441.5 -622.5z" />
    <glyph glyph-name="Ccedilla" unicode="&#xc7;" horiz-adv-x="2200" 
d="M537 8c-7.33301 4 -21.666 10.1631 -42.999 18.4961s-37.333 15.833 -48 22.5c-129.333 57.333 -226.833 149.5 -292.5 276.5s-100.5 275.167 -104.5 444.5c4 158 32.5 321.833 85.5 491.5s125.5 328.167 217.5 475.5c119.333 189.333 256.833 368 412.5 536
s326.167 305.667 511.5 413s373 161 563 161c146.667 0 257.834 -40 333.501 -120s113.5 -193 113.5 -339c0 -35.333 -1.66699 -62.666 -5 -82c-4.66699 -95.333 -42.334 -202.5 -113 -321.5c-70.667 -119 -151 -227.833 -241 -326.5s-164.333 -168 -223 -208
c-90.667 -62.667 -197.334 -126 -320.001 -190s-214 -97.667 -274 -101c-20.667 0 -35.667 13.667 -45 41c5.33301 11.333 8 22.333 8 33c14 50.667 31.167 84.834 51.5 102.501s61.5 36.334 123.5 56.001s115.667 39.167 161 58.5
c111.333 48 222.666 120.833 333.999 218.5s202.333 207.167 273 328.5s106 242 106 362c0 96.667 -22.167 178.167 -66.5 244.5s-119.166 99.5 -224.499 99.5c-108 0 -228.333 -31.333 -361 -94c-183.333 -86.667 -350.833 -207.5 -502.5 -362.5
s-279.334 -314.833 -383.001 -479.5s-181.167 -308.667 -232.5 -432c-70.667 -157.333 -110.334 -344.333 -119.001 -561c6 -164.667 44.833 -303.667 116.5 -417s187.167 -181.666 346.5 -204.999c30 -6 73.667 -9 131 -9c156 0 293.5 36.833 412.5 110.5
s211.5 152.5 277.5 236.5s131 178.667 195 284c24 0 63.667 -17.667 119 -53c-39.333 -134 -113.5 -257.5 -222.5 -370.5s-238.167 -202.333 -387.5 -268s-299.666 -98.5 -450.999 -98.5c-70.667 0 -122.667 2.66699 -156 8l-110 -209c5.33301 0 13.333 2.66699 24 8
c262.667 -25.333 394 -115.333 394 -270c0 -87.333 -43 -156.333 -129 -207s-185 -76 -297 -76c-94 3.33301 -180 16.833 -258 40.5s-132.667 42.834 -164 57.501l61 95l115.5 -57c29.667 -14.667 63.5 -26 101.5 -34s88.667 -12 152 -12c74 0 131.333 14.833 172 44.5
s61 70.834 61 123.501c0 117.333 -86 181.666 -258 192.999c-58 -11.333 -92 -17 -102 -17l80 168z" />
    <glyph glyph-name="Egrave" unicode="&#xc8;" horiz-adv-x="1966" 
d="M512 1294c-86 146 -133.665 293.67 -142.998 443.003c2.66699 82 18.167 160.167 46.5 234.5s62.333 141.833 102 202.499c39.667 60.667 93.834 136 162.501 226c47.333 67.333 119.666 136.5 216.999 207.5s206.166 130 326.499 177s235.5 70.5 345.5 70.5
c106.667 0 193.334 -26 260.001 -78s100 -121.667 100 -209c0 -72.667 -27.333 -147.667 -82 -225l-153 -204.5l-192 -242.5c-81.333 -102 -128.666 -163.333 -141.999 -184c-7.33301 -7.33301 -23.666 -15.333 -48.999 -24c-16 0 -32 9.33301 -48 28s-26 42 -30 70
c4 10 12 33 24 69c23.333 37.333 84.833 113.5 184.5 228.5s178.5 213.333 236.5 295s87 148.834 87 201.5c0 17.333 -4 32.666 -12 46c-34.667 40.667 -107 61 -217 61c-158 0 -310.167 -49.333 -456.5 -148s-267.5 -224.334 -363.5 -377.001s-153 -305.334 -171 -458.001
c4 -65.333 15.667 -129.5 35 -192.5s55.333 -164.167 108 -303.5c0 -39.333 -16.833 -73.333 -50.5 -102s-109.834 -87.5 -228.501 -176.5s-206.334 -169.333 -263.001 -241s-86.334 -152.5 -89.001 -242.5c6 -10.667 9 -25.667 9 -45c18 -168 127 -256.667 327 -266
c121.333 2.66699 256.333 37.167 405 103.5s286 153.5 412 261.5s218.333 221.333 277 340c21.333 10.667 51.333 16 90 16c40.667 0 69.334 -2.66699 86.001 -8c-56.667 -150.667 -161.834 -291.834 -315.501 -423.501s-319 -237.167 -496 -316.5
s-321.5 -120.666 -433.5 -123.999c-188 0 -324.5 42.667 -409.5 128s-127.5 171 -127.5 257c0 130.667 29.167 242.167 87.5 334.5s133.666 173.333 225.999 243l232 175c62.333 47 93.5 89.5 93.5 127.5c0 24.667 -2.66699 39.667 -8 45zM1093 3498h258l439 -545h-144z" />
    <glyph glyph-name="Eacute" unicode="&#xc9;" horiz-adv-x="1966" 
d="M512 1294c-86 146 -133.665 293.67 -142.998 443.003c2.66699 82 18.167 160.167 46.5 234.5s62.333 141.833 102 202.499c39.667 60.667 93.834 136 162.501 226c47.333 67.333 119.666 136.5 216.999 207.5s206.166 130 326.499 177s235.5 70.5 345.5 70.5
c106.667 0 193.334 -26 260.001 -78s100 -121.667 100 -209c0 -72.667 -27.333 -147.667 -82 -225l-153 -204.5l-192 -242.5c-81.333 -102 -128.666 -163.333 -141.999 -184c-7.33301 -7.33301 -23.666 -15.333 -48.999 -24c-16 0 -32 9.33301 -48 28s-26 42 -30 70
c4 10 12 33 24 69c23.333 37.333 84.833 113.5 184.5 228.5s178.5 213.333 236.5 295s87 148.834 87 201.5c0 17.333 -4 32.666 -12 46c-34.667 40.667 -107 61 -217 61c-158 0 -310.167 -49.333 -456.5 -148s-267.5 -224.334 -363.5 -377.001s-153 -305.334 -171 -458.001
c4 -65.333 15.667 -129.5 35 -192.5s55.333 -164.167 108 -303.5c0 -39.333 -16.833 -73.333 -50.5 -102s-109.834 -87.5 -228.501 -176.5s-206.334 -169.333 -263.001 -241s-86.334 -152.5 -89.001 -242.5c6 -10.667 9 -25.667 9 -45c18 -168 127 -256.667 327 -266
c121.333 2.66699 256.333 37.167 405 103.5s286 153.5 412 261.5s218.333 221.333 277 340c21.333 10.667 51.333 16 90 16c40.667 0 69.334 -2.66699 86.001 -8c-56.667 -150.667 -161.834 -291.834 -315.501 -423.501s-319 -237.167 -496 -316.5
s-321.5 -120.666 -433.5 -123.999c-188 0 -324.5 42.667 -409.5 128s-127.5 171 -127.5 257c0 130.667 29.167 242.167 87.5 334.5s133.666 173.333 225.999 243l232 175c62.333 47 93.5 89.5 93.5 127.5c0 24.667 -2.66699 39.667 -8 45zM1359 2961l439 545h258l-553 -545
h-144z" />
    <glyph glyph-name="Ecircumflex" unicode="&#xca;" horiz-adv-x="1966" 
d="M512 1294c-86 146 -133.665 293.67 -142.998 443.003c2.66699 82 18.167 160.167 46.5 234.5s62.333 141.833 102 202.499c39.667 60.667 93.834 136 162.501 226c47.333 67.333 119.666 136.5 216.999 207.5s206.166 130 326.499 177s235.5 70.5 345.5 70.5
c106.667 0 193.334 -26 260.001 -78s100 -121.667 100 -209c0 -72.667 -27.333 -147.667 -82 -225l-153 -204.5l-192 -242.5c-81.333 -102 -128.666 -163.333 -141.999 -184c-7.33301 -7.33301 -23.666 -15.333 -48.999 -24c-16 0 -32 9.33301 -48 28s-26 42 -30 70
c4 10 12 33 24 69c23.333 37.333 84.833 113.5 184.5 228.5s178.5 213.333 236.5 295s87 148.834 87 201.5c0 17.333 -4 32.666 -12 46c-34.667 40.667 -107 61 -217 61c-158 0 -310.167 -49.333 -456.5 -148s-267.5 -224.334 -363.5 -377.001s-153 -305.334 -171 -458.001
c4 -65.333 15.667 -129.5 35 -192.5s55.333 -164.167 108 -303.5c0 -39.333 -16.833 -73.333 -50.5 -102s-109.834 -87.5 -228.501 -176.5s-206.334 -169.333 -263.001 -241s-86.334 -152.5 -89.001 -242.5c6 -10.667 9 -25.667 9 -45c18 -168 127 -256.667 327 -266
c121.333 2.66699 256.333 37.167 405 103.5s286 153.5 412 261.5s218.333 221.333 277 340c21.333 10.667 51.333 16 90 16c40.667 0 69.334 -2.66699 86.001 -8c-56.667 -150.667 -161.834 -291.834 -315.501 -423.501s-319 -237.167 -496 -316.5
s-321.5 -120.666 -433.5 -123.999c-188 0 -324.5 42.667 -409.5 128s-127.5 171 -127.5 257c0 130.667 29.167 242.167 87.5 334.5s133.666 173.333 225.999 243l232 175c62.333 47 93.5 89.5 93.5 127.5c0 24.667 -2.66699 39.667 -8 45zM950.002 2961l537 545h217
l364 -545h-127l-352 414l-528 -414h-111z" />
    <glyph glyph-name="Edieresis" unicode="&#xcb;" horiz-adv-x="1966" 
d="M512 1294c-86 146 -133.665 293.67 -142.998 443.003c2.66699 82 18.167 160.167 46.5 234.5s62.333 141.833 102 202.499c39.667 60.667 93.834 136 162.501 226c47.333 67.333 119.666 136.5 216.999 207.5s206.166 130 326.499 177s235.5 70.5 345.5 70.5
c106.667 0 193.334 -26 260.001 -78s100 -121.667 100 -209c0 -72.667 -27.333 -147.667 -82 -225l-153 -204.5l-192 -242.5c-81.333 -102 -128.666 -163.333 -141.999 -184c-7.33301 -7.33301 -23.666 -15.333 -48.999 -24c-16 0 -32 9.33301 -48 28s-26 42 -30 70
c4 10 12 33 24 69c23.333 37.333 84.833 113.5 184.5 228.5s178.5 213.333 236.5 295s87 148.834 87 201.5c0 17.333 -4 32.666 -12 46c-34.667 40.667 -107 61 -217 61c-158 0 -310.167 -49.333 -456.5 -148s-267.5 -224.334 -363.5 -377.001s-153 -305.334 -171 -458.001
c4 -65.333 15.667 -129.5 35 -192.5s55.333 -164.167 108 -303.5c0 -39.333 -16.833 -73.333 -50.5 -102s-109.834 -87.5 -228.501 -176.5s-206.334 -169.333 -263.001 -241s-86.334 -152.5 -89.001 -242.5c6 -10.667 9 -25.667 9 -45c18 -168 127 -256.667 327 -266
c121.333 2.66699 256.333 37.167 405 103.5s286 153.5 412 261.5s218.333 221.333 277 340c21.333 10.667 51.333 16 90 16c40.667 0 69.334 -2.66699 86.001 -8c-56.667 -150.667 -161.834 -291.834 -315.501 -423.501s-319 -237.167 -496 -316.5
s-321.5 -120.666 -433.5 -123.999c-188 0 -324.5 42.667 -409.5 128s-127.5 171 -127.5 257c0 130.667 29.167 242.167 87.5 334.5s133.666 173.333 225.999 243l232 175c62.333 47 93.5 89.5 93.5 127.5c0 24.667 -2.66699 39.667 -8 45zM1192 3322
c35.333 0 65.333 -11.499 90 -34.499s37 -53.833 37 -92.5c0 -37.333 -12.333 -67.166 -37 -89.5c-24.667 -22.333 -54.667 -33.5 -90 -33.5c-38 0 -69.333 11.167 -94 33.5s-37 52.166 -37 89.499c0 38.667 12.333 69.5 37 92.5s56 34.5 94 34.5zM1925 3322
c34.667 0 64.5 -11.667 89.5 -35s37.5 -54 37.5 -92c0 -36.667 -12.5 -66.334 -37.5 -89c-25 -22.667 -54.833 -34 -89.5 -34c-36 0 -66.167 11.333 -90.5 34s-36.5 52.334 -36.5 89c0 38.667 12.167 69.5 36.5 92.5s54.5 34.5 90.5 34.5z" />
    <glyph glyph-name="Igrave" unicode="&#xcc;" horiz-adv-x="1360" 
d="M864 1126c94.667 170.667 184.004 378.332 268.004 622.999s149 493 195 745c5.33301 33.333 8 74.333 8 123c0 74 -26 111 -78 111c-40 0 -88 -22 -144 -66s-102 -89 -138 -135c-58.667 -70.667 -122.834 -169.667 -192.501 -297s-128.834 -254.166 -177.501 -380.499
s-74.334 -222.5 -77.001 -288.5c0 -44 -20.167 -84.833 -60.5 -122.5s-81.5 -58.5 -123.5 -62.5c-10.667 22 -16 55 -16 99c0 98 29.833 228 89.5 390s137.834 323 234.501 483s200.167 292.667 310.5 398s214.166 158 311.499 158c147.333 0 221 -106.333 221 -319
c0 -181.333 -40.833 -394.166 -122.5 -638.499s-166.5 -471.166 -254.5 -680.499c-82.667 -199.333 -175.167 -379.5 -277.5 -540.5s-207.5 -296.5 -315.5 -406.5s-214.167 -193.333 -318.5 -250s-200.5 -85 -288.5 -85c-86 0 -157 21.667 -213 65c22 74 56 127.333 102 160
c44 -29.333 100 -48.333 168 -57c153.333 3.33301 302.666 102.166 447.999 296.499s292.333 420.166 441 677.499zM864.004 3498h258l439 -545h-144z" />
    <glyph glyph-name="Iacute" unicode="&#xcd;" horiz-adv-x="1360" 
d="M864 1126c94.667 170.667 184.004 378.332 268.004 622.999s149 493 195 745c5.33301 33.333 8 74.333 8 123c0 74 -26 111 -78 111c-40 0 -88 -22 -144 -66s-102 -89 -138 -135c-58.667 -70.667 -122.834 -169.667 -192.501 -297s-128.834 -254.166 -177.501 -380.499
s-74.334 -222.5 -77.001 -288.5c0 -44 -20.167 -84.833 -60.5 -122.5s-81.5 -58.5 -123.5 -62.5c-10.667 22 -16 55 -16 99c0 98 29.833 228 89.5 390s137.834 323 234.501 483s200.167 292.667 310.5 398s214.166 158 311.499 158c147.333 0 221 -106.333 221 -319
c0 -181.333 -40.833 -394.166 -122.5 -638.499s-166.5 -471.166 -254.5 -680.499c-82.667 -199.333 -175.167 -379.5 -277.5 -540.5s-207.5 -296.5 -315.5 -406.5s-214.167 -193.333 -318.5 -250s-200.5 -85 -288.5 -85c-86 0 -157 21.667 -213 65c22 74 56 127.333 102 160
c44 -29.333 100 -48.333 168 -57c153.333 3.33301 302.666 102.166 447.999 296.499s292.333 420.166 441 677.499zM1130 2953l439 545h258l-553 -545h-144z" />
    <glyph glyph-name="Icircumflex" unicode="&#xce;" horiz-adv-x="1360" 
d="M864 1126c94.667 170.667 184.004 378.332 268.004 622.999s149 493 195 745c5.33301 33.333 8 74.333 8 123c0 74 -26 111 -78 111c-40 0 -88 -22 -144 -66s-102 -89 -138 -135c-58.667 -70.667 -122.834 -169.667 -192.501 -297s-128.834 -254.166 -177.501 -380.499
s-74.334 -222.5 -77.001 -288.5c0 -44 -20.167 -84.833 -60.5 -122.5s-81.5 -58.5 -123.5 -62.5c-10.667 22 -16 55 -16 99c0 98 29.833 228 89.5 390s137.834 323 234.501 483s200.167 292.667 310.5 398s214.166 158 311.499 158c147.333 0 221 -106.333 221 -319
c0 -181.333 -40.833 -394.166 -122.5 -638.499s-166.5 -471.166 -254.5 -680.499c-82.667 -199.333 -175.167 -379.5 -277.5 -540.5s-207.5 -296.5 -315.5 -406.5s-214.167 -193.333 -318.5 -250s-200.5 -85 -288.5 -85c-86 0 -157 21.667 -213 65c22 74 56 127.333 102 160
c44 -29.333 100 -48.333 168 -57c153.333 3.33301 302.666 102.166 447.999 296.499s292.333 420.166 441 677.499zM721.004 2953l537 545h217l364 -545h-127l-352 414l-528 -414h-111z" />
    <glyph glyph-name="Idieresis" unicode="&#xcf;" horiz-adv-x="1360" 
d="M864 1126c94.667 170.667 184.004 378.332 268.004 622.999s149 493 195 745c5.33301 33.333 8 74.333 8 123c0 74 -26 111 -78 111c-40 0 -88 -22 -144 -66s-102 -89 -138 -135c-58.667 -70.667 -122.834 -169.667 -192.501 -297s-128.834 -254.166 -177.501 -380.499
s-74.334 -222.5 -77.001 -288.5c0 -44 -20.167 -84.833 -60.5 -122.5s-81.5 -58.5 -123.5 -62.5c-10.667 22 -16 55 -16 99c0 98 29.833 228 89.5 390s137.834 323 234.501 483s200.167 292.667 310.5 398s214.166 158 311.499 158c147.333 0 221 -106.333 221 -319
c0 -181.333 -40.833 -394.166 -122.5 -638.499s-166.5 -471.166 -254.5 -680.499c-82.667 -199.333 -175.167 -379.5 -277.5 -540.5s-207.5 -296.5 -315.5 -406.5s-214.167 -193.333 -318.5 -250s-200.5 -85 -288.5 -85c-86 0 -157 21.667 -213 65c22 74 56 127.333 102 160
c44 -29.333 100 -48.333 168 -57c153.333 3.33301 302.666 102.166 447.999 296.499s292.333 420.166 441 677.499zM963.004 3322c35.333 0 65.333 -11.5 90 -34.5s37 -53.833 37 -92.5c0 -37.333 -12.333 -67.166 -37 -89.5c-24.667 -22.333 -54.667 -33.5 -90 -33.5
c-38 0 -69.333 11.167 -94 33.5s-37 52.166 -37 89.5c0 38.667 12.333 69.5 37 92.5s56 34.5 94 34.5zM1696 3322c34.667 0 64.5 -11.667 89.5 -35s37.5 -54 37.5 -92c0 -36.667 -12.5 -66.334 -37.5 -89c-25 -22.667 -54.833 -34 -89.5 -34c-36 0 -66.167 11.333 -90.5 34
s-36.5 52.334 -36.5 89c0 38.667 12.167 69.5 36.5 92.5s54.5 34.5 90.5 34.5z" />
    <glyph glyph-name="Eth" unicode="&#xd0;" horiz-adv-x="2961" 
d="M913 881c-34 0 -55.666 19 -64.999 57c10 68 52.333 102 127 102h434c80 178.667 212.333 495.667 397 951c-67.333 76.667 -179.666 184.334 -336.999 323.001s-330.333 248 -519 328c-90 35.333 -169 53 -237 53c-102.667 0 -158.667 -58.667 -168 -176
c28 -161.333 114.833 -303.833 260.5 -427.5s316.834 -231.167 513.501 -322.5c-9.33301 -78 -32.666 -121.667 -69.999 -131c0 4 -1 6.5 -3 7.5s-3.66699 1.5 -5 1.5c-144 77.333 -275 157.833 -393 241.5s-220.5 182.334 -307.5 296.001s-136.167 236.167 -147.5 367.5
c3.33301 92 34.666 164.333 93.999 217s123.666 81.334 192.999 86c207.333 0 431.833 -88.167 673.5 -264.5s422.5 -323.166 542.5 -440.5c20.667 38 48 81.5 82 130.5l78 111.5l55.5 -50.5l55.5 -51.5l-94 -137c-38.667 -58 -63.334 -101.333 -74.001 -130
c121.333 -130.667 228 -259.667 320 -387s167.5 -263.833 226.5 -409.5s88.5 -293.834 88.5 -444.501c0 -178 -47.333 -325.333 -142 -442s-208.667 -202.667 -342 -258c-160 -71.333 -393.333 -107 -700 -107c-136.667 0 -267.5 6.33301 -392.5 19s-213.833 23 -266.5 31
c-12 -0.666992 -51.167 -5 -117.5 -13s-132.333 -14.667 -198 -20s-128.5 -8 -188.5 -8c-20.667 0 -52.334 1.33301 -95.001 4s-75.334 4 -98.001 4c-120 7.33301 -180 38.666 -180 93.999c0 98 101 147 303 147c56.667 0 129.334 -9.5 218.001 -28.5
s175.667 -28.5 261 -28.5c186 0 396.333 235 631 705h-414zM1946 881l-426.002 -0.00292969c-199.333 -399.333 -364.666 -642.333 -495.999 -729c9.33301 0 52.333 -3.33301 129 -10s151 -11.667 223 -15c608.667 12.667 952.667 168.334 1032 467.001
c16.667 60 25 128.333 25 205c0 118.667 -20.333 236.334 -61 353.001s-89.667 221.5 -147 314.5s-112 172.167 -164 237.5s-98.667 121.333 -140 168c-22.667 -68 -62.167 -178.5 -118.5 -331.5s-126.166 -319.833 -209.499 -500.5h344c79.333 0 119 -19 119 -57
c0 -27.333 -10.833 -51.166 -32.5 -71.499s-47.5 -30.5 -77.5 -30.5z" />
    <glyph glyph-name="Ntilde" unicode="&#xd1;" horiz-adv-x="2130" 
d="M-463 -86c123.333 134.667 246.831 315.168 370.498 541.501s236.334 455.666 338.001 687.999l350.5 830c132 321 224 535.5 276 643.5c58 136.667 122.333 205 193 205c95.333 0 143 -82 143 -246l8.5 -647.5c3 -236.333 6.33301 -476 10 -719
s8.5 -504.167 14.5 -783.5h8c62 166 147.667 409.167 257 729.5s199.5 573 270.5 758s142.5 339.167 214.5 462.5c14 21.333 27.667 32 41 32c38 0 57 -45 57 -135c0 -54 -8.33301 -107 -25 -159c-101.333 -235.333 -184.666 -438.333 -249.999 -609l-207.5 -562.5
l-167.5 -461.5c-38.667 -103.333 -84 -210.333 -136 -321c-22 -52 -49.167 -93 -81.5 -123s-64.166 -45 -95.499 -45c-46 0 -69 45 -69 135c-2 139.333 -5.83301 449.333 -11.5 930s-9.33398 818.5 -11.001 1013.5s-2.5 349.833 -2.5 464.5h-8l-292.5 -694.5l-316 -749.5
c-89 -204.667 -183.333 -404.5 -283 -599.5s-202.5 -369.833 -308.5 -524.5c-34.667 -52 -85.334 -78 -152.001 -78c-26 0 -54.167 4.16699 -84.5 12.5s-47.166 12.5 -50.499 12.5zM1315 3043c8.66699 52 34.6689 116.832 78.002 194.499s115.666 116.5 216.999 116.5
c41.333 0 89.666 -9.5 144.999 -28.5l164.5 -57c54.333 -19 102.5 -28.5 144.5 -28.5c39.333 0 72.333 5.33301 99 16s47.167 24 61.5 40s26 35.167 35 57.5l22.5 54.5h94c-6 -68 -19.333 -122.333 -40 -163s-44.167 -70.5 -70.5 -89.5s-56.666 -32.833 -91 -41.5
c-34.333 -8.66699 -60.166 -14.667 -77.499 -18c-52.667 0 -102.334 6.83301 -149.001 20.5s-105.5 32.834 -176.5 57.501s-119.5 37 -145.5 37c-112 0 -178.667 -56 -200 -168h-111z" />
    <glyph glyph-name="Ograve" unicode="&#xd2;" horiz-adv-x="2200" 
d="M-16 696c22.667 271.333 89.832 534.671 201.499 790.004s252.834 484.333 423.501 687s354.834 365.167 552.501 487.5s389.5 189.833 575.5 202.5c73.333 0 110 -23.333 110 -70c0 -25.333 -6.66699 -40.666 -20 -46c-13.333 -5.33301 -46 -14.333 -98 -27
c-204 -36.667 -401.667 -127.334 -593 -272c-191.333 -144.667 -362.333 -321.334 -513 -530c-150.667 -208.667 -269 -425.834 -355 -651.501s-129 -432.167 -129 -619.5c0 -67.333 7 -134.333 21 -201c43.333 -202.667 171.666 -309 384.999 -319
c184.667 7.33301 375.667 79.666 573 216.999c154.667 118.667 304.167 284.5 448.5 497.5s260.666 433.333 348.999 661s132.5 420.5 132.5 578.5c0 182.667 -58.667 286.334 -176 311.001c-28 5.33301 -50 8 -66 8c-70.667 0 -145 -23.5 -223 -70.5
s-152.5 -118.333 -223.5 -214s-132.167 -213.834 -183.5 -354.501c-10.667 -57.333 -34.667 -96.333 -72 -117s-88.666 -37.667 -153.999 -51c6 146.667 58.167 294.334 156.5 443.001s217.833 270.5 358.5 365.5s270.667 142.5 390 142.5
c240.667 -8.66699 361 -163 361 -463c0 -134 -25 -286.333 -75 -457s-114.5 -334.834 -193.5 -492.501s-160.167 -289.167 -243.5 -394.5c-142 -178.667 -271 -321.167 -387 -427.5s-236.5 -186.5 -361.5 -240.5s-264.5 -82.333 -418.5 -85
c-143.333 0 -256 31.167 -338 93.5s-138.333 145.666 -169 249.999s-46 227.166 -46 368.499zM1335 3498h258l439 -545h-144z" />
    <glyph glyph-name="Oacute" unicode="&#xd3;" horiz-adv-x="2200" 
d="M-16 696c22.667 271.333 89.832 534.671 201.499 790.004s252.834 484.333 423.501 687s354.834 365.167 552.501 487.5s389.5 189.833 575.5 202.5c73.333 0 110 -23.333 110 -70c0 -25.333 -6.66699 -40.666 -20 -46c-13.333 -5.33301 -46 -14.333 -98 -27
c-204 -36.667 -401.667 -127.334 -593 -272c-191.333 -144.667 -362.333 -321.334 -513 -530c-150.667 -208.667 -269 -425.834 -355 -651.501s-129 -432.167 -129 -619.5c0 -67.333 7 -134.333 21 -201c43.333 -202.667 171.666 -309 384.999 -319
c184.667 7.33301 375.667 79.666 573 216.999c154.667 118.667 304.167 284.5 448.5 497.5s260.666 433.333 348.999 661s132.5 420.5 132.5 578.5c0 182.667 -58.667 286.334 -176 311.001c-28 5.33301 -50 8 -66 8c-70.667 0 -145 -23.5 -223 -70.5
s-152.5 -118.333 -223.5 -214s-132.167 -213.834 -183.5 -354.501c-10.667 -57.333 -34.667 -96.333 -72 -117s-88.666 -37.667 -153.999 -51c6 146.667 58.167 294.334 156.5 443.001s217.833 270.5 358.5 365.5s270.667 142.5 390 142.5
c240.667 -8.66699 361 -163 361 -463c0 -134 -25 -286.333 -75 -457s-114.5 -334.834 -193.5 -492.501s-160.167 -289.167 -243.5 -394.5c-142 -178.667 -271 -321.167 -387 -427.5s-236.5 -186.5 -361.5 -240.5s-264.5 -82.333 -418.5 -85
c-143.333 0 -256 31.167 -338 93.5s-138.333 145.666 -169 249.999s-46 227.166 -46 368.499zM1609 2953l439 545h258l-553 -545h-144z" />
    <glyph glyph-name="Ocircumflex" unicode="&#xd4;" horiz-adv-x="2200" 
d="M-16 696c22.667 271.333 89.832 534.671 201.499 790.004s252.834 484.333 423.501 687s354.834 365.167 552.501 487.5s389.5 189.833 575.5 202.5c73.333 0 110 -23.333 110 -70c0 -25.333 -6.66699 -40.666 -20 -46c-13.333 -5.33301 -46 -14.333 -98 -27
c-204 -36.667 -401.667 -127.334 -593 -272c-191.333 -144.667 -362.333 -321.334 -513 -530c-150.667 -208.667 -269 -425.834 -355 -651.501s-129 -432.167 -129 -619.5c0 -67.333 7 -134.333 21 -201c43.333 -202.667 171.666 -309 384.999 -319
c184.667 7.33301 375.667 79.666 573 216.999c154.667 118.667 304.167 284.5 448.5 497.5s260.666 433.333 348.999 661s132.5 420.5 132.5 578.5c0 182.667 -58.667 286.334 -176 311.001c-28 5.33301 -50 8 -66 8c-70.667 0 -145 -23.5 -223 -70.5
s-152.5 -118.333 -223.5 -214s-132.167 -213.834 -183.5 -354.501c-10.667 -57.333 -34.667 -96.333 -72 -117s-88.666 -37.667 -153.999 -51c6 146.667 58.167 294.334 156.5 443.001s217.833 270.5 358.5 365.5s270.667 142.5 390 142.5
c240.667 -8.66699 361 -163 361 -463c0 -134 -25 -286.333 -75 -457s-114.5 -334.834 -193.5 -492.501s-160.167 -289.167 -243.5 -394.5c-142 -178.667 -271 -321.167 -387 -427.5s-236.5 -186.5 -361.5 -240.5s-264.5 -82.333 -418.5 -85
c-143.333 0 -256 31.167 -338 93.5s-138.333 145.666 -169 249.999s-46 227.166 -46 368.499zM1192 2953l537 545h217l364 -545h-127l-352 414l-528 -414h-111z" />
    <glyph glyph-name="Otilde" unicode="&#xd5;" horiz-adv-x="2200" 
d="M-16 696c22.667 271.333 89.832 534.671 201.499 790.004s252.834 484.333 423.501 687s354.834 365.167 552.501 487.5s389.5 189.833 575.5 202.5c73.333 0 110 -23.333 110 -70c0 -25.333 -6.66699 -40.666 -20 -46c-13.333 -5.33301 -46 -14.333 -98 -27
c-204 -36.667 -401.667 -127.334 -593 -272c-191.333 -144.667 -362.333 -321.334 -513 -530c-150.667 -208.667 -269 -425.834 -355 -651.501s-129 -432.167 -129 -619.5c0 -67.333 7 -134.333 21 -201c43.333 -202.667 171.666 -309 384.999 -319
c184.667 7.33301 375.667 79.666 573 216.999c154.667 118.667 304.167 284.5 448.5 497.5s260.666 433.333 348.999 661s132.5 420.5 132.5 578.5c0 182.667 -58.667 286.334 -176 311.001c-28 5.33301 -50 8 -66 8c-70.667 0 -145 -23.5 -223 -70.5
s-152.5 -118.333 -223.5 -214s-132.167 -213.834 -183.5 -354.501c-10.667 -57.333 -34.667 -96.333 -72 -117s-88.666 -37.667 -153.999 -51c6 146.667 58.167 294.334 156.5 443.001s217.833 270.5 358.5 365.5s270.667 142.5 390 142.5
c240.667 -8.66699 361 -163 361 -463c0 -134 -25 -286.333 -75 -457s-114.5 -334.834 -193.5 -492.501s-160.167 -289.167 -243.5 -394.5c-142 -178.667 -271 -321.167 -387 -427.5s-236.5 -186.5 -361.5 -240.5s-264.5 -82.333 -418.5 -85
c-143.333 0 -256 31.167 -338 93.5s-138.333 145.666 -169 249.999s-46 227.166 -46 368.499zM1282 3035c8.66699 52 34.6689 116.832 78.002 194.499s115.666 116.5 216.999 116.5c41.333 0 89.666 -9.5 144.999 -28.5l164.5 -57c54.333 -19 102.5 -28.5 144.5 -28.5
c39.333 0 72.333 5.33301 99 16s47.167 24 61.5 40s26 35.167 35 57.5l22.5 54.5h94c-6 -68 -19.333 -122.333 -40 -163s-44.167 -70.5 -70.5 -89.5s-56.666 -32.833 -91 -41.5c-34.333 -8.66699 -60.166 -14.667 -77.499 -18c-52.667 0 -102.334 6.83301 -149.001 20.5
s-105.5 32.834 -176.5 57.501s-119.5 37 -145.5 37c-112 0 -178.667 -56 -200 -168h-111z" />
    <glyph glyph-name="Odieresis" unicode="&#xd6;" horiz-adv-x="2200" 
d="M-16 696c22.667 271.333 89.832 534.671 201.499 790.004s252.834 484.333 423.501 687s354.834 365.167 552.501 487.5s389.5 189.833 575.5 202.5c73.333 0 110 -23.333 110 -70c0 -25.333 -6.66699 -40.666 -20 -46c-13.333 -5.33301 -46 -14.333 -98 -27
c-204 -36.667 -401.667 -127.334 -593 -272c-191.333 -144.667 -362.333 -321.334 -513 -530c-150.667 -208.667 -269 -425.834 -355 -651.501s-129 -432.167 -129 -619.5c0 -67.333 7 -134.333 21 -201c43.333 -202.667 171.666 -309 384.999 -319
c184.667 7.33301 375.667 79.666 573 216.999c154.667 118.667 304.167 284.5 448.5 497.5s260.666 433.333 348.999 661s132.5 420.5 132.5 578.5c0 182.667 -58.667 286.334 -176 311.001c-28 5.33301 -50 8 -66 8c-70.667 0 -145 -23.5 -223 -70.5
s-152.5 -118.333 -223.5 -214s-132.167 -213.834 -183.5 -354.501c-10.667 -57.333 -34.667 -96.333 -72 -117s-88.666 -37.667 -153.999 -51c6 146.667 58.167 294.334 156.5 443.001s217.833 270.5 358.5 365.5s270.667 142.5 390 142.5
c240.667 -8.66699 361 -163 361 -463c0 -134 -25 -286.333 -75 -457s-114.5 -334.834 -193.5 -492.501s-160.167 -289.167 -243.5 -394.5c-142 -178.667 -271 -321.167 -387 -427.5s-236.5 -186.5 -361.5 -240.5s-264.5 -82.333 -418.5 -85
c-143.333 0 -256 31.167 -338 93.5s-138.333 145.666 -169 249.999s-46 227.166 -46 368.499zM1434 3322c35.333 0 65.333 -11.499 90 -34.499s37 -53.833 37 -92.5c0 -37.333 -12.333 -67.166 -37 -89.5c-24.667 -22.333 -54.667 -33.5 -90 -33.5
c-38 0 -69.333 11.167 -94 33.5s-37 52.166 -37 89.499c0 38.667 12.333 69.5 37 92.5s56 34.5 94 34.5zM2167 3322.01c34.667 0 64.5 -11.667 89.5 -35s37.5 -54 37.5 -92c0 -36.667 -12.5 -66.334 -37.5 -89c-25 -22.667 -54.833 -34 -89.5 -34
c-36 0 -66.167 11.333 -90.5 34s-36.5 52.334 -36.5 89c0 38.667 12.167 69.5 36.5 92.5s54.5 34.5 90.5 34.5z" />
    <glyph glyph-name="Oslash" unicode="&#xd8;" horiz-adv-x="2200" 
d="M2097 3248l-160 -369.002c101.333 0 152 -25.667 152 -77c-2.66699 -20 -14 -33 -34 -39s-52.5 -10.667 -97.5 -14s-79.167 -7.66602 -102.5 -13l-94 -217c139.333 0 250 -37.167 332 -111.5s123 -183.166 123 -326.5c0 -372 -146 -780.333 -438 -1225
c-116 -180 -231 -332 -345 -456s-250.833 -224.333 -410.5 -301s-346.167 -115 -559.5 -115l-201 -394c-21.333 -35.333 -39 -53 -53 -53h-135l245 471c-192 115.333 -298.333 249.333 -319 402c-5.33301 40.667 -8 103.334 -8 188.001
c0 250.667 45.5 505.334 136.5 764.001s219.5 498 385.5 718s361 400.833 585 542.5s462.667 224.5 716 248.5l151 312c22 43.333 46.667 65 74 65h57zM1704 2376l-1167 -2233c146 10.667 270.167 36.667 372.5 78s196.666 101.666 282.999 180.999s184.5 188.333 294.5 327
c158.667 198.667 291.834 414.667 399.501 648s161.5 457 161.5 671c0 218.667 -90 328 -270 328h-74zM1704 2703c-132 -28.667 -251 -67.335 -357 -116.001c-106 -48.667 -215.667 -122 -329 -220s-234.333 -229 -363 -393c-106.667 -138.667 -198.334 -294 -275.001 -466
s-134.5 -339 -173.5 -501s-60.167 -298.333 -63.5 -409c16 -110 41.5 -198.667 76.5 -266s95.5 -119.333 181.5 -156l1143 2134c-216 -98.667 -392 -261 -528 -487c-23.333 -40 -57.666 -63.333 -102.999 -70l-49 25c-3.33301 0 -11.333 9.33301 -24 28
c6.66699 32.667 23 68.334 49 107.001c61.333 84 118 156.333 170 217s116.833 121.667 194.5 183s169.167 116.333 274.5 165c7.33301 3.33301 19.333 7 36 11s30.167 9 40.5 15s18.833 16.333 25.5 31z" />
    <glyph glyph-name="Ugrave" unicode="&#xd9;" horiz-adv-x="2503" 
d="M242 1855c158 346.667 349.002 618.667 573.002 816c122.667 112 240 168 352 168c91.333 0 164.666 -27.333 219.999 -82s83 -134 83 -238c-6 -107.333 -47.167 -251 -123.5 -431s-193.333 -429.833 -351 -749.5s-274.834 -565.167 -351.501 -736.5
s-126 -318.666 -148 -441.999c274 166 642.667 501.667 1106 1007l306.5 322.5l314 332c91 99 167.167 189.667 228.5 272s103 154.5 125 216.5c8.66699 24 28.167 45 58.5 63s58.833 27 85.5 27c32.667 0 49 -16.333 49 -49c0 -19.333 -5.33301 -37 -16 -53
c-11.333 -24 -83.666 -164.5 -216.999 -421.5s-243.333 -480.167 -330 -669.5s-163 -388.5 -229 -597.5s-101 -398.5 -105 -568.5c0 -26 -7.83301 -43.667 -23.5 -53s-37.334 -15.333 -65.001 -18l-112.5 -11c0 135.333 21.167 284.166 63.5 446.499s99.5 333 171.5 512
s161.667 387.833 269 626.5l-8 8l-270.5 -298l-372 -399.5c-140.333 -147.667 -284 -290.334 -431 -428.001s-276.5 -245.834 -388.5 -324.501c-130 -90 -231.333 -135 -304 -135c-77.333 0 -121 39.667 -131 119c9.33301 57.333 25.666 124.333 48.999 201
c52.667 150.667 115.5 304.334 188.5 461.001l292 603.5c121.667 245.667 216.667 443.5 285 593.5s120.5 285.333 156.5 406c27.333 80.667 41 145 41 193c0 36.667 -11.167 67 -33.5 91s-52.166 36 -89.499 36c-88 0 -183.667 -53.333 -287 -160
c-130 -132 -250.167 -301.833 -360.5 -509.5s-174.5 -379.167 -192.5 -514.5c0 -30 -20.167 -60.167 -60.5 -90.5s-78.833 -48.166 -115.5 -53.499c-27.333 10 -41 23.667 -41 41c0 125.333 46.667 282.333 140 471zM1728 3498h258l439 -545h-144z" />
    <glyph glyph-name="Uacute" unicode="&#xda;" horiz-adv-x="2503" 
d="M242 1855c158 346.667 349.002 618.667 573.002 816c122.667 112 240 168 352 168c91.333 0 164.666 -27.333 219.999 -82s83 -134 83 -238c-6 -107.333 -47.167 -251 -123.5 -431s-193.333 -429.833 -351 -749.5s-274.834 -565.167 -351.501 -736.5
s-126 -318.666 -148 -441.999c274 166 642.667 501.667 1106 1007l306.5 322.5l314 332c91 99 167.167 189.667 228.5 272s103 154.5 125 216.5c8.66699 24 28.167 45 58.5 63s58.833 27 85.5 27c32.667 0 49 -16.333 49 -49c0 -19.333 -5.33301 -37 -16 -53
c-11.333 -24 -83.666 -164.5 -216.999 -421.5s-243.333 -480.167 -330 -669.5s-163 -388.5 -229 -597.5s-101 -398.5 -105 -568.5c0 -26 -7.83301 -43.667 -23.5 -53s-37.334 -15.333 -65.001 -18l-112.5 -11c0 135.333 21.167 284.166 63.5 446.499s99.5 333 171.5 512
s161.667 387.833 269 626.5l-8 8l-270.5 -298l-372 -399.5c-140.333 -147.667 -284 -290.334 -431 -428.001s-276.5 -245.834 -388.5 -324.501c-130 -90 -231.333 -135 -304 -135c-77.333 0 -121 39.667 -131 119c9.33301 57.333 25.666 124.333 48.999 201
c52.667 150.667 115.5 304.334 188.5 461.001l292 603.5c121.667 245.667 216.667 443.5 285 593.5s120.5 285.333 156.5 406c27.333 80.667 41 145 41 193c0 36.667 -11.167 67 -33.5 91s-52.166 36 -89.499 36c-88 0 -183.667 -53.333 -287 -160
c-130 -132 -250.167 -301.833 -360.5 -509.5s-174.5 -379.167 -192.5 -514.5c0 -30 -20.167 -60.167 -60.5 -90.5s-78.833 -48.166 -115.5 -53.499c-27.333 10 -41 23.667 -41 41c0 125.333 46.667 282.333 140 471zM1986 2953l439 545h258l-553 -545h-144z" />
    <glyph glyph-name="Ucircumflex" unicode="&#xdb;" horiz-adv-x="2503" 
d="M242 1855c158 346.667 349.002 618.667 573.002 816c122.667 112 240 168 352 168c91.333 0 164.666 -27.333 219.999 -82s83 -134 83 -238c-6 -107.333 -47.167 -251 -123.5 -431s-193.333 -429.833 -351 -749.5s-274.834 -565.167 -351.501 -736.5
s-126 -318.666 -148 -441.999c274 166 642.667 501.667 1106 1007l306.5 322.5l314 332c91 99 167.167 189.667 228.5 272s103 154.5 125 216.5c8.66699 24 28.167 45 58.5 63s58.833 27 85.5 27c32.667 0 49 -16.333 49 -49c0 -19.333 -5.33301 -37 -16 -53
c-11.333 -24 -83.666 -164.5 -216.999 -421.5s-243.333 -480.167 -330 -669.5s-163 -388.5 -229 -597.5s-101 -398.5 -105 -568.5c0 -26 -7.83301 -43.667 -23.5 -53s-37.334 -15.333 -65.001 -18l-112.5 -11c0 135.333 21.167 284.166 63.5 446.499s99.5 333 171.5 512
s161.667 387.833 269 626.5l-8 8l-270.5 -298l-372 -399.5c-140.333 -147.667 -284 -290.334 -431 -428.001s-276.5 -245.834 -388.5 -324.501c-130 -90 -231.333 -135 -304 -135c-77.333 0 -121 39.667 -131 119c9.33301 57.333 25.666 124.333 48.999 201
c52.667 150.667 115.5 304.334 188.5 461.001l292 603.5c121.667 245.667 216.667 443.5 285 593.5s120.5 285.333 156.5 406c27.333 80.667 41 145 41 193c0 36.667 -11.167 67 -33.5 91s-52.166 36 -89.499 36c-88 0 -183.667 -53.333 -287 -160
c-130 -132 -250.167 -301.833 -360.5 -509.5s-174.5 -379.167 -192.5 -514.5c0 -30 -20.167 -60.167 -60.5 -90.5s-78.833 -48.166 -115.5 -53.499c-27.333 10 -41 23.667 -41 41c0 125.333 46.667 282.333 140 471zM1593 2953l537 545h217l364 -545h-127l-352 414
l-528 -414h-111z" />
    <glyph glyph-name="Udieresis" unicode="&#xdc;" horiz-adv-x="2503" 
d="M242 1855c158 346.667 349.002 618.667 573.002 816c122.667 112 240 168 352 168c91.333 0 164.666 -27.333 219.999 -82s83 -134 83 -238c-6 -107.333 -47.167 -251 -123.5 -431s-193.333 -429.833 -351 -749.5s-274.834 -565.167 -351.501 -736.5
s-126 -318.666 -148 -441.999c274 166 642.667 501.667 1106 1007l306.5 322.5l314 332c91 99 167.167 189.667 228.5 272s103 154.5 125 216.5c8.66699 24 28.167 45 58.5 63s58.833 27 85.5 27c32.667 0 49 -16.333 49 -49c0 -19.333 -5.33301 -37 -16 -53
c-11.333 -24 -83.666 -164.5 -216.999 -421.5s-243.333 -480.167 -330 -669.5s-163 -388.5 -229 -597.5s-101 -398.5 -105 -568.5c0 -26 -7.83301 -43.667 -23.5 -53s-37.334 -15.333 -65.001 -18l-112.5 -11c0 135.333 21.167 284.166 63.5 446.499s99.5 333 171.5 512
s161.667 387.833 269 626.5l-8 8l-270.5 -298l-372 -399.5c-140.333 -147.667 -284 -290.334 -431 -428.001s-276.5 -245.834 -388.5 -324.501c-130 -90 -231.333 -135 -304 -135c-77.333 0 -121 39.667 -131 119c9.33301 57.333 25.666 124.333 48.999 201
c52.667 150.667 115.5 304.334 188.5 461.001l292 603.5c121.667 245.667 216.667 443.5 285 593.5s120.5 285.333 156.5 406c27.333 80.667 41 145 41 193c0 36.667 -11.167 67 -33.5 91s-52.166 36 -89.499 36c-88 0 -183.667 -53.333 -287 -160
c-130 -132 -250.167 -301.833 -360.5 -509.5s-174.5 -379.167 -192.5 -514.5c0 -30 -20.167 -60.167 -60.5 -90.5s-78.833 -48.166 -115.5 -53.499c-27.333 10 -41 23.667 -41 41c0 125.333 46.667 282.333 140 471zM1827 3314c35.333 0 65.333 -11.5 90 -34.5
s37 -53.833 37 -92.5c0 -37.333 -12.333 -67.166 -37 -89.5c-24.667 -22.333 -54.667 -33.5 -90 -33.5c-38 0 -69.333 11.167 -94 33.5s-37 52.166 -37 89.5c0 38.667 12.333 69.5 37 92.5s56 34.5 94 34.5zM2560 3314c34.667 0 64.5 -11.667 89.5 -35s37.5 -54 37.5 -92
c0 -36.667 -12.5 -66.334 -37.5 -89c-25 -22.667 -54.833 -34 -89.5 -34c-36 0 -66.167 11.333 -90.5 34s-36.5 52.334 -36.5 89c0 38.667 12.167 69.5 36.5 92.5s54.5 34.5 90.5 34.5z" />
    <glyph glyph-name="Yacute" unicode="&#xdd;" horiz-adv-x="2281" 
d="M168 1442c12.667 182 54.501 361.337 125.501 538.004s151.667 330.834 242 462.5c90.333 131.667 169.833 226.834 238.5 285.5c116.667 95.333 219 143 307 143c71.333 0 127.5 -25.167 168.5 -75.5s61.5 -115.166 61.5 -194.5c0 -54 -8.33301 -99 -25 -135l-391 -925
l-315.5 -706.5l-157 -340.5c-17.667 -38.667 -32.834 -80.334 -45.501 -125.001c-28.667 -84.667 -45 -135.334 -49 -152.001c0 -22 10.667 -38.333 32 -49c31.333 3.33301 109.333 45.666 234 126.999l426 347c124 104 277.667 246.833 461 428.5
s351.166 375.667 503.499 582s259.5 405.166 321.5 596.499l160 16l-713 -1671l-312 -690c-83.333 -178.667 -168.166 -344.667 -254.499 -498s-165.166 -268 -236.499 -344c-35.333 -46.667 -83 -70 -143 -70c-15.333 0 -26.333 13.667 -33 41l246.5 486.5l315 623.5
l259.5 535.5c84 177.667 162.667 354.167 236 529.5l-8 17c-64 -68.667 -165.167 -171.834 -303.5 -309.501l-419.5 -404.5c-141.333 -132 -244.333 -219 -309 -261l-113 -78c-40.667 -28 -80.334 -52.5 -119.001 -73.5s-82 -38.5 -130 -52.5s-98 -21 -150 -21
c-80.667 6.66699 -126 59.667 -136 159c6.66699 122.667 71 301.667 193 537c317.333 678.667 522.666 1124.83 615.999 1338.5s148.666 372.167 165.999 475.5c0 8.66699 1.33301 22.667 4 42s4 32.666 4 40c0 57.333 -25.667 86 -77 86c-31.333 0 -87.333 -23 -168 -69
c-46.667 -44.667 -107.667 -124.5 -183 -239.5s-144.666 -245.5 -207.999 -391.5s-103.666 -288 -120.999 -426c-26 -52 -93 -97 -201 -135zM1667 2953l439 545h258l-553 -545h-144z" />
    <glyph glyph-name="Thorn" unicode="&#xde;" horiz-adv-x="2961" 
d="M1057 745c-90 -4 -198.501 -12.6689 -325.501 -26.002s-260.167 -33.166 -399.5 -59.499s-258.333 -59.166 -357 -98.499c-180 -69.333 -270 -158 -270 -266c0 -103.333 98.333 -162 295 -176c76 10.667 129.333 16 160 16c112 18 210 44 294 78
s174.833 92.333 272.5 175s207.834 201.667 330.501 357zM1393 904.998c388 21.333 686.172 73.9971 894.505 157.997s346.166 183.333 413.5 298c67.333 114.667 101 245.334 101 392.001c0 102 -31.833 198.5 -95.5 289.5s-190.167 136.5 -379.5 136.5
c-38.667 0 -67.334 -1.33301 -86 -4c-11.333 0 -22.333 -2.66699 -33 -8c-52 10 -78 37.333 -78 82c0 40.667 45 61 135 61c193.333 0 342.333 -24.833 447 -74.5s175.667 -115.667 213 -198s57.666 -185.166 61 -308.499c0 -100 -15.5 -193.333 -46.5 -280
s-77.333 -166.167 -139 -238.5s-137.834 -135.5 -228.5 -189.5c-90.667 -54 -195.667 -98 -315 -132c-102.667 -30 -203.334 -53.333 -302 -70c-98.667 -16.667 -199.167 -29.167 -301.5 -37.5s-224.833 -14.833 -367.5 -19.5c-163.333 -224 -318.5 -392.5 -465.5 -505.5
s-283.333 -187 -409 -222s-271.167 -57.5 -436.5 -67.5c-110.667 0 -211.334 28.833 -302.001 86.5s-136 135.5 -136 233.5c0 152.667 76.667 264.667 230 336c88.667 47.333 186.167 86.5 292.5 117.5s218.666 56 336.999 75s251.166 35.833 398.499 50.5l389 39
c175.333 318.667 318.166 626.167 428.499 922.5s185.833 601.833 226.5 916.5c11.333 68.667 49.666 103 114.999 103c52 0 78 -37 78 -111c-10.667 -168.667 -48.334 -366.5 -113.001 -593.5s-144.167 -450.167 -238.5 -669.5s-190.166 -408.666 -287.499 -567.999z" />
    <glyph glyph-name="germandbls" unicode="&#xdf;" horiz-adv-x="1896" 
d="M377 1126c21.333 71.333 60.668 189.67 118.001 355.003s132.833 355 226.5 569s201.667 407.5 324 580.5s243.5 269.5 363.5 289.5c44.667 6 78.667 9 102 9c208 0 312 -117.667 312 -353c0 -132.667 -28.5 -260.5 -85.5 -383.5s-116.833 -224 -179.5 -303
s-171 -207.833 -325 -386.5c202 -81.333 303 -227.333 303 -438v-82c-16.667 -178.667 -83.334 -338 -200.001 -478s-212.334 -238.667 -287.001 -296c70.667 0 148.834 21 234.501 63s160.834 86.5 225.501 133.5l285 217.5h12c27.333 0 41 -12.333 41 -37
c0 -32.667 -17.667 -76.334 -53 -131.001c-23.333 -40 -88 -94.167 -194 -162.5s-222 -128 -348 -179s-234.667 -76.5 -326 -76.5c-33.333 0 -62 4 -86 12c-14 -14 -46.333 -29.833 -97 -47.5s-100.334 -26.5 -149.001 -26.5c-128.667 0 -209.334 50.667 -242.001 152
c15.333 44 55 66 119 66c34.667 0 72.834 -1.5 114.501 -4.5s67.834 -4.5 78.501 -4.5c49.333 6 94.166 16.333 134.499 31s97.833 56 172.5 124s162 173.333 262 316c90 145.333 135 273.666 135 384.999c0 104.667 -28.5 188.167 -85.5 250.5s-111.833 93.5 -164.5 93.5
c-20.667 0 -41 -5.66699 -61 -17s-43.333 -27.5 -70 -48.5s-50.667 -37.333 -72 -49s-43.666 -18.5 -66.999 -20.5c-23.333 5.33301 -39.666 12.333 -48.999 21s-16.333 19.834 -21 33.501l-16 48.5c5.33301 75.333 106.333 139.333 303 192c37.333 12 107 82 209 210
s193.667 268.333 275 421s122 279.667 122 381c0 14 -2.66699 34.333 -8 61c-14.667 79.333 -59.667 119 -135 119c-73.333 0 -160.666 -39.667 -261.999 -119c-215.333 -180 -458.333 -692 -729 -1536l-190.5 -574l-224.5 -663.5l-177 -529.5
c-34.667 -106.667 -61.334 -194.667 -80.001 -264c-18.667 -64 -43.5 -113.5 -74.5 -148.5s-59.5 -52.5 -85.5 -52.5c-38 0 -57 31.333 -57 94v66c33.333 138 74.666 281.5 123.999 430.5s117 339.167 203 570.5l186 506c38 106 71.667 211 101 315l-153.5 -165l-190.5 -195
c-1.33301 -2.66699 -4.33301 -5.33398 -9 -8.00098s-8.33398 -5.33398 -11.001 -8.00098c-27.333 0 -41 21.667 -41 65c0 10 1.33301 20.333 4 31s4 16.667 4 18c39.333 56 90.333 115.167 153 177.5l198 198c69.333 69.667 123 130.167 161 181.5z" />
    <glyph glyph-name="agrave" unicode="&#xe0;" horiz-adv-x="1663" 
d="M840 152c109.333 23.333 221.168 75.001 335.501 155.001s248.166 193.333 401.499 340c27.333 0 42.333 -28.667 45 -86c0 -40.667 -50.5 -102.167 -151.5 -184.5s-215.333 -163 -343 -242s-215.5 -126.5 -263.5 -142.5c-34 -11.333 -68 -17 -102 -17
c-74 0 -115 27.333 -123 82c9.33301 44 20.333 81 33 111c18.667 54 34.167 96.5 46.5 127.5s21.166 52.5 26.499 64.5l-8 9c-16 -17.333 -54.5 -61.333 -115.5 -132s-115.5 -126.334 -163.5 -167.001s-102.333 -72.334 -163 -95.001c-7.33301 0 -21 -1.33301 -41 -4
s-37.667 -4 -53 -4c-218.667 0 -328 168 -328 504s224 613.333 672 832c193.333 98 375 147 545 147c66.667 0 137.834 -9.5 213.501 -28.5s113.5 -53.167 113.5 -102.5v-37c-18.667 -29.333 -35 -51 -49 -65c-130.667 68 -237 102 -319 102
c-52.667 0 -120.667 -13 -204 -39s-172.833 -65.167 -268.5 -117.5s-184.167 -114.833 -265.5 -187.5c-172.667 -153.333 -262.667 -296.666 -270 -429.999c0 -10 -0.666992 -24.333 -2 -43s-2 -31.667 -2 -39c0 -214 52 -326 156 -336c62.667 6.66699 124 34 184 82
c214.667 174.667 438.667 443.667 672 807c24.667 40 46.667 65 66 75s50.333 15 93 15c44 0 66 -8.33301 66 -25c0 -6.66699 -5.66699 -25.667 -17 -57zM647.002 2265h258l439 -545h-144z" />
    <glyph glyph-name="aacute" unicode="&#xe1;" horiz-adv-x="1663" 
d="M840 152c109.333 23.333 221.168 75.001 335.501 155.001s248.166 193.333 401.499 340c27.333 0 42.333 -28.667 45 -86c0 -40.667 -50.5 -102.167 -151.5 -184.5s-215.333 -163 -343 -242s-215.5 -126.5 -263.5 -142.5c-34 -11.333 -68 -17 -102 -17
c-74 0 -115 27.333 -123 82c9.33301 44 20.333 81 33 111c18.667 54 34.167 96.5 46.5 127.5s21.166 52.5 26.499 64.5l-8 9c-16 -17.333 -54.5 -61.333 -115.5 -132s-115.5 -126.334 -163.5 -167.001s-102.333 -72.334 -163 -95.001c-7.33301 0 -21 -1.33301 -41 -4
s-37.667 -4 -53 -4c-218.667 0 -328 168 -328 504s224 613.333 672 832c193.333 98 375 147 545 147c66.667 0 137.834 -9.5 213.501 -28.5s113.5 -53.167 113.5 -102.5v-37c-18.667 -29.333 -35 -51 -49 -65c-130.667 68 -237 102 -319 102
c-52.667 0 -120.667 -13 -204 -39s-172.833 -65.167 -268.5 -117.5s-184.167 -114.833 -265.5 -187.5c-172.667 -153.333 -262.667 -296.666 -270 -429.999c0 -10 -0.666992 -24.333 -2 -43s-2 -31.667 -2 -39c0 -214 52 -326 156 -336c62.667 6.66699 124 34 184 82
c214.667 174.667 438.667 443.667 672 807c24.667 40 46.667 65 66 75s50.333 15 93 15c44 0 66 -8.33301 66 -25c0 -6.66699 -5.66699 -25.667 -17 -57zM913.002 1720l439 545h258l-553 -545h-144z" />
    <glyph glyph-name="acircumflex" unicode="&#xe2;" horiz-adv-x="1663" 
d="M840 152c109.333 23.333 221.168 75.001 335.501 155.001s248.166 193.333 401.499 340c27.333 0 42.333 -28.667 45 -86c0 -40.667 -50.5 -102.167 -151.5 -184.5s-215.333 -163 -343 -242s-215.5 -126.5 -263.5 -142.5c-34 -11.333 -68 -17 -102 -17
c-74 0 -115 27.333 -123 82c9.33301 44 20.333 81 33 111c18.667 54 34.167 96.5 46.5 127.5s21.166 52.5 26.499 64.5l-8 9c-16 -17.333 -54.5 -61.333 -115.5 -132s-115.5 -126.334 -163.5 -167.001s-102.333 -72.334 -163 -95.001c-7.33301 0 -21 -1.33301 -41 -4
s-37.667 -4 -53 -4c-218.667 0 -328 168 -328 504s224 613.333 672 832c193.333 98 375 147 545 147c66.667 0 137.834 -9.5 213.501 -28.5s113.5 -53.167 113.5 -102.5v-37c-18.667 -29.333 -35 -51 -49 -65c-130.667 68 -237 102 -319 102
c-52.667 0 -120.667 -13 -204 -39s-172.833 -65.167 -268.5 -117.5s-184.167 -114.833 -265.5 -187.5c-172.667 -153.333 -262.667 -296.666 -270 -429.999c0 -10 -0.666992 -24.333 -2 -43s-2 -31.667 -2 -39c0 -214 52 -326 156 -336c62.667 6.66699 124 34 184 82
c214.667 174.667 438.667 443.667 672 807c24.667 40 46.667 65 66 75s50.333 15 93 15c44 0 66 -8.33301 66 -25c0 -6.66699 -5.66699 -25.667 -17 -57zM504.002 1720l537 545h217l364 -545h-127l-352 414l-528 -414h-111z" />
    <glyph glyph-name="atilde" unicode="&#xe3;" horiz-adv-x="1663" 
d="M840 152c109.333 23.333 221.168 75.001 335.501 155.001s248.166 193.333 401.499 340c27.333 0 42.333 -28.667 45 -86c0 -40.667 -50.5 -102.167 -151.5 -184.5s-215.333 -163 -343 -242s-215.5 -126.5 -263.5 -142.5c-34 -11.333 -68 -17 -102 -17
c-74 0 -115 27.333 -123 82c9.33301 44 20.333 81 33 111c18.667 54 34.167 96.5 46.5 127.5s21.166 52.5 26.499 64.5l-8 9c-16 -17.333 -54.5 -61.333 -115.5 -132s-115.5 -126.334 -163.5 -167.001s-102.333 -72.334 -163 -95.001c-7.33301 0 -21 -1.33301 -41 -4
s-37.667 -4 -53 -4c-218.667 0 -328 168 -328 504s224 613.333 672 832c193.333 98 375 147 545 147c66.667 0 137.834 -9.5 213.501 -28.5s113.5 -53.167 113.5 -102.5v-37c-18.667 -29.333 -35 -51 -49 -65c-130.667 68 -237 102 -319 102
c-52.667 0 -120.667 -13 -204 -39s-172.833 -65.167 -268.5 -117.5s-184.167 -114.833 -265.5 -187.5c-172.667 -153.333 -262.667 -296.666 -270 -429.999c0 -10 -0.666992 -24.333 -2 -43s-2 -31.667 -2 -39c0 -214 52 -326 156 -336c62.667 6.66699 124 34 184 82
c214.667 174.667 438.667 443.667 672 807c24.667 40 46.667 65 66 75s50.333 15 93 15c44 0 66 -8.33301 66 -25c0 -6.66699 -5.66699 -25.667 -17 -57zM594.002 1802c8.66699 52 34.668 116.832 78.001 194.499s115.666 116.5 216.999 116.5
c41.333 0 89.666 -9.5 144.999 -28.5l164.5 -57c54.333 -19 102.5 -28.5 144.5 -28.5c39.333 0 72.333 5.33301 99 16s47.167 24 61.5 40s26 35.167 35 57.5l22.5 54.5h94c-6 -68 -19.333 -122.333 -40 -163s-44.167 -70.5 -70.5 -89.5s-56.666 -32.833 -90.999 -41.5
s-60.166 -14.667 -77.499 -18c-52.667 0 -102.334 6.83301 -149.001 20.5s-105.5 32.834 -176.5 57.501s-119.5 37 -145.5 37c-112 0 -178.667 -56 -200 -168h-111z" />
    <glyph glyph-name="adieresis" unicode="&#xe4;" horiz-adv-x="1663" 
d="M840 152c109.333 23.333 221.168 75.001 335.501 155.001s248.166 193.333 401.499 340c27.333 0 42.333 -28.667 45 -86c0 -40.667 -50.5 -102.167 -151.5 -184.5s-215.333 -163 -343 -242s-215.5 -126.5 -263.5 -142.5c-34 -11.333 -68 -17 -102 -17
c-74 0 -115 27.333 -123 82c9.33301 44 20.333 81 33 111c18.667 54 34.167 96.5 46.5 127.5s21.166 52.5 26.499 64.5l-8 9c-16 -17.333 -54.5 -61.333 -115.5 -132s-115.5 -126.334 -163.5 -167.001s-102.333 -72.334 -163 -95.001c-7.33301 0 -21 -1.33301 -41 -4
s-37.667 -4 -53 -4c-218.667 0 -328 168 -328 504s224 613.333 672 832c193.333 98 375 147 545 147c66.667 0 137.834 -9.5 213.501 -28.5s113.5 -53.167 113.5 -102.5v-37c-18.667 -29.333 -35 -51 -49 -65c-130.667 68 -237 102 -319 102
c-52.667 0 -120.667 -13 -204 -39s-172.833 -65.167 -268.5 -117.5s-184.167 -114.833 -265.5 -187.5c-172.667 -153.333 -262.667 -296.666 -270 -429.999c0 -10 -0.666992 -24.333 -2 -43s-2 -31.667 -2 -39c0 -214 52 -326 156 -336c62.667 6.66699 124 34 184 82
c214.667 174.667 438.667 443.667 672 807c24.667 40 46.667 65 66 75s50.333 15 93 15c44 0 66 -8.33301 66 -25c0 -6.66699 -5.66699 -25.667 -17 -57zM754.002 2089c35.333 0 65.333 -11.5 90 -34.5s37 -53.833 37 -92.5c0 -37.333 -12.333 -67.166 -37 -89.499
s-54.667 -33.5 -90 -33.5c-38 0 -69.333 11.167 -94 33.5s-37 52.166 -37 89.499c0 38.667 12.333 69.5 37 92.5s56 34.5 94 34.5zM1487 2089c34.667 0 64.5 -11.667 89.5 -35s37.5 -54 37.5 -92c0 -36.667 -12.5 -66.334 -37.5 -89.001s-54.833 -34 -89.5 -34
c-36 0 -66.167 11.333 -90.5 34s-36.5 52.334 -36.5 89.001c0 38.667 12.167 69.5 36.5 92.5s54.5 34.5 90.5 34.5z" />
    <glyph glyph-name="aring" unicode="&#xe5;" horiz-adv-x="1663" 
d="M840 152c109.333 23.333 221.168 75.001 335.501 155.001s248.166 193.333 401.499 340c27.333 0 42.333 -28.667 45 -86c0 -40.667 -50.5 -102.167 -151.5 -184.5s-215.333 -163 -343 -242s-215.5 -126.5 -263.5 -142.5c-34 -11.333 -68 -17 -102 -17
c-74 0 -115 27.333 -123 82c9.33301 44 20.333 81 33 111c18.667 54 34.167 96.5 46.5 127.5s21.166 52.5 26.499 64.5l-8 9c-16 -17.333 -54.5 -61.333 -115.5 -132s-115.5 -126.334 -163.5 -167.001s-102.333 -72.334 -163 -95.001c-7.33301 0 -21 -1.33301 -41 -4
s-37.667 -4 -53 -4c-218.667 0 -328 168 -328 504s224 613.333 672 832c193.333 98 375 147 545 147c66.667 0 137.834 -9.5 213.501 -28.5s113.5 -53.167 113.5 -102.5v-37c-18.667 -29.333 -35 -51 -49 -65c-130.667 68 -237 102 -319 102
c-52.667 0 -120.667 -13 -204 -39s-172.833 -65.167 -268.5 -117.5s-184.167 -114.833 -265.5 -187.5c-172.667 -153.333 -262.667 -296.666 -270 -429.999c0 -10 -0.666992 -24.333 -2 -43s-2 -31.667 -2 -39c0 -214 52 -326 156 -336c62.667 6.66699 124 34 184 82
c214.667 174.667 438.667 443.667 672 807c24.667 40 46.667 65 66 75s50.333 15 93 15c44 0 66 -8.33301 66 -25c0 -6.66699 -5.66699 -25.667 -17 -57zM1118 1794c78 0 143.333 25 196 75s79 112.333 79 187c0 72.667 -26.333 134.5 -79 185.5s-118 76.5 -196 76.5
c-75.333 0 -139.166 -25.5 -191.499 -76.5s-78.5 -112.833 -78.5 -185.5c0 -74.667 26.167 -137 78.5 -187s116.166 -75 191.499 -75zM1118 1655c-108 0 -201.168 38.832 -279.501 116.499s-117.5 172.5 -117.5 284.5c0 108 39.333 200.5 118 277.5s171.667 115.5 279 115.5
c112.667 0 207.834 -38.167 285.501 -114.5s116.5 -169.166 116.5 -278.499c0 -74.667 -17.667 -142.5 -53 -203.5s-83.5 -109.167 -144.5 -144.5s-129.167 -53 -204.5 -53z" />
    <glyph glyph-name="ae" unicode="&#xe6;" horiz-adv-x="2281" 
d="M1241 1442l-7.99512 -122.998c-44.667 8 -89.667 12 -135 12c-130.667 0 -259.667 -28 -387 -84s-239.833 -123.667 -337.5 -203s-174.5 -155.666 -230.5 -228.999c-30.667 -40 -57 -97 -79 -171s-35 -149.333 -39 -226c4 -76.667 17.167 -136 39.5 -178
s62.166 -77 119.499 -105c166 20 345 167.667 537 443c80.667 113.333 187 281 319 503c16.667 24.667 51 37 103 37c14 3.33301 25 5.5 33 6.5s13.333 1.5 16 1.5c70.667 82.667 171 159.334 301 230.001s240 106 330 106c70 0 129.167 -19.667 177.5 -59
s72.5 -93.333 72.5 -162c0 -162 -55.5 -296 -166.5 -402s-250.833 -182.833 -419.5 -230.5s-342 -71.5 -520 -71.5c0 -44 -3 -79.667 -9 -107c4.66699 -102.667 27.667 -175.167 69 -217.5s104.666 -68.166 189.999 -77.499c182 0 367.167 62.667 555.5 188
s325.166 230.666 410.499 315.999c1.33301 1.33301 3.5 3 6.5 5s6.5 3 10.5 3c27.333 0 41 -26 41 -78c0 -26.667 -19.333 -59.334 -58 -98.001c-137.333 -137.333 -300.833 -252.833 -490.5 -346.5s-370.167 -140.5 -541.5 -140.5c-86 12.667 -150.333 39.5 -193 80.5
s-71.334 88.167 -86.001 141.5s-25.334 94 -32.001 122h-9c-7.33301 -46 -15.833 -96.167 -25.5 -150.5s-25.834 -98.833 -48.501 -133.5s-56.667 -52 -102 -52c-32.667 0 -49 13.667 -49 41c2.66699 21.333 15.334 65.666 38.001 132.999s40 126.666 52 177.999
c-79.333 -91.333 -140.333 -158.333 -183 -201s-93.5 -79.834 -152.5 -111.501s-125.833 -47.5 -200.5 -47.5c-101.333 4 -175.833 47.667 -223.5 131s-71.5 187 -71.5 311c0 123.333 23 250.333 69 381c44.667 103.333 133 206 265 308s278.833 185.333 440.5 250
s306.167 97 433.5 97c66.667 0 122.667 -6.66699 168 -20zM1024 688.002c48.667 -8 94.999 -12 138.999 -12c130.667 0 253.834 28 369.501 84s208 125.833 277 209.5s103.5 160.5 103.5 230.5c0 84.667 -42.333 127 -127 127c-70 0 -158.833 -33.5 -266.5 -100.5
s-208 -150 -301 -249s-157.833 -195.5 -194.5 -289.5z" />
    <glyph glyph-name="ccedilla" unicode="&#xe7;" horiz-adv-x="1286" 
d="M184 -16c-177.333 57.333 -265.996 205.998 -265.996 445.998c0 212 68 402.833 204 572.5s308.333 305.167 517 406.5c67.333 30 145 45 233 45c84 0 151.5 -16 202.5 -48s76.5 -78.667 76.5 -140c0 -81.333 -19.667 -166.166 -59 -254.499
s-93.333 -140.166 -162 -155.499c-42 0 -66.667 19 -74 57c11.333 34.667 34.5 83 69.5 145s56.833 112 65.5 150c0 79.333 -47.667 119 -143 119c-40.667 0 -77.667 -8 -111 -24c-93.333 -43.333 -192.5 -109.5 -297.5 -198.5s-193.5 -190.5 -265.5 -304.5
s-108 -226.333 -108 -337c0 -128 20.667 -214.833 62 -260.5s105 -70.834 191 -75.501c27.333 5.33301 63 8 107 8c98.667 11.333 210 62.333 334 153s273.333 210.334 448 359.001c14.667 0 26.5 -8.5 35.5 -25.5s13.5 -37.167 13.5 -60.5
c0 -32.667 -5.33301 -54.334 -16 -65.001c-111.333 -118.667 -255.833 -235.167 -433.5 -349.5s-353.834 -171.5 -528.501 -171.5l-111 -192c5.33301 0 13.666 2.66699 24.999 8c113.333 -11.333 207.166 -34.666 281.499 -69.999s111.5 -99.333 111.5 -192
c0 -90.667 -42.833 -161.834 -128.5 -213.501s-184.834 -77.5 -297.501 -77.5c-94 3.33301 -180 16.833 -258 40.5s-132.667 42.834 -164 57.501l61 95l115.5 -57c29.667 -14.667 63.5 -26 101.5 -34s88.667 -12 152 -12c70 0 126.333 15.833 169 47.5s64 71.834 64 120.501
c0 117.333 -86 181.666 -258 192.999c-58 -11.333 -92 -17 -102 -17l71.5 156z" />
    <glyph glyph-name="egrave" unicode="&#xe8;" horiz-adv-x="1286" 
d="M49 672c13.333 -2.66699 34.665 -5.33594 63.998 -8.00293s50.333 -5.66699 63 -9c102 6.66699 208.833 31.334 320.5 74.001s206.334 103.834 284.001 183.501s116.5 172.834 116.5 279.501c0 79.333 -42.333 119 -127 119c-99.333 0 -219.333 -56 -360 -168
c-213.333 -182.667 -333.666 -339.667 -360.999 -471zM1208 638.998l9.00293 -0.00195312c16 0 24 -20.333 24 -61c0 -44 -16.333 -82.333 -49 -115c-109.333 -92.667 -210 -172.334 -302 -239.001s-201.5 -126.167 -328.5 -178.5s-260.833 -78.5 -401.5 -78.5
c-118.667 8.66699 -200.334 60.834 -245.001 156.501s-67 227.834 -67 396.501c0 162.667 73.667 327.167 221 493.5s314 292.833 500 379.5c102 38 181.333 57 238 57c72 0 133 -18 183 -54s75 -87.667 75 -155c0 -243.333 -102.833 -423 -308.5 -539
s-452.5 -174 -740.5 -174c0 -43.333 -2.66699 -77.333 -8 -102c4 -105.333 28.167 -184.166 72.5 -236.499s121.166 -78.5 230.499 -78.5c122 11.333 250.667 58.333 386 141s305.666 211.667 510.999 387zM385.002 2265h258l439 -545h-144z" />
    <glyph glyph-name="eacute" unicode="&#xe9;" horiz-adv-x="1286" 
d="M49 672c13.333 -2.66699 34.665 -5.33594 63.998 -8.00293s50.333 -5.66699 63 -9c102 6.66699 208.833 31.334 320.5 74.001s206.334 103.834 284.001 183.501s116.5 172.834 116.5 279.501c0 79.333 -42.333 119 -127 119c-99.333 0 -219.333 -56 -360 -168
c-213.333 -182.667 -333.666 -339.667 -360.999 -471zM1208 638.998l9.00293 -0.00195312c16 0 24 -20.333 24 -61c0 -44 -16.333 -82.333 -49 -115c-109.333 -92.667 -210 -172.334 -302 -239.001s-201.5 -126.167 -328.5 -178.5s-260.833 -78.5 -401.5 -78.5
c-118.667 8.66699 -200.334 60.834 -245.001 156.501s-67 227.834 -67 396.501c0 162.667 73.667 327.167 221 493.5s314 292.833 500 379.5c102 38 181.333 57 238 57c72 0 133 -18 183 -54s75 -87.667 75 -155c0 -243.333 -102.833 -423 -308.5 -539
s-452.5 -174 -740.5 -174c0 -43.333 -2.66699 -77.333 -8 -102c4 -105.333 28.167 -184.166 72.5 -236.499s121.166 -78.5 230.499 -78.5c122 11.333 250.667 58.333 386 141s305.666 211.667 510.999 387zM651.002 1720l439 545h258l-553 -545h-144z" />
    <glyph glyph-name="ecircumflex" unicode="&#xea;" horiz-adv-x="1286" 
d="M49 672c13.333 -2.66699 34.665 -5.33594 63.998 -8.00293s50.333 -5.66699 63 -9c102 6.66699 208.833 31.334 320.5 74.001s206.334 103.834 284.001 183.501s116.5 172.834 116.5 279.501c0 79.333 -42.333 119 -127 119c-99.333 0 -219.333 -56 -360 -168
c-213.333 -182.667 -333.666 -339.667 -360.999 -471zM1208 638.998l9.00293 -0.00195312c16 0 24 -20.333 24 -61c0 -44 -16.333 -82.333 -49 -115c-109.333 -92.667 -210 -172.334 -302 -239.001s-201.5 -126.167 -328.5 -178.5s-260.833 -78.5 -401.5 -78.5
c-118.667 8.66699 -200.334 60.834 -245.001 156.501s-67 227.834 -67 396.501c0 162.667 73.667 327.167 221 493.5s314 292.833 500 379.5c102 38 181.333 57 238 57c72 0 133 -18 183 -54s75 -87.667 75 -155c0 -243.333 -102.833 -423 -308.5 -539
s-452.5 -174 -740.5 -174c0 -43.333 -2.66699 -77.333 -8 -102c4 -105.333 28.167 -184.166 72.5 -236.499s121.166 -78.5 230.499 -78.5c122 11.333 250.667 58.333 386 141s305.666 211.667 510.999 387zM250.002 1720l537 545h217l364 -545h-127l-352 414l-528 -414h-111
z" />
    <glyph glyph-name="edieresis" unicode="&#xeb;" horiz-adv-x="1286" 
d="M49 672c13.333 -2.66699 34.665 -5.33594 63.998 -8.00293s50.333 -5.66699 63 -9c102 6.66699 208.833 31.334 320.5 74.001s206.334 103.834 284.001 183.501s116.5 172.834 116.5 279.501c0 79.333 -42.333 119 -127 119c-99.333 0 -219.333 -56 -360 -168
c-213.333 -182.667 -333.666 -339.667 -360.999 -471zM1208 638.998l9.00293 -0.00195312c16 0 24 -20.333 24 -61c0 -44 -16.333 -82.333 -49 -115c-109.333 -92.667 -210 -172.334 -302 -239.001s-201.5 -126.167 -328.5 -178.5s-260.833 -78.5 -401.5 -78.5
c-118.667 8.66699 -200.334 60.834 -245.001 156.501s-67 227.834 -67 396.501c0 162.667 73.667 327.167 221 493.5s314 292.833 500 379.5c102 38 181.333 57 238 57c72 0 133 -18 183 -54s75 -87.667 75 -155c0 -243.333 -102.833 -423 -308.5 -539
s-452.5 -174 -740.5 -174c0 -43.333 -2.66699 -77.333 -8 -102c4 -105.333 28.167 -184.166 72.5 -236.499s121.166 -78.5 230.499 -78.5c122 11.333 250.667 58.333 386 141s305.666 211.667 510.999 387zM492.002 2081c35.333 0 65.333 -11.5 90 -34.5
s37 -53.833 37 -92.5c0 -37.333 -12.333 -67.166 -37 -89.499s-54.667 -33.5 -90 -33.5c-38 0 -69.333 11.167 -94 33.5s-37 52.166 -37 89.499c0 38.667 12.333 69.5 37 92.5s56 34.5 94 34.5zM1225 2081c34.667 0 64.5 -11.667 89.5 -35s37.5 -54 37.5 -92
c0 -36.667 -12.5 -66.334 -37.5 -89.001s-54.833 -34 -89.5 -34c-36 0 -66.167 11.333 -90.5 34s-36.5 52.334 -36.5 89.001c0 38.667 12.167 69.5 36.5 92.5s54.5 34.5 90.5 34.5z" />
    <glyph glyph-name="igrave" unicode="&#xec;" horiz-adv-x="913" 
d="M487 1425h192.999c0 -5.33301 -86.333 -198.333 -259 -579s-262.334 -579.334 -269.001 -596.001c-6 0 -14.333 -22 -25 -66l16 -16c73.333 24 143.5 59 210.5 105s147.333 107.667 241 185s164.5 132.333 212.5 165c16 16 27 24 33 24c21.333 0 32 -23 32 -69
c0 -33.333 -16.333 -66.333 -49 -99c-168.667 -154 -389.667 -305.333 -663 -454c-42.667 -22 -90.667 -33 -144 -33c-65.333 0 -98 34 -98 102c6.66699 56 24.5 118.5 53.5 187.5s89.167 201.833 180.5 398.5h-9c-5.33301 0 -75 -67 -209 -201
c-19.333 -19.333 -31.333 -30.333 -36 -33c-2.66699 2 -8 4.5 -16 7.5s-13.667 6.16699 -17 9.5c-11.333 0 -17 16.333 -17 49s13 66.834 39 102.501s59.167 71.5 99.5 107.5l95.5 85c4.66699 4.66699 40.834 37 108.501 97s107.834 102.667 120.501 128
c18 34.667 45.833 95.167 83.5 181.5zM216.999 2265h258l439 -545h-144z" />
    <glyph glyph-name="iacute" unicode="&#xed;" horiz-adv-x="913" 
d="M487 1425h192.999c0 -5.33301 -86.333 -198.333 -259 -579s-262.334 -579.334 -269.001 -596.001c-6 0 -14.333 -22 -25 -66l16 -16c73.333 24 143.5 59 210.5 105s147.333 107.667 241 185s164.5 132.333 212.5 165c16 16 27 24 33 24c21.333 0 32 -23 32 -69
c0 -33.333 -16.333 -66.333 -49 -99c-168.667 -154 -389.667 -305.333 -663 -454c-42.667 -22 -90.667 -33 -144 -33c-65.333 0 -98 34 -98 102c6.66699 56 24.5 118.5 53.5 187.5s89.167 201.833 180.5 398.5h-9c-5.33301 0 -75 -67 -209 -201
c-19.333 -19.333 -31.333 -30.333 -36 -33c-2.66699 2 -8 4.5 -16 7.5s-13.667 6.16699 -17 9.5c-11.333 0 -17 16.333 -17 49s13 66.834 39 102.501s59.167 71.5 99.5 107.5l95.5 85c4.66699 4.66699 40.834 37 108.501 97s107.834 102.667 120.501 128
c18 34.667 45.833 95.167 83.5 181.5zM482.999 1720l439 545h258l-553 -545h-144z" />
    <glyph glyph-name="icircumflex" unicode="&#xee;" horiz-adv-x="913" 
d="M487 1425h192.999c0 -5.33301 -86.333 -198.333 -259 -579s-262.334 -579.334 -269.001 -596.001c-6 0 -14.333 -22 -25 -66l16 -16c73.333 24 143.5 59 210.5 105s147.333 107.667 241 185s164.5 132.333 212.5 165c16 16 27 24 33 24c21.333 0 32 -23 32 -69
c0 -33.333 -16.333 -66.333 -49 -99c-168.667 -154 -389.667 -305.333 -663 -454c-42.667 -22 -90.667 -33 -144 -33c-65.333 0 -98 34 -98 102c6.66699 56 24.5 118.5 53.5 187.5s89.167 201.833 180.5 398.5h-9c-5.33301 0 -75 -67 -209 -201
c-19.333 -19.333 -31.333 -30.333 -36 -33c-2.66699 2 -8 4.5 -16 7.5s-13.667 6.16699 -17 9.5c-11.333 0 -17 16.333 -17 49s13 66.834 39 102.501s59.167 71.5 99.5 107.5l95.5 85c4.66699 4.66699 40.834 37 108.501 97s107.834 102.667 120.501 128
c18 34.667 45.833 95.167 83.5 181.5zM73.999 1720l537 545h217l364 -545h-127l-352 414l-528 -414h-111z" />
    <glyph glyph-name="idieresis" unicode="&#xef;" horiz-adv-x="913" 
d="M487 1425h192.999c0 -5.33301 -86.333 -198.333 -259 -579s-262.334 -579.334 -269.001 -596.001c-6 0 -14.333 -22 -25 -66l16 -16c73.333 24 143.5 59 210.5 105s147.333 107.667 241 185s164.5 132.333 212.5 165c16 16 27 24 33 24c21.333 0 32 -23 32 -69
c0 -33.333 -16.333 -66.333 -49 -99c-168.667 -154 -389.667 -305.333 -663 -454c-42.667 -22 -90.667 -33 -144 -33c-65.333 0 -98 34 -98 102c6.66699 56 24.5 118.5 53.5 187.5s89.167 201.833 180.5 398.5h-9c-5.33301 0 -75 -67 -209 -201
c-19.333 -19.333 -31.333 -30.333 -36 -33c-2.66699 2 -8 4.5 -16 7.5s-13.667 6.16699 -17 9.5c-11.333 0 -17 16.333 -17 49s13 66.834 39 102.501s59.167 71.5 99.5 107.5l95.5 85c4.66699 4.66699 40.834 37 108.501 97s107.834 102.667 120.501 128
c18 34.667 45.833 95.167 83.5 181.5zM323.999 2089c35.333 0 65.333 -11.5 90 -34.5s37 -53.833 37 -92.5c0 -37.333 -12.333 -67.166 -37 -89.499s-54.667 -33.5 -90 -33.5c-38 0 -69.333 11.167 -94 33.5s-37 52.166 -37 89.499c0 38.667 12.333 69.5 37 92.5
s56 34.5 94 34.5zM1057 2089c34.667 0 64.5 -11.667 89.5 -35s37.5 -54 37.5 -92c0 -36.667 -12.5 -66.334 -37.5 -89.001s-54.833 -34 -89.5 -34c-36 0 -66.167 11.333 -90.5 34s-36.5 52.334 -36.5 89.001c0 38.667 12.167 69.5 36.5 92.5s54.5 34.5 90.5 34.5z" />
    <glyph glyph-name="eth" unicode="&#xf0;" horiz-adv-x="1360" 
d="M1065 2290c-2.66699 65.333 -10.834 152.662 -24.501 261.996c-13.667 109.333 -21.834 195.333 -24.501 258c0 73.333 27.333 110 82 110c22.667 0 44.334 -7 65.001 -21s33 -31.333 37 -52c36.667 -178 58.667 -354.333 66 -529l716 148
c-9.33301 -74.667 -27 -126.334 -53 -155c-26 -28.667 -69.667 -49.334 -131 -62.001l-524 -99c0 -148 -4.33301 -277.333 -13 -388s-24.167 -219.667 -46.5 -327s-55.5 -227.166 -99.5 -359.499s-101.667 -286.166 -173 -461.499c0 -4.66699 -4 -19.667 -12 -45
c8 -48.667 42 -73 102 -73c16.667 0 36 4.83301 58 14.5s43.333 21.667 64 36s40 28.5 58 42.5l82 66c11.333 -20 17 -43 17 -69c0 -69.333 -31.167 -124.333 -93.5 -165s-132.166 -69 -209.499 -85c-44.667 4 -82.834 15.5 -114.501 34.5s-49.5 41.5 -53.5 67.5
c-90.667 -138.667 -192.667 -251.834 -306 -339.501s-232.666 -131.5 -357.999 -131.5c-106 0 -189.167 36.5 -249.5 109.5s-90.5 204.5 -90.5 394.5c0 11.333 0.666992 28 2 50s2 38 2 48c8 122.667 41.667 242.834 101 360.501s137.666 214.834 234.999 291.501
s204 120.334 320 131.001c28.667 0 52.167 -7.33301 70.5 -22s27.5 -33.334 27.5 -56.001c0 -46.667 -24.667 -74 -74 -82c-174 -42.667 -296.5 -126 -367.5 -250s-121.833 -289.333 -152.5 -496c5.33301 -97.333 21.833 -176.166 49.5 -236.499
s80.834 -96.166 159.501 -107.499c90.667 10.667 167 49 229 115c80 74.667 147.667 152 203 232s107 175.667 155 287s96.667 247 146 407c87.333 318.667 131 604 131 856v106l-647 -131c0 88.667 15 145.667 45 171s75 43.666 135 55z" />
    <glyph glyph-name="ntilde" unicode="&#xf1;" 
d="M250 991c15.333 21.333 39.8389 75.3359 73.5059 162.003s68.667 153.667 105 201s86.166 71 149.499 71c30 -8.66699 45 -27.667 45 -57c0 -16.667 -11 -46.167 -33 -88.5l-37 -71.5l-125.5 -269.5l-132 -290l-119.5 -255.5h17l282.5 282l431.5 407
c158 143.333 277.667 238.666 359 285.999c5.33301 2.66699 22 13 50 31s50.833 31 68.5 39s36.834 12 57.501 12c25.333 0 48.666 -8.16699 69.999 -24.5s32 -38.166 32 -65.499c0 -31.333 -19.333 -86 -58 -164s-61.667 -127 -69 -147l-368 -824
c0 -3.33301 -5.66699 -17 -17 -41c0 -4.66699 11 -12.667 33 -24c21.333 10.667 35 16 41 16c54 21.333 151.667 87.666 293 198.999l338 272h16c16.667 0 25 -13.667 25 -41c0 -41.333 -7.33301 -74.166 -22 -98.499s-40.334 -51.5 -77.001 -81.5
c-94.667 -82 -209.334 -167.333 -344.001 -256s-241 -145.334 -319 -170.001c-16.667 -5.33301 -45.334 -8 -86.001 -8c-70 0 -108.333 27.333 -115 82c28 108.667 65 216.667 111 324s96.833 215.333 152.5 324l195.5 384c8 20 12 37.667 12 53c0 11.333 -4 17 -12 17
c-12.667 0 -31.667 -8.33301 -57 -25c-104.667 -70 -204.334 -148.333 -299.001 -235s-192.667 -183.667 -294 -291l-312.5 -330c-107 -112.667 -205.5 -208.334 -295.5 -287.001c-10.667 -10.667 -32.334 -16 -65.001 -16c-46.667 0 -70 19 -70 57v33l221 582l-112.5 -121
c-47 -50 -80.5 -82.333 -100.5 -97l-8 -8c-27.333 9.33301 -41 36.666 -41 81.999c0 38.667 24.667 81 74 127c30 34.667 82 86.5 156 155.5s134 131.833 180 188.5zM610.006 1802c8.66699 52 34.668 116.832 78.001 194.499s115.666 116.5 216.999 116.5
c41.333 0 89.666 -9.5 144.999 -28.5l164.5 -57c54.333 -19 102.5 -28.5 144.5 -28.5c39.333 0 72.333 5.33301 99 16s47.167 24 61.5 40s26 35.167 35 57.5l22.5 54.5h94c-6 -68 -19.333 -122.333 -40 -163s-44.167 -70.5 -70.5 -89.5s-56.666 -32.833 -90.999 -41.5
s-60.166 -14.667 -77.499 -18c-52.667 0 -102.334 6.83301 -149.001 20.5s-105.5 32.834 -176.5 57.501s-119.5 37 -145.5 37c-112 0 -178.667 -56 -200 -168h-111z" />
    <glyph glyph-name="ograve" unicode="&#xf2;" horiz-adv-x="1360" 
d="M631 1503c16 5.33301 37.6699 8.00098 65.0029 8.00098c52 0 78 -23 78 -69c0 -42.667 -17.667 -67.334 -53 -74.001c-235.333 -68.667 -411.833 -187.167 -529.5 -355.5s-178.834 -346.166 -183.501 -533.499c10 -84 19 -144.5 27 -181.5s26.167 -72 54.5 -105
s70.833 -52.167 127.5 -57.5c72.667 3.33301 152.667 37.333 240 102s150.666 127.667 189.999 189c-48 55.333 -76.667 151 -86 287c5.33301 134 36 264.333 92 391s142.667 190 260 190c64 0 104 -19.333 120 -58s24 -95.667 24 -171c0 -84 -12.167 -165.833 -36.5 -245.5
s-53 -150 -86 -211l-70.5 -129.5l34.5 -11l39.5 -13c48.667 2.66699 98.167 18.667 148.5 48s98.5 63.5 144.5 102.5s70 58.5 72 58.5c10.667 0 16 -22 16 -66c0 -84 -47.5 -151.5 -142.5 -202.5s-188.167 -79.167 -279.5 -84.5c-68 13.333 -109 21.666 -123 24.999
c-103.333 -114 -200 -198.833 -290 -254.5s-187 -85.5 -291 -89.5c-110 0 -193.5 37.5 -250.5 112.5s-85.5 202.5 -85.5 382.5v41c4.66699 210.667 64.167 388.334 178.5 533.001s228.166 249.667 341.499 315s198 107.666 254 126.999zM754.003 553.001
c46 89.333 85.499 182.832 118.499 280.499s49.5 174.834 49.5 231.501c0 46.667 -8.33301 70 -25 70c-48 0 -92.167 -42.333 -132.5 -127s-63.166 -177.667 -68.499 -279c10 -81.333 29.333 -140 58 -176zM376.002 2265h258l439 -545h-144z" />
    <glyph glyph-name="oacute" unicode="&#xf3;" horiz-adv-x="1360" 
d="M631 1503c16 5.33301 37.6699 8.00098 65.0029 8.00098c52 0 78 -23 78 -69c0 -42.667 -17.667 -67.334 -53 -74.001c-235.333 -68.667 -411.833 -187.167 -529.5 -355.5s-178.834 -346.166 -183.501 -533.499c10 -84 19 -144.5 27 -181.5s26.167 -72 54.5 -105
s70.833 -52.167 127.5 -57.5c72.667 3.33301 152.667 37.333 240 102s150.666 127.667 189.999 189c-48 55.333 -76.667 151 -86 287c5.33301 134 36 264.333 92 391s142.667 190 260 190c64 0 104 -19.333 120 -58s24 -95.667 24 -171c0 -84 -12.167 -165.833 -36.5 -245.5
s-53 -150 -86 -211l-70.5 -129.5l34.5 -11l39.5 -13c48.667 2.66699 98.167 18.667 148.5 48s98.5 63.5 144.5 102.5s70 58.5 72 58.5c10.667 0 16 -22 16 -66c0 -84 -47.5 -151.5 -142.5 -202.5s-188.167 -79.167 -279.5 -84.5c-68 13.333 -109 21.666 -123 24.999
c-103.333 -114 -200 -198.833 -290 -254.5s-187 -85.5 -291 -89.5c-110 0 -193.5 37.5 -250.5 112.5s-85.5 202.5 -85.5 382.5v41c4.66699 210.667 64.167 388.334 178.5 533.001s228.166 249.667 341.499 315s198 107.666 254 126.999zM754.003 553.001
c46 89.333 85.499 182.832 118.499 280.499s49.5 174.834 49.5 231.501c0 46.667 -8.33301 70 -25 70c-48 0 -92.167 -42.333 -132.5 -127s-63.166 -177.667 -68.499 -279c10 -81.333 29.333 -140 58 -176zM634.002 1720l439 545h258l-553 -545h-144z" />
    </font>
</defs>
</svg>
